SplineFontDB: 3.2
FontName: SWLegionIcons
FullName: SW Legion Icons
FamilyName: SW Legion Icons
Weight: Regular
Copyright: Originally Copyright (c) 2018, Owen Appleton.\nUpdated by lyerelian\nUpdated by Retinue, 2020\nUpdated again by Bryan Campbell, 2025-2026
FontLog: "Updated in 2025/2026 to add new icons, including all factions and inverted upgrade icons. Also reorganized to better group icons and improve ease of use.+AAoA -Added faction icons for Republic, Separatists, and all Mercenaries.+AAoA -Added upgrade icons for Squad Leader, Doctrine, and Programming.+AAoA -Added icons for half range and Overrun.+AAoA -Added icon for Range (as seen in the Weapons portion of unit cards, which is different from the existing Beyond Range 5 icon).+AAoA -Added icons for Expend, Expend after action, and Exhaust (with a border).+AAoA -Redrew some icons to improve appearance.+AAoA -Created inverted upgrade icons with outlines (as seen on unit cards, vs the in-text style seen without an outline).+AAoA -Reorganized layout to better group together icons, including inverted (card style) and non-inverted (in-text style) icons as lowercase and caps."
Version: 4.0
ItalicAngle: 0
UnderlinePosition: -150
UnderlineWidth: 51
Ascent: 819
Descent: 205
InvalidEm: 0
sfntRevision: 0x00010000
LayerCount: 2
Layer: 0 1 "Back" 1
Layer: 1 1 "Fore" 0
XUID: [1021 81 -387317034 7768]
StyleMap: 0x0000
FSType: 0
OS2Version: 4
OS2_WeightWidthSlopeOnly: 0
OS2_UseTypoMetrics: 1
CreationTime: 1521795584
ModificationTime: 1768367074
PfmFamily: 17
TTFWeight: 400
TTFWidth: 5
LineGap: 92
VLineGap: 0
Panose: 2 0 5 3 0 0 0 0 0 0
OS2TypoAscent: 819
OS2TypoAOffset: 0
OS2TypoDescent: -205
OS2TypoDOffset: 0
OS2TypoLinegap: 92
OS2WinAscent: 845
OS2WinAOffset: 0
OS2WinDescent: 236
OS2WinDOffset: 0
HheadAscent: 845
HheadAOffset: 0
HheadDescent: -236
HheadDOffset: 0
OS2SubXSize: 665
OS2SubYSize: 716
OS2SubXOff: 0
OS2SubYOff: 143
OS2SupXSize: 665
OS2SupYSize: 716
OS2SupXOff: 0
OS2SupYOff: 491
OS2StrikeYSize: 51

StartChar: .notdef
Encoding: 65536 -1 0
Width: 374
GlyphClass: 1
Flags: W
LayerCount: 2
Fore
SplineSet
34 0 m 1,0,-1
 34 682 l 1,1,-1
 306 682 l 1,2,-1
 306 0 l 1,3,-1
 34 0 l 1,0,-1
68 34 m 1,4,-1
 272 34 l 1,5,-1
 272 648 l 1,6,-1
 68 648 l 1,7,-1
 68 34 l 1,4,-1
EndSplineSet
Validated: 1
EndChar

StartChar: exclam
Encoding: 33 33 3
Width: 1042
GlyphClass: 2
Flags: W
LayerCount: 2
Fore
SplineSet
460 563 m 1,0,1
 460 627 460 627 417 681 c 1,2,3
 446 715 446 715 505 782 c 1,4,5
 505 782 505 782 594 681 c 1,6,7
 550 625 550 625 550 563 c 1,8,9
 588 619 588 619 636 638 c 1,10,11
 654 617 654 617 692 575 c 1,12,13
 651 557 651 557 630 534 c 0,14,15
 615 517 615 517 603 497 c 0,16,17
 573 446 573 446 570 395 c 0,18,19
 569 379 569 379 569 369 c 1,20,21
 569 357 569 357 569 356 c 2,22,23
 569 345 569 345 569 345 c 0,24,25
 569 331 569 331 574 307 c 0,26,27
 580 279 580 279 601 249 c 1,28,29
 637 209 637 209 678 209 c 0,30,31
 694 209 694 209 718 217 c 0,32,33
 754 229 754 229 778 253 c 0,34,35
 858 334 858 334 858 441 c 2,36,37
 859 445 859 445 858 452 c 0,38,39
 846 524 846 524 837 545 c 0,40,41
 826 574 826 574 773 661 c 0,42,43
 750 699 750 699 748 700 c 256,44,45
 744 702 744 702 749 701 c 0,46,47
 751 700 751 700 751 702 c 1,48,49
 862 629 862 629 921 523 c 256,50,51
 981 415 981 415 981 305 c 2,52,53
 981 304 981 304 981 278 c 2,54,55
 981 268 981 268 981 266 c 2,56,57
 981 258 981 258 981 257 c 2,58,59
 981 250 981 250 981 250 c 0,60,61
 981 195 981 195 947 111 c 0,62,63
 914 30 914 30 847 -44 c 0,64,65
 782 -115 782 -115 696 -153 c 0,66,67
 603 -194 603 -194 505 -194 c 0,68,69
 402 -194 402 -194 315 -154 c 0,70,71
 149 -78 149 -78 63 115 c 0,72,73
 29 191 29 191 29 290 c 2,74,75
 29 305 29 305 29 305 c 0,76,77
 29 419 29 419 91 527 c 0,78,79
 165 657 165 657 256 702 c 0,80,81
 261 704 261 704 261 701 c 0,82,83
 261 701 261 701 259 699 c 128,-1,84
 257 697 257 697 242 676 c 0,85,86
 209 632 209 632 178 560 c 256,87,88
 154 504 154 504 154 452 c 2,89,90
 154 446 154 446 154 433 c 1,91,92
 154 427 154 427 154 426 c 2,93,94
 154 422 154 422 154 421 c 2,95,96
 154 417 154 417 154 417 c 0,97,98
 159 382 159 382 171 348 c 0,99,100
 190 295 190 295 234 253 c 0,101,102
 271 218 271 218 319 210 c 0,103,104
 325 209 325 209 332 209 c 0,105,106
 374 209 374 209 409 249 c 1,107,108
 443 299 443 299 443 367 c 0,109,110
 443 387 443 387 442 395 c 0,111,112
 436 442 436 442 409 497 c 0,113,114
 397 521 397 521 371 543 c 256,115,116
 345 565 345 565 320 575 c 1,117,118
 339 596 339 596 376 638 c 1,119,120
 423 617 423 617 460 563 c 1,0,1
EndSplineSet
EndChar

StartChar: quotedbl
Encoding: 34 34 4
Width: 1033
GlyphClass: 2
Flags: W
LayerCount: 2
Fore
SplineSet
900 95 m 1,0,1
 911 115 911 115 920 136 c 0,2,3
 928 157 928 157 933 183 c 0,4,5
 941 210 941 210 944 237 c 0,6,7
 947 265 947 265 947 292 c 0,8,9
 947 321 947 321 944 349 c 0,10,11
 941 378 941 378 933 404 c 0,12,13
 928 428 928 428 920 448 c 0,14,15
 911 469 911 469 900 491 c 1,16,17
 894 488 894 488 882 480 c 1,18,19
 892 461 892 461 900 441 c 256,20,21
 908 421 908 421 915 400 c 1,22,23
 898 395 898 395 864 386 c 1,24,25
 877 341 877 341 877 292 c 0,26,27
 877 244 877 244 864 200 c 1,28,29
 881 196 881 196 915 186 c 1,30,31
 901 142 901 142 882 105 c 1,32,33
 888 102 888 102 900 95 c 1,0,1
821 -12 m 0,34,35
 838 4 838 4 852 22 c 0,36,37
 867 41 867 41 879 60 c 1,38,39
 873 64 873 64 862 70 c 1,40,41
 851 51 851 51 838 34 c 0,42,43
 824 17 824 17 807 3 c 1,44,45
 795 15 795 15 772 39 c 1,46,47
 739 6 739 6 698 -18 c 0,48,49
 656 -42 656 -42 610 -56 c 1,50,51
 614 -72 614 -72 623 -104 c 1,52,53
 580 -119 580 -119 534 -119 c 1,54,55
 534 -119 534 -119 534 -137 c 1,56,57
 557 -137 557 -137 581 -133 c 256,58,59
 605 -129 605 -129 629 -123 c 0,60,61
 685 -109 685 -109 734 -80 c 0,62,63
 782 -50 782 -50 821 -12 c 0,34,35
493 -117 m 1,64,65
 450 -117 450 -117 412 -104 c 1,66,67
 415 -88 415 -88 423 -56 c 1,68,69
 330 -29 330 -29 261 39 c 1,70,71
 250 27 250 27 226 3 c 1,72,73
 194 32 194 32 171 70 c 1,74,75
 166 67 166 67 156 60 c 1,76,77
 171 34 171 34 181 22 c 0,78,79
 196 4 196 4 212 -12 c 0,80,81
 252 -51 252 -51 300 -80 c 0,82,83
 353 -111 353 -111 404 -123 c 0,84,85
 426 -128 426 -128 447 -133 c 256,86,87
 465 -137 465 -137 493 -137 c 1,88,89
 493 -137 493 -137 493 -117 c 1,64,65
152 105 m 1,90,91
 132 142 132 142 118 186 c 1,92,93
 135 191 135 191 170 200 c 1,94,95
 157 243 157 243 157 292 c 0,96,97
 157 343 157 343 170 386 c 1,98,99
 153 391 153 391 118 400 c 1,100,101
 125 421 125 421 133 441 c 256,102,103
 141 461 141 461 152 480 c 1,104,105
 146 484 146 484 134 491 c 1,106,107
 122 469 122 469 114 448 c 0,108,109
 105 428 105 428 100 404 c 0,110,111
 86 350 86 350 86 292 c 0,112,113
 86 265 86 265 89 237 c 0,114,115
 92 210 92 210 100 183 c 0,116,117
 111 135 111 135 134 95 c 1,118,119
 140 98 140 98 152 105 c 1,90,91
212 597 m 0,120,121
 196 582 196 582 181 564 c 0,122,123
 167 546 167 546 156 526 c 1,124,125
 161 523 161 523 171 516 c 1,126,127
 182 534 182 534 196 552 c 0,128,129
 210 569 210 569 226 582 c 1,130,131
 238 571 238 571 261 548 c 1,132,133
 295 580 295 580 336 605 c 256,134,135
 377 630 377 630 423 642 c 1,136,137
 419 658 419 658 412 691 c 1,138,139
 427 695 427 695 451 700 c 0,140,141
 472 704 472 704 493 704 c 1,142,143
 493 704 493 704 493 722 c 1,144,145
 471 722 471 722 449 719 c 256,146,147
 429 716 429 716 404 708 c 0,148,149
 349 695 349 695 300 665 c 0,150,151
 251 636 251 636 212 597 c 0,120,121
664 292 m 0,152,153
 664 306 664 306 662 312 c 0,154,155
 659 321 659 321 659 331 c 1,156,157
 709 344 709 344 807 370 c 1,158,159
 797 409 797 409 777 444 c 256,160,161
 757 479 757 479 730 506 c 1,162,163
 694 469 694 469 621 396 c 1,164,165
 607 410 607 410 590 420 c 0,166,167
 572 429 572 429 553 435 c 1,168,169
 567 484 567 484 594 582 c 1,170,171
 575 587 575 587 556 590 c 256,172,173
 537 593 537 593 518 593 c 0,174,175
 498 593 498 593 478 590 c 256,176,177
 458 587 458 587 439 582 c 1,178,179
 453 533 453 533 480 435 c 1,180,181
 461 429 461 429 444 420 c 0,182,183
 427 410 427 410 413 396 c 1,184,185
 413 396 413 396 303 506 c 1,186,187
 276 479 276 479 257 444 c 256,188,189
 238 409 238 409 227 370 c 1,190,191
 278 357 278 357 378 331 c 1,192,193
 371 313 371 313 371 292 c 0,194,195
 371 283 371 283 372 274 c 0,196,197
 374 264 374 264 378 256 c 1,198,199
 328 242 328 242 227 215 c 1,200,201
 238 177 238 177 257 143 c 256,202,203
 276 109 276 109 303 80 c 1,204,205
 340 116 340 116 413 190 c 1,206,207
 427 178 427 178 444 168 c 0,208,209
 461 157 461 157 480 153 c 1,210,211
 467 103 467 103 439 3 c 1,212,213
 456 -5 456 -5 478 -6 c 0,214,215
 478 -6 478 -6 518 -7 c 0,216,217
 559 -7 559 -7 594 3 c 1,218,219
 580 53 580 53 553 153 c 1,220,221
 572 157 572 157 590 167 c 0,222,223
 607 176 607 176 621 190 c 1,224,225
 657 153 657 153 730 80 c 1,226,227
 757 108 757 108 777 142 c 256,228,229
 797 176 797 176 807 215 c 1,230,231
 758 228 758 228 659 256 c 1,232,233
 660 264 660 264 662 274 c 0,234,235
 664 283 664 283 664 292 c 0,152,153
535 704 m 1,236,237
 558 704 558 704 579.5 700 c 128,-1,238
 601 696 601 696 623 691 c 1,239,240
 618 675 618 675 610 642 c 1,241,242
 656 630 656 630 698 605 c 0,243,244
 739 580 739 580 772 548 c 1,245,246
 772 548 772 548 807 583 c 1,247,248
 828 565 828 565 838 552 c 0,249,250
 851 534 851 534 862 516 c 1,251,252
 868 519 868 519 879 526 c 1,253,254
 867 546 867 546 852 564 c 0,255,256
 845 573 845 573 821 597 c 0,257,258
 778 640 778 640 734 666 c 0,259,260
 690.436170213 691.691489362 690.436170213 691.691489362 629 711 c 0,261,262
 599.290697674 720.337209302 599.290697674 720.337209302 581 722 c 256,263,264
 560 724 560 724 535 724 c 1,265,266
 535 718 535 718 535 704 c 1,236,237
986 419 m 0,267,268
 994 389 994 389 998 357 c 256,269,270
 1002 325 1002 325 1002 292 c 256,271,272
 1002 259 1002 259 998 227 c 256,273,274
 994 195 994 195 986 166 c 0,275,276
 969 104 969 104 937 49 c 0,277,278
 905 -5 905 -5 860 -50 c 0,279,280
 816 -96 816 -96 760 -128 c 0,281,282
 704 -159 704 -159 642 -176 c 0,283,284
 612 -184 612 -184 581 -188 c 256,285,286
 542 -193 542 -193 518 -193 c 0,287,288
 491 -193 491 -193 453 -188 c 256,289,290
 422 -184 422 -184 392 -176 c 0,291,292
 330 -159 330 -159 273 -128 c 0,293,294
 217 -96 217 -96 173 -50 c 0,295,296
 129 -5 129 -5 97 49 c 0,297,298
 65 104 65 104 47 166 c 0,299,300
 39 195 39 195 35 227 c 256,301,302
 31 259 31 259 31 292 c 256,303,304
 31 325 31 325 35 357 c 256,305,306
 39 389 39 389 47 419 c 0,307,308
 65 482 65 482 97 537 c 256,309,310
 129 592 129 592 173 636 c 0,311,312
 217 682 217 682 273 713 c 256,313,314
 329 744 329 744 392 762 c 0,315,316
 449 778 449 778 518 778 c 0,317,318
 550 778 550 778 581 774 c 256,319,320
 612 770 612 770 642 762 c 0,321,322
 705 744 705 744 760 713 c 0,323,324
 816 682 816 682 860 636 c 0,325,326
 905 592 905 592 937 537 c 256,327,328
 969 482 969 482 986 419 c 0,267,268
EndSplineSet
EndChar

StartChar: numbersign
Encoding: 35 35 5
Width: 1024
GlyphClass: 2
Flags: W
LayerCount: 2
Fore
SplineSet
544 455 m 0,0,1
 557 453 557 453 571 447 c 2,2,-1
 595 434 l 1,3,-1
 706 546 l 1,4,-1
 751 501 l 1,5,-1
 639 390 l 1,6,7
 644 383 644 383 653 364 c 2,8,-1
 660 339 l 1,9,-1
 818 339 l 1,10,-1
 818 275 l 1,11,-1
 660 275 l 1,12,13
 658 262 658 262 653 250 c 2,14,-1
 639 225 l 1,15,-1
 751 113 l 1,16,-1
 706 68 l 1,17,-1
 595 180 l 1,18,19
 584 173 584 173 570 167 c 2,20,-1
 544 159 l 1,21,-1
 544 0 l 1,22,-1
 480 0 l 1,23,-1
 480 159 l 1,24,25
 466 162 466 162 452 167 c 2,26,-1
 429 180 l 1,27,-1
 318 68 l 1,28,-1
 273 113 l 1,29,-1
 385 224 l 1,30,31
 378 233 378 233 372 249 c 2,32,-1
 364 275 l 1,33,-1
 206 275 l 1,34,-1
 206 339 l 1,35,-1
 364 339 l 1,36,37
 366 351 366 351 371 364 c 2,38,-1
 384 388 l 1,39,-1
 273 501 l 1,40,-1
 318 546 l 1,41,-1
 429 434 l 1,42,43
 439 441 439 441 454 447 c 2,44,-1
 480 455 l 1,45,-1
 480 613 l 1,46,-1
 544 613 l 1,47,-1
 544 455 l 0,0,1
463 668 m 1,48,49
 423 668 423 668 374 644 c 0,50,51
 338 626 338 626 332 623 c 0,52,53
 312 612 312 612 301 604 c 2,54,-1
 291 597 l 1,55,-1
 257 631 l 1,56,57
 295 665 295 665 347 686 c 0,58,59
 371 696 371 696 402 704 c 0,60,61
 432 712 432 712 447 715 c 2,62,-1
 463 717 l 1,63,-1
 463 668 l 1,48,49
464 -54 m 1,64,-1
 464 -103 l 1,65,66
 399 -95 399 -95 348 -72 c 0,67,68
 321 -60 321 -60 300 -47 c 0,69,70
 280 -35 280 -35 267 -26 c 2,71,-1
 257 -17 l 1,72,-1
 292 17 l 1,73,74
 325 -9 325 -9 374 -30 c 0,75,76
 391 -38 391 -38 419 -45 c 0,77,78
 445 -52 445 -52 452 -53 c 2,79,-1
 464 -54 l 1,64,-1
151 258 m 0,80,81
 151 217 151 217 175 168 c 0,82,83
 185 144 185 144 195 127 c 0,84,85
 207 106 207 106 215 96 c 2,86,-1
 222 86 l 1,87,-1
 188 51 l 1,88,89
 155 88 155 88 133 142 c 0,90,91
 123 168 123 168 115 196 c 0,92,93
 107 226 107 226 104 242 c 2,94,-1
 102 258 l 1,95,-1
 151 258 l 0,80,81
152 356 m 1,96,-1
 102 356 l 1,97,98
 110 421 110 421 133 472 c 0,99,100
 145 499 145 499 158 520 c 0,101,102
 170 540 170 540 179 553 c 2,103,-1
 188 563 l 1,104,-1
 222 528 l 1,105,106
 194 492 194 492 175 446 c 0,107,108
 175 446 175 446 160 401 c 0,109,110
 152 377 152 377 152 367 c 1,111,-1
 152 356 l 1,96,-1
561 667 m 1,112,-1
 561 717 l 1,113,114
 626 709 626 709 677 686 c 0,115,116
 684 683 684 683 724 661 c 0,117,118
 746 649 746 649 757 640 c 2,119,-1
 768 631 l 1,120,-1
 733 597 l 1,121,122
 701 622 701 622 650 644 c 0,123,124
 633 652 633 652 606 659 c 0,125,126
 581 666 581 666 572 667 c 2,127,-1
 561 667 l 1,112,-1
561 -54 m 1,128,129
 601 -54 601 -54 650 -30 c 0,130,131
 686 -12 686 -12 692 -9 c 0,132,133
 712 2 712 2 723 10 c 2,134,-1
 733 17 l 1,135,-1
 767 -17 l 1,136,137
 729 -51 729 -51 677 -72 c 0,138,139
 653 -82 653 -82 622 -90 c 0,140,141
 592 -98 592 -98 577 -101 c 2,142,-1
 561 -103 l 1,143,-1
 561 -54 l 1,128,129
873 258 m 1,144,-1
 922 258 l 1,145,146
 915 200 915 200 891 142 c 0,147,148
 879 113 879 113 867 94 c 0,149,150
 852 70 852 70 845 61 c 2,151,-1
 837 51 l 1,152,-1
 802 86 l 1,153,154
 828 119 828 119 849 168 c 0,155,156
 859 191 859 191 865.5 213 c 128,-1,157
 872 235 872 235 872 247 c 1,158,-1
 873 258 l 1,144,-1
873 356 m 0,159,160
 873 393 873 393 849 446 c 0,161,162
 836 475 836 475 829 487 c 0,163,164
 817 508 817 508 810 518 c 2,165,-1
 802 528 l 1,166,-1
 837 563 l 1,167,168
 868 527 868 527 891 472 c 0,169,170
 905 439 905 439 910 418 c 0,171,172
 917 389 917 389 920 372 c 2,173,-1
 922 356 l 1,174,-1
 873 356 l 0,159,160
512 -181 m 128,-1,176
 414 -181 414 -181 325 -144 c 128,-1,177
 236 -107 236 -107 167 -38 c 128,-1,178
 98 31 98 31 61 120 c 128,-1,179
 24 209 24 209 24 307 c 128,-1,180
 24 405 24 405 61 494 c 128,-1,181
 98 583 98 583 167 652 c 128,-1,182
 236 721 236 721 325 758 c 128,-1,183
 414 795 414 795 512 795 c 128,-1,184
 610 795 610 795 699 758 c 128,-1,185
 788 721 788 721 857 652 c 128,-1,186
 926 583 926 583 963 494 c 128,-1,187
 1000 405 1000 405 1000 307 c 128,-1,188
 1000 209 1000 209 963 120 c 128,-1,189
 926 31 926 31 857 -38 c 128,-1,190
 788 -107 788 -107 699 -144 c 128,-1,175
 610 -181 610 -181 512 -181 c 128,-1,176
512 743 m 0,191,192
 420 743 420 743 342 709 c 0,193,194
 259 672 259 672 203 616 c 0,195,196
 144 556 144 556 110 476 c 128,-1,197
 76 396 76 396 76 307 c 0,198,199
 76 211 76 211 110 137 c 0,200,201
 147 56 147 56 203 0 c 0,202,203
 263 -59 263 -59 343 -94 c 128,-1,204
 423 -129 423 -129 512 -129 c 0,205,206
 610 -129 610 -129 682 -95 c 0,207,208
 765 -56 765 -56 821 0 c 0,209,210
 880 60 880 60 914 139 c 128,-1,211
 948 218 948 218 948 307 c 0,212,213
 948 399 948 399 914 477 c 0,214,215
 879 557 879 557 821 616 c 0,216,217
 762 674 762 674 681.5 708.5 c 128,-1,218
 601 743 601 743 512 743 c 0,191,192
EndSplineSet
EndChar

StartChar: hyphen
Encoding: 45 45 6
Width: 924
GlyphClass: 2
Flags: W
LayerCount: 2
Fore
SplineSet
242 337 m 1,0,-1
 676 337 l 1,1,-1
 676 240 l 1,2,-1
 242 240 l 1,3,-1
 242 337 l 1,0,-1
EndSplineSet
Validated: 1
EndChar

StartChar: zero
Encoding: 48 48 7
Width: 926
GlyphClass: 2
Flags: W
LayerCount: 2
Fore
SplineSet
425 198 m 1,0,-1
 177 -49 l 1,1,-1
 108 20 l 1,2,-1
 355 269 l 1,3,-1
 370 253 l 2,4,5
 373 255 373 255 374 256.5 c 128,-1,6
 375 258 375 258 377 260 c 2,7,-1
 745 630 l 2,8,9
 754 639 754 639 763 644.5 c 128,-1,10
 772 650 772 650 780.5 652.75 c 128,-1,11
 789 655.5 789 655.5 796.5 655.5 c 0,12,13
 804 656 804 656 807 650 c 0,14,15
 812.5 640 812.5 640 812.5 639.5 c 0,16,17
 812.5 633 812.5 633 809.25 624 c 128,-1,18
 806 615 806 615 800.5 606 c 128,-1,19
 795 597 795 597 787 588 c 2,20,-1
 417 220 l 2,21,22
 415 218 415 218 413 217 c 128,-1,23
 411 216 411 216 409 213 c 2,24,-1
 425 198 l 1,0,-1
566 252 m 1,25,-1
 812 4 l 1,26,-1
 742 -65 l 1,27,-1
 496 182 l 1,28,-1
 510 195 l 1,29,30
 507 198 507 198 505 199 c 0,31,32
 505 200 505 200 503 202 c 2,33,-1
 485 222 l 1,34,-1
 524 263 l 1,35,-1
 544 245 l 2,36,37
 547 243 547 243 548.5 240.5 c 128,-1,38
 550 238 550 238 551 236 c 1,39,-1
 566 252 l 1,25,-1
133 573 m 2,40,41
 124 582 124 582 118 591 c 128,-1,42
 112 600 112 600 110 608 c 128,-1,43
 108 616 108 616 108 623.5 c 0,44,45
 108 630 108 630 112 634 c 0,46,47
 117 639.5 117 639.5 123.5 639.5 c 128,-1,48
 130 639.5 130 639.5 139 636.25 c 128,-1,49
 148 633 148 633 157 627.5 c 128,-1,50
 166 622 166 622 175 613 c 2,51,-1
 422 366 l 1,52,-1
 379 327 l 1,53,-1
 133 573 l 2,40,41
821 332 m 0,54,55
 837 305 837 305 859 292 c 1,56,57
 837 278 837 278 821 254 c 0,58,59
 812 243 812 243 807 229.5 c 0,60,61
 799 209 799 209 797 199 c 0,62,63
 790 170 790 170 790 141 c 128,-1,64
 790 112 790 112 803 90 c 1,65,-1
 680 214 l 2,66,67
 681 218 681 218 682 221.5 c 128,-1,68
 683 225 683 225 685 229 c 2,69,70
 685 229 685 229 687 240 c 0,71,72
 689 246 689 246 689 252 c 0,73,74
 690 257 690 257 691 263 c 128,-1,75
 692 269 692 269 692 274 c 2,76,77
 692 274 692 274 692 281 c 2,78,79
 692 281 692 281 692 287 c 0,80,81
 692 290 692 290 693 292 c 0,82,83
 692 294 692 294 692 298 c 2,84,85
 692 298 692 298 692 303 c 2,86,-1
 692 312 l 2,87,88
 692 317 692 317 690.5 322.5 c 128,-1,89
 689 328 689 328 689 333.5 c 128,-1,90
 689 339 689 339 687 344.5 c 128,-1,91
 685 350 685 350 685 355 c 0,92,93
 684 359 684 359 682 362.5 c 128,-1,94
 680 366 680 366 680 371 c 2,95,-1
 803 495 l 1,96,97
 789.5 472 789.5 472 789.5 443.5 c 128,-1,98
 789.5 415 789.5 415 797 386 c 0,99,100
 798 381 798 381 807 357.5 c 0,101,102
 812 344 812 344 821 332 c 0,54,55
386 528 m 0,103,104
 380 526 380 526 378.5 525 c 0,105,106
 375 523 375 523 370 523 c 2,107,-1
 247 646 l 1,108,109
 269 633 269 633 298 633 c 0,110,111
 325 633 325 633 355 640 c 0,112,113
 361 641 361 641 384 650.5 c 0,114,115
 398 656 398 656 410 664 c 0,116,117
 423 673 423 673 432.5 682 c 128,-1,118
 442 691 442 691 449 702 c 1,119,120
 462 682 462 682 489 664 c 0,121,122
 501 655 501 655 514.5 650 c 0,123,124
 540 641 540 641 543 640 c 0,125,126
 572 634.5 572 634.5 600.5 634.5 c 128,-1,127
 629 634.5 629 634.5 651 646 c 1,128,-1
 528 523 l 1,129,130
 523 524 523 524 519.5 525 c 128,-1,131
 516 526 516 526 512 528 c 0,132,133
 501 532 501 532 489 532 c 0,134,135
 485 532 485 532 479.5 533.5 c 128,-1,136
 474 535 474 535 469 535 c 2,137,138
 469 535 469 535 461 535 c 2,139,-1
 455 535 l 2,140,141
 452 535 452 535 449 536 c 0,142,143
 447 535 447 535 444 535 c 2,144,145
 444 535 444 535 438 535 c 2,146,-1
 430 535 l 2,147,148
 425 535 425 535 419 533.5 c 128,-1,149
 413 532 413 532 409 532 c 0,150,151
 397 532 397 532 386 528 c 0,103,104
96 90 m 1,152,153
 109 113 109 113 109 142 c 128,-1,154
 109 171 109 171 102 199 c 0,155,156
 102 201 102 201 92 228.5 c 0,157,158
 87 243 87 243 78 254 c 0,159,160
 63 281 63 281 40 292 c 1,161,162
 63 305 63 305 78 332 c 0,163,164
 87 344 87 344 92 357.5 c 0,165,166
 101 383 101 383 102 386 c 0,167,168
 108 415 108 415 108 444 c 0,169,170
 108 472 108 472 96 495 c 1,171,-1
 219 371 l 1,172,173
 218 366 218 366 216.5 362.5 c 128,-1,174
 215 359 215 359 214 355 c 0,175,176
 213 349 213 349 212 344 c 128,-1,177
 211 339 211 339 210 333 c 2,178,-1
 207 322 l 2,179,180
 206 317 206 317 206 312 c 2,181,-1
 206 304 l 1,182,-1
 206 298 l 1,183,-1
 206 292 l 1,184,-1
 206 287 l 1,185,186
 206 287 206 287 206 282 c 2,187,-1
 206 274 l 2,188,189
 206 269 206 269 207.5 263 c 128,-1,190
 209 257 209 257 210 252 c 0,191,192
 210 246 210 246 211.5 241 c 128,-1,193
 213 236 213 236 214 229 c 0,194,195
 215 225 215 225 216 221 c 2,196,-1
 219 214 l 1,197,-1
 96 90 l 1,152,153
512 58 m 0,198,199
 516 59 516 59 519.5 60 c 128,-1,200
 523 61 523 61 528 63 c 1,201,-1
 651 -61 l 1,202,203
 629 -48 629 -48 600.5 -48 c 128,-1,204
 572 -48 572 -48 543 -54 c 0,205,206
 532 -56 532 -56 514.5 -64 c 0,207,208
 501 -70 501 -70 489 -79 c 0,209,210
 462 -95 462 -95 449 -117 c 1,211,212
 437 -97 437 -97 410 -79 c 0,213,214
 398 -70 398 -70 385 -64 c 0,215,216
 365 -56 365 -56 355 -54 c 0,217,218
 325 -48 325 -48 297 -48 c 128,-1,219
 269 -48 269 -48 247 -61 c 1,220,-1
 370 63 l 1,221,222
 375 62 375 62 378.5 60 c 128,-1,223
 382 58 382 58 386 58 c 0,224,225
 392 56 392 56 397 55 c 2,226,-1
 409 53 l 2,227,228
 413 53 413 53 419 51 c 128,-1,229
 425 49 425 49 430 50 c 0,230,231
 434 50 434 50 438 49 c 0,232,233
 442 49 442 49 444 49 c 2,234,-1
 449 49 l 1,235,-1
 455 49 l 1,236,237
 455 49 455 49 460 49 c 256,238,239
 465 49 465 49 469 50 c 0,240,241
 474 50 474 50 479.5 51 c 128,-1,242
 485 52 485 52 489 53 c 0,243,244
 495 53 495 53 500.5 54.5 c 128,-1,245
 506 56 506 56 512 58 c 0,198,199
EndSplineSet
Validated: 1
EndChar

StartChar: one
Encoding: 49 49 8
Width: 918
GlyphClass: 2
Flags: W
LayerCount: 2
Fore
SplineSet
861 244 m 2,0,1
 865 244 865 244 867.5 241 c 128,-1,2
 870 238 870 238 870 234 c 0,3,4
 860 165 860 165 829.5 106 c 128,-1,5
 799 47 799 47 752.5 0 c 128,-1,6
 706 -47 706 -47 646 -78 c 256,7,8
 589 -108 589 -108 517 -118 c 0,9,10
 513 -119 513 -119 510 -116.5 c 128,-1,11
 507 -114 507 -114 507 -110 c 2,12,-1
 507 -38 l 1,13,14
 495 -41 495 -41 482.5 -41.5 c 0,15,16
 460 -42 460 -42 458 -42 c 256,17,18
 452 -41 452 -41 434 -41 c 0,19,20
 425 -41 425 -41 410 -38 c 1,21,-1
 410 -110 l 2,22,23
 410 -114 410 -114 407 -117 c 128,-1,24
 404 -120 404 -120 400 -118 c 0,25,26
 331 -108 331 -108 271.5 -77.5 c 128,-1,27
 212 -47 212 -47 165 0 c 128,-1,28
 118 47 118 47 88 106 c 256,29,30
 58 165 58 165 48 234 c 0,31,32
 47 238 47 238 49.5 241 c 128,-1,33
 52 244 52 244 56 244 c 2,34,-1
 128 244 l 1,35,36
 125.5 256 125.5 256 125.375 268 c 128,-1,37
 125.25 280 125.25 280 125.4375 292 c 128,-1,38
 125.625 304 125.625 304 125.625 316.5 c 128,-1,39
 125.625 329 125.625 329 128 341 c 1,40,-1
 56 341 l 2,41,42
 52 341 52 341 49 344 c 0,43,44
 46 346 46 346 48 350 c 0,45,46
 58 418 58 418 88 478.5 c 128,-1,47
 118 539 118 539 165 585.5 c 128,-1,48
 212 632 212 632 272 663 c 128,-1,49
 332 694 332 694 400 704 c 0,50,51
 404 705 404 705 407 702 c 128,-1,52
 410 699 410 699 410 695 c 2,53,-1
 410 622 l 1,54,55
 422 625 422 625 434 625.5 c 0,56,57
 456 626 456 626 458 626 c 256,58,59
 464 625 464 625 482.5 625 c 0,60,61
 492 625 492 625 507 622 c 1,62,-1
 507 695 l 2,63,64
 507 699 507 699 510 701.5 c 128,-1,65
 513 704 513 704 517 704 c 0,66,67
 585 694 585 694 645.5 663 c 128,-1,68
 706 632 706 632 752.5 585.5 c 128,-1,69
 799 539 799 539 830 479 c 0,70,71
 860 418 860 418 870 350 c 0,72,73
 871 346 871 346 868 343.5 c 128,-1,74
 865 341 865 341 861 341 c 2,75,-1
 788 341 l 1,76,77
 791 329 791 329 791.5 316.5 c 0,78,79
 792 295 792 295 792 292 c 0,80,81
 791 285 791 285 791 267.5 c 0,82,83
 791 259 791 259 788 244 c 1,84,-1
 861 244 l 2,0,1
520 518 m 1,85,-1
 362 518 l 1,86,-1
 362 424 l 1,87,-1
 425 424 l 1,88,-1
 425 78 l 1,89,-1
 520 78 l 1,90,-1
 520 518 l 1,85,-1
EndSplineSet
Validated: 1
EndChar

StartChar: two
Encoding: 50 50 9
Width: 930
GlyphClass: 2
Flags: W
LayerCount: 2
Fore
SplineSet
868 248 m 2,0,1
 872 248 872 248 875 245 c 128,-1,2
 878 242 878 242 876 238 c 0,3,4
 866 170 866 170 836 110 c 128,-1,5
 806 50 806 50 759.5 3 c 128,-1,6
 713 -44 713 -44 652 -74 c 0,7,8
 592 -104 592 -104 524 -114 c 0,9,10
 520 -115 520 -115 517 -112.5 c 128,-1,11
 514 -110 514 -110 514 -106 c 2,12,-1
 514 -34 l 1,13,14
 502 -37 502 -37 490 -37.25 c 128,-1,15
 478 -37.5 478 -37.5 466 -37.125 c 128,-1,16
 454 -36.75 454 -36.75 441.5 -36.75 c 128,-1,17
 429 -36.75 429 -36.75 417 -34 c 1,18,-1
 417 -106 l 2,19,20
 417 -110 417 -110 414.5 -113 c 128,-1,21
 412 -116 412 -116 408 -114 c 0,22,23
 340 -104 340 -104 279.5 -74 c 128,-1,24
 219 -44 219 -44 172.5 3 c 128,-1,25
 126 50 126 50 95 110 c 128,-1,26
 64 170 64 170 54 238 c 0,27,28
 53 242 53 242 56 245 c 128,-1,29
 59 248 59 248 63 248 c 2,30,-1
 136 248 l 1,31,32
 133 260 133 260 132.5 272 c 0,33,34
 132 293 132 293 132 296 c 0,35,36
 133 303 133 303 133 321 c 0,37,38
 133 328 133 328 136 344 c 1,39,-1
 63 344 l 2,40,41
 59 344 59 344 56.5 347 c 128,-1,42
 54 350 54 350 54 354 c 0,43,44
 64 422 64 422 95 483 c 128,-1,45
 126 544 126 544 172.5 590 c 128,-1,46
 219 636 219 636 279 667 c 0,47,48
 340 698 340 698 408 707 c 0,49,50
 412 708 412 708 414.5 705.5 c 128,-1,51
 417 703 417 703 417 699 c 2,52,-1
 417 626 l 1,53,54
 429 629 429 629 441.5 629.5 c 0,55,56
 463 630 463 630 466 630 c 0,57,58
 473 629 473 629 490.5 629 c 0,59,60
 499 629 499 629 514 626 c 1,61,-1
 514 698 l 2,62,63
 514 702 514 702 517 705 c 128,-1,64
 520 708 520 708 524 707 c 0,65,66
 592 697 592 697 652.5 666.5 c 128,-1,67
 713 636 713 636 759.5 590 c 128,-1,68
 806 544 806 544 836 484 c 0,69,70
 866 422 866 422 876 354 c 0,71,72
 877 350 877 350 874.5 347 c 128,-1,73
 872 344 872 344 868 344 c 2,74,-1
 796 344 l 1,75,76
 799 332 799 332 799.5 320.5 c 0,77,78
 800 299 800 299 800 296 c 0,79,80
 799 290 799 290 799 272 c 0,81,82
 799 263 799 263 796 248 c 1,83,-1
 868 248 l 2,0,1
622 394 m 2,84,85
 622 520 622 520 496 520 c 2,86,-1
 323 520 l 1,87,-1
 323 426 l 1,88,-1
 496 426 l 2,89,90
 528 426 528 426 528 394 c 2,91,-1
 528 378 l 2,92,93
 528 347 528 347 496 347 c 1,94,-1
 450 347 l 1,95,96
 323 347 323 347 323 220 c 1,97,-1
 323 79 l 1,98,-1
 622 79 l 1,99,-1
 622 174 l 1,100,-1
 418 174 l 1,101,-1
 418 220 l 2,102,103
 418 252 418 252 450 252 c 2,104,-1
 496 252 l 2,105,106
 622 252 622 252 622 378 c 2,107,-1
 622 394 l 2,84,85
EndSplineSet
Validated: 1
EndChar

StartChar: three
Encoding: 51 51 10
Width: 928
GlyphClass: 2
Flags: W
LayerCount: 2
Fore
SplineSet
862 244 m 2,0,1
 866 244 866 244 869 241 c 128,-1,2
 872 238 872 238 870 234 c 0,3,4
 860 166 860 166 830 106.5 c 128,-1,5
 800 47 800 47 753 0 c 128,-1,6
 706 -47 706 -47 646 -78 c 256,7,8
 589 -108 589 -108 518 -118 c 0,9,10
 514 -119 514 -119 511 -116.5 c 128,-1,11
 508 -114 508 -114 508 -110 c 2,12,-1
 508 -38 l 1,13,14
 496 -41 496 -41 484 -41.5 c 0,15,16
 462 -42 462 -42 460 -42 c 0,17,18
 454 -41 454 -41 435 -41 c 0,19,20
 428 -41 428 -41 412 -38 c 1,21,-1
 412 -110 l 2,22,23
 412 -114 412 -114 409 -117 c 128,-1,24
 406 -120 406 -120 402 -118 c 0,25,26
 334 -108 334 -108 273 -77.5 c 128,-1,27
 212 -47 212 -47 166 0 c 128,-1,28
 120 47 120 47 89 106.5 c 128,-1,29
 58 166 58 166 49 234 c 0,30,31
 48 238 48 238 50.5 241 c 128,-1,32
 53 244 53 244 57 244 c 2,33,-1
 130 244 l 1,34,35
 127 256 127 256 126.5 268 c 0,36,37
 126 290 126 290 126 292 c 0,38,39
 127 298 127 298 127 317 c 0,40,41
 127 324 127 324 130 340 c 1,42,-1
 57 340 l 2,43,44
 53 340 53 340 50.5 343 c 128,-1,45
 48 346 48 346 49 350 c 0,46,47
 59 418 59 418 89.5 479 c 128,-1,48
 120 540 120 540 166 586 c 128,-1,49
 212 632 212 632 272 663 c 0,50,51
 334 694 334 694 402 703 c 0,52,53
 406 704 406 704 409 701.5 c 128,-1,54
 412 699 412 699 412 695 c 2,55,-1
 412 622 l 1,56,57
 424 625 424 625 435.5 625.5 c 0,58,59
 457 626 457 626 460 626 c 0,60,61
 466 625 466 625 484 625 c 0,62,63
 493 625 493 625 508 622 c 1,64,-1
 508 694 l 2,65,66
 508 698 508 698 511 701 c 128,-1,67
 514 704 514 704 518 703 c 0,68,69
 586 693 586 693 646 662.5 c 128,-1,70
 706 632 706 632 753 586 c 128,-1,71
 800 540 800 540 830 480 c 0,72,73
 860 418 860 418 870 350 c 0,74,75
 871 346 871 346 868.5 343 c 128,-1,76
 866 340 866 340 862 340 c 2,77,-1
 790 340 l 1,78,79
 793 328 793 328 793.5 316.5 c 0,80,81
 794 295 794 295 794 292 c 0,82,83
 793 286 793 286 793 268 c 0,84,85
 793 259 793 259 790 244 c 1,86,-1
 862 244 l 2,0,1
620 201 m 0,87,88
 620 286 620 286 566 296 c 1,89,90
 620 306 620 306 620 390 c 0,91,92
 620 516 620 516 493 516 c 2,93,-1
 336 516 l 1,94,-1
 336 422 l 1,95,-1
 493 422 l 2,96,97
 525 422 525 422 525 390 c 2,98,-1
 525 374 l 2,99,100
 525 343 525 343 493 343 c 1,101,-1
 336 343 l 1,102,-1
 336 248 l 1,103,-1
 493 248 l 2,104,105
 525 248 525 248 525 216 c 2,106,-1
 525 201 l 2,107,108
 525 170 525 170 493 170 c 2,109,-1
 336 170 l 1,110,-1
 336 75 l 1,111,-1
 493 75 l 2,112,113
 620 75 620 75 620 201 c 0,87,88
EndSplineSet
Validated: 1
EndChar

StartChar: four
Encoding: 52 52 11
Width: 928
GlyphClass: 2
Flags: W
LayerCount: 2
Fore
SplineSet
862 239 m 2,0,1
 866 239 866 239 869 236 c 128,-1,2
 872 233 872 233 870 229 c 0,3,4
 860 161 860 161 830 100.5 c 128,-1,5
 800 40 800 40 753 -6.5 c 128,-1,6
 706 -53 706 -53 646 -83.5 c 128,-1,7
 586 -114 586 -114 518 -124 c 0,8,9
 514 -125 514 -125 511 -122 c 128,-1,10
 508 -119 508 -119 508 -115 c 2,11,-1
 508 -42 l 1,12,13
 496 -45 496 -45 484 -45.5 c 0,14,15
 462 -46 462 -46 460 -46 c 0,16,17
 454 -45 454 -45 435 -45 c 0,18,19
 426 -45 426 -45 411 -42 c 1,20,-1
 411 -115 l 2,21,22
 411 -119 411 -119 408 -121.5 c 128,-1,23
 405 -124 405 -124 401 -124 c 0,24,25
 333 -114 333 -114 272.5 -83.5 c 128,-1,26
 212 -53 212 -53 165.5 -6.5 c 128,-1,27
 119 40 119 40 88.5 100 c 128,-1,28
 58 160 58 160 48 229 c 0,29,30
 47 233 47 233 50 236 c 128,-1,31
 53 239 53 239 57 239 c 2,32,-1
 130 239 l 1,33,34
 127 251 127 251 126.5 262.5 c 0,35,36
 126 285 126 285 126 288 c 0,37,38
 127 294 127 294 127 312 c 0,39,40
 127 321 127 321 130 336 c 1,41,-1
 57 336 l 2,42,43
 53 336 53 336 50.5 339 c 128,-1,44
 48 342 48 342 48 346 c 0,45,46
 58 414 58 414 88.5 474 c 128,-1,47
 119 534 119 534 165.5 581 c 128,-1,48
 212 628 212 628 272 658 c 128,-1,49
 332 688 332 688 401 698 c 0,50,51
 405 699 405 699 408 696.5 c 128,-1,52
 411 694 411 694 411 690 c 2,53,-1
 411 618 l 1,54,55
 423 620.5 423 620.5 434.5 620.75 c 0,56,57
 458 621.259259259 458 621.259259259 460 621 c 0,58,59
 468 620 468 620 484 620 c 0,60,61
 503 620 503 620 508 618 c 1,62,-1
 508 690 l 2,63,64
 508 694 508 694 511 697 c 128,-1,65
 514 700 514 700 518 698 c 0,66,67
 586 688 586 688 646 658 c 128,-1,68
 706 628 706 628 753 581 c 128,-1,69
 800 534 800 534 830 474 c 128,-1,70
 860 414 860 414 870 346 c 0,71,72
 871 342 871 342 868.5 339 c 128,-1,73
 866 336 866 336 862 336 c 2,74,-1
 790 336 l 1,75,76
 792.5 324 792.5 324 792.75 312 c 0,77,78
 793.2 290 793.2 290 793 288 c 0,79,80
 792.5 282 792.5 282 792.5 263 c 0,81,82
 792.5 252 792.5 252 790 239 c 1,83,-1
 862 239 l 2,0,1
594 512 m 1,84,-1
 500 512 l 1,85,-1
 500 291 l 1,86,-1
 377 291 l 1,87,-1
 438 512 l 1,88,-1
 340 512 l 1,89,-1
 280 291 l 1,90,-1
 280 196 l 1,91,-1
 500 196 l 1,92,-1
 500 70 l 1,93,-1
 594 70 l 1,94,-1
 594 512 l 1,84,-1
EndSplineSet
Validated: 1
EndChar

StartChar: five
Encoding: 53 53 12
Width: 928
GlyphClass: 2
Flags: W
LayerCount: 2
Fore
SplineSet
518 699 m 0,0,1
 520 700 520 700 526 700 c 0,2,3
 541 700 541 700 571 692 c 0,4,5
 609 682 609 682 649 662 c 0,6,7
 737 618 737 618 797 537 c 0,8,9
 859 455 859 455 874 362 c 0,10,11
 878 340 878 340 873 336.5 c 128,-1,12
 868 333 868 333 834 333 c 2,13,-1
 798 333 l 1,14,-1
 798 286 l 1,15,-1
 798 238 l 1,16,-1
 833 238 l 2,17,18
 871 238 871 238 875 232 c 0,19,20
 876 230 876 230 876 226 c 0,21,22
 876 215 876 215 869 187 c 0,23,24
 839 69 839 69 748.5 -17.5 c 128,-1,25
 658 -104 658 -104 543 -123 c 0,26,27
 520 -127 520 -127 516.5 -122.5 c 128,-1,28
 513 -118 513 -118 513 -85 c 2,29,-1
 513 -47 l 1,30,-1
 464 -47 l 1,31,-1
 415 -47 l 1,32,-1
 415 -85 l 2,33,34
 415 -119 415 -119 410.5 -124 c 128,-1,35
 406 -129 406 -129 382 -124 c 0,36,37
 258 -99 258 -99 167 -7.5 c 128,-1,38
 76 84 76 84 53 206 c 0,39,40
 49 230 49 230 53.5 234 c 128,-1,41
 58 238 58 238 92 238 c 2,42,-1
 130 238 l 1,43,-1
 130 286 l 1,44,-1
 130 333 l 1,45,-1
 92 333 l 2,46,47
 58 333 58 333 53.5 337 c 128,-1,48
 49 341 49 341 53 365 c 0,49,50
 76 485 76 485 163.5 576 c 128,-1,51
 251 667 251 667 370 694 c 0,52,53
 393 699 393 699 403 699 c 0,54,55
 407 699 407 699 409 698 c 0,56,57
 414 694 414 694 414 660 c 2,58,-1
 414 621 l 1,59,-1
 464 621 l 1,60,-1
 513 621 l 1,61,-1
 513 659 l 2,62,63
 513 660 513 660 513 661 c 0,64,65
 513 697 513 697 518 699 c 0,0,1
611 464 m 1,66,-1
 611 512 l 1,67,-1
 461 512 l 1,68,-1
 310 512 l 1,69,-1
 310 378 l 1,70,-1
 310 244 l 1,71,-1
 403 244 l 2,72,73
 406 244 406 244 412 244 c 2,74,75
 412 244 412 244 413 244 c 0,76,77
 490 244 490 244 503 239.5 c 128,-1,78
 516 235 516 235 516 208 c 1,79,-1
 516 208 l 1,80,81
 516 205 516 205 516 205 c 129,-1,82
 516 205 516 205 516 203 c 1,83,-1
 516 203 l 1,84,85
 516 173 516 173 502.5 168 c 128,-1,86
 489 163 489 163 408 163 c 1,87,-1
 408 163 l 1,88,89
 404 163 404 163 403 163 c 2,90,-1
 310 163 l 1,91,-1
 310 116 l 1,92,-1
 310 68 l 1,93,-1
 408 68 l 1,94,95
 485 69 485 69 510 69 c 128,-1,96
 535 69 535 69 553 81 c 0,97,98
 590 106 590 106 599 127 c 0,99,100
 611 155 611 155 611 192 c 0,101,102
 611 196 611 196 611 201 c 0,103,104
 611 208 611 208 611 215 c 0,105,106
 611 284 611 284 580 310 c 128,-1,107
 549 336 549 336 466 336 c 2,108,-1
 406 336 l 1,109,-1
 406 377 l 1,110,-1
 406 417 l 1,111,-1
 509 417 l 1,112,-1
 611 417 l 1,113,-1
 611 464 l 1,66,-1
EndSplineSet
Validated: 5
EndChar

StartChar: six
Encoding: 54 54 13
Width: 924
GlyphClass: 2
Flags: W
LayerCount: 2
Fore
SplineSet
682 286 m 0,0,1
 682 266 682 266 678 250 c 0,2,3
 677 244 677 244 680.5 241 c 128,-1,4
 684 238 684 238 689 238 c 2,5,-1
 862 238 l 2,6,7
 866 238 866 238 869 235 c 128,-1,8
 872 232 872 232 871 228 c 0,9,10
 861 160 861 160 830.5 99 c 128,-1,11
 800 38 800 38 754 -8 c 128,-1,12
 708 -54 708 -54 648 -85 c 0,13,14
 586 -116 586 -116 518 -125 c 0,15,16
 514 -126 514 -126 511 -123 c 128,-1,17
 508 -120 508 -120 508 -116 c 2,18,-1
 508 66 l 2,19,20
 508 70 508 70 504 69 c 0,21,22
 483 64 483 64 460 64 c 0,23,24
 438 64 438 64 416 69 c 0,25,26
 412 70 412 70 412 66 c 2,27,-1
 412 -116 l 2,28,29
 412 -120 412 -120 409 -123 c 128,-1,30
 406 -126 406 -126 402 -125 c 0,31,32
 334 -115 334 -115 274 -84.5 c 128,-1,33
 214 -54 214 -54 167 -8 c 128,-1,34
 120 38 120 38 89 98 c 0,35,36
 58 160 58 160 49 228 c 0,37,38
 48 232 48 232 51 235 c 128,-1,39
 54 238 54 238 58 238 c 2,40,-1
 231 238 l 2,41,42
 232 238 232 238 240 242 c 0,43,44
 244 244 244 244 242 250 c 0,45,46
 239 259 239 259 239 268 c 0,47,48
 239.5 279 239.5 279 239.75 286 c 128,-1,49
 240 293 240 293 240 308 c 0,50,51
 240 308 240 308 244 330 c 0,52,53
 245 334 245 334 240 334 c 2,54,-1
 58 334 l 2,55,56
 54 334 54 334 51 337 c 128,-1,57
 48 340 48 340 49 344 c 0,58,59
 59 412 59 412 89.5 472 c 128,-1,60
 120 532 120 532 167 579 c 128,-1,61
 214 626 214 626 274 656.5 c 128,-1,62
 334 687 334 687 402 697 c 0,63,64
 406 698 406 698 409 695 c 128,-1,65
 412 692 412 692 412 688 c 2,66,-1
 412 506 l 2,67,68
 412 502 412 502 416 503 c 0,69,70
 424 506 424 506 438 506 c 0,71,72
 459 506 459 506 460 507 c 256,73,74
 464 506 464 506 483 506 c 0,75,76
 492 507 492 507 504 503 c 0,77,78
 508 502 508 502 508 506 c 2,79,-1
 508 688 l 2,80,81
 508 692 508 692 511 695 c 128,-1,82
 514 698 514 698 518 697 c 0,83,84
 586 687 586 687 647 656.5 c 128,-1,85
 708 626 708 626 754 579 c 128,-1,86
 800 532 800 532 831 472 c 128,-1,87
 862 412 862 412 871 344 c 0,88,89
 872 340 872 340 869 337 c 128,-1,90
 866 334 866 334 862 334 c 2,91,-1
 680 334 l 2,92,93
 676 334 676 334 677 330 c 0,94,95
 682 308 682 308 682 286 c 0,0,1
460 202 m 0,96,97
 477 202 477 202 492.5 209 c 128,-1,98
 508 216 508 216 519 227 c 128,-1,99
 530 238 530 238 536.5 253 c 128,-1,100
 543 268 543 268 543 286 c 0,101,102
 543 303 543 303 536.5 318.5 c 128,-1,103
 530 334 530 334 519 345 c 128,-1,104
 508 356 508 356 492.5 362.5 c 128,-1,105
 477 369 477 369 460 369 c 0,106,107
 442 369 442 369 427 362.5 c 128,-1,108
 412 356 412 356 401 345 c 128,-1,109
 390 334 390 334 383.5 318.5 c 128,-1,110
 377 303 377 303 377 286 c 0,111,112
 377 268 377 268 383.5 253 c 128,-1,113
 390 238 390 238 401 227 c 128,-1,114
 412 216 412 216 427 209 c 128,-1,115
 442 202 442 202 460 202 c 0,96,97
EndSplineSet
Validated: 1
EndChar

StartChar: eight
Encoding: 56 56 14
Width: 924
GlyphClass: 2
Flags: W
LayerCount: 2
Fore
SplineSet
682 286 m 0,0,1
 682 266 682 266 678 250 c 0,2,3
 677 244 677 244 680.5 241 c 128,-1,4
 684 238 684 238 689 238 c 2,5,-1
 862 238 l 2,6,7
 866 238 866 238 869 235 c 128,-1,8
 872 232 872 232 871 228 c 0,9,10
 861 160 861 160 830.5 99 c 128,-1,11
 800 38 800 38 754 -8 c 128,-1,12
 708 -54 708 -54 648 -85 c 0,13,14
 586 -116 586 -116 518 -125 c 0,15,16
 514 -126 514 -126 511 -123 c 128,-1,17
 508 -120 508 -120 508 -116 c 2,18,-1
 508 66 l 2,19,20
 508 70 508 70 504 69 c 0,21,22
 483 64 483 64 460 64 c 0,23,24
 438 64 438 64 416 69 c 0,25,26
 412 70 412 70 412 66 c 2,27,-1
 412 -116 l 2,28,29
 412 -120 412 -120 409 -123 c 128,-1,30
 406 -126 406 -126 402 -125 c 0,31,32
 334 -115 334 -115 274 -84.5 c 128,-1,33
 214 -54 214 -54 167 -8 c 128,-1,34
 120 38 120 38 89 98 c 0,35,36
 58 160 58 160 49 228 c 0,37,38
 48 232 48 232 51 235 c 128,-1,39
 54 238 54 238 58 238 c 2,40,-1
 231 238 l 2,41,42
 237 238 237 238 240 242 c 0,43,44
 244 244 244 244 242 250 c 0,45,46
 239.5 258 239.5 258 239.25 267.5 c 0,47,48
 238.804347826 284 238.804347826 284 239 286 c 0,49,50
 240 294 240 294 240 308 c 0,51,52
 240 308 240 308 244 330 c 0,53,54
 245 334 245 334 240 334 c 2,55,-1
 58 334 l 2,56,57
 54 334 54 334 51 337 c 128,-1,58
 48 340 48 340 49 344 c 0,59,60
 59 412 59 412 89.5 472 c 128,-1,61
 120 532 120 532 167 579 c 128,-1,62
 214 626 214 626 274 656.5 c 128,-1,63
 334 687 334 687 402 697 c 0,64,65
 406 698 406 698 409 695 c 128,-1,66
 412 692 412 692 412 688 c 2,67,-1
 412 506 l 2,68,69
 412 502 412 502 416 503 c 0,70,71
 427 506 427 506 437.5 506.5 c 0,72,73
 457 507 457 507 460 507 c 256,74,75
 464 506.5 464 506.5 483 506.5 c 0,76,77
 493 506.5 493 506.5 504 503 c 0,78,79
 508 502 508 502 508 506 c 2,80,-1
 508 688 l 2,81,82
 508 692 508 692 511 695 c 128,-1,83
 514 698 514 698 518 697 c 0,84,85
 586 687 586 687 647 656.5 c 128,-1,86
 708 626 708 626 754 579 c 128,-1,87
 800 532 800 532 831 472 c 128,-1,88
 862 412 862 412 871 344 c 0,89,90
 872 340 872 340 869 337 c 128,-1,91
 866 334 866 334 862 334 c 2,92,-1
 680 334 l 2,93,94
 676 334 676 334 677 330 c 0,95,96
 682 308 682 308 682 286 c 0,0,1
EndSplineSet
Validated: 1
EndChar

StartChar: A
Encoding: 65 65 15
Width: 1024
GlyphClass: 2
Flags: W
LayerCount: 2
Fore
SplineSet
487 711 m 0,0,1
 472 709 472 709 469 709 c 0,2,3
 403 709 403 709 301 654 c 0,4,5
 237 620 237 620 191 562 c 0,6,7
 150 512 150 512 118 439 c 0,8,9
 89 373 89 373 89 298 c 0,10,11
 89 227 89 227 109 155 c 0,12,13
 114 140 114 140 114 139 c 0,14,15
 114 134 114 134 123 117 c 0,16,17
 126 110 126 110 132 97 c 0,18,19
 186 -20 186 -20 305 -87 c 0,20,21
 331 -102 331 -102 343 -106 c 2,22,23
 343 -106 343 -106 347 -108 c 128,-1,24
 351 -110 351 -110 351 -110 c 2,25,26
 352 -110 352 -110 354 -111 c 0,27,28
 357 -113 357 -113 357 -112 c 1,29,-1
 359 -112 l 1,30,31
 366 -118 366 -118 413 -130 c 0,32,33
 463 -143 463 -143 514 -143 c 0,34,35
 585 -143 585 -143 656 -118 c 0,36,37
 705 -101 705 -101 746 -75 c 0,38,39
 789 -48 789 -48 820 -14 c 0,40,41
 821 -14 821 -14 831 -3 c 0,42,43
 882 53 882 53 903 107 c 1,44,45
 903 107 903 107 908 117 c 0,46,47
 913 126 913 126 924 162 c 0,48,49
 944 225 944 225 944 288 c 0,50,51
 944 353 944 353 922 415 c 0,52,53
 917 429 917 429 917 430 c 128,-1,54
 917 431 917 431 915 435 c 128,-1,55
 913 439 913 439 913 439 c 2,56,57
 913 440 913 440 912 443 c 0,58,59
 910 446 910 446 910 447 c 2,60,61
 910 447 910 447 908 453 c 2,62,63
 908 453 908 453 905 459 c 0,64,65
 897 476 897 476 888 492 c 0,66,67
 857 548 857 548 809 593 c 0,68,69
 760 639 760 639 703 668 c 0,70,71
 680 680 680 680 673 681 c 0,72,73
 672 682 672 682 662 686 c 0,74,75
 632 698 632 698 574 707 c 0,76,77
 540 712 540 712 510 712 c 0,78,79
 494 712 494 712 487 711 c 0,0,1
224 502 m 0,80,81
 231 504 231 504 236 503 c 0,82,83
 265 497 265 497 265 497 c 1,84,85
 287 493 287 493 298 491 c 2,86,87
 298 491 298 491 299 491 c 0,88,89
 303 491 303 491 308 489 c 128,-1,90
 313 487 313 487 314 485 c 2,91,92
 314 485 314 485 314 484 c 0,93,94
 314 479 314 479 297 414 c 0,95,96
 295 406 295 406 285 412 c 0,97,98
 281 415 281 415 255 422 c 0,99,100
 227 430 227 430 222 432 c 128,-1,101
 217 434 217 434 215 437 c 0,102,103
 214 441 214 441 210 443 c 0,104,105
 200 449 200 449 200 461 c 0,106,107
 200 472 200 472 204 487 c 0,108,109
 207 497 207 497 224 502 c 0,80,81
260 493 m 128,-1,111
 260 493 260 493 244 496 c 0,112,113
 238 497 238 497 235 497 c 128,-1,114
 232 497 232 497 231 496 c 0,115,116
 230 496 230 496 230 493 c 0,117,118
 230 489 230 489 257 482 c 0,119,120
 285 475 285 475 286 480 c 0,121,122
 286 482 286 482 286 483 c 128,-1,123
 286 484 286 484 283 485.5 c 128,-1,124
 280 487 280 487 275 488 c 0,125,110
 260 493 260 493 260 493 c 128,-1,111
326 480 m 0,126,127
 326 481 326 481 328 481 c 256,128,129
 330 481 330 481 366 472 c 128,-1,130
 402 463 402 463 403 462 c 2,131,132
 403 462 403 462 403 461 c 0,133,134
 403 456 403 456 394 422 c 0,135,136
 384 383 384 383 382 383 c 0,137,138
 377 381 377 381 372 387 c 0,139,140
 368 391 368 391 338.5 399 c 128,-1,141
 309 407 309 407 308 408 c 1,142,143
 308 408 308 408 308 408 c 1,144,145
 308 409 308 409 317 442 c 0,146,147
 325 477 325 477 326 480 c 0,126,127
424 480 m 0,148,149
 426 481 426 481 433 479.5 c 128,-1,150
 440 478 440 478 488 465 c 0,151,152
 550 448 550 448 563 445 c 0,153,154
 573 442 573 442 611 432 c 0,155,156
 633 426 633 426 659 419 c 0,157,158
 696 409 696 409 705 407 c 0,159,160
 776 387 776 387 793 387 c 0,161,162
 814 387 814 387 814 380 c 0,163,164
 814 375 814 375 812 369.5 c 128,-1,165
 810 364 810 364 808 363 c 0,166,167
 805 363 805 363 801 358 c 2,168,-1
 796 353 l 1,169,-1
 675 383 l 1,170,-1
 553 414 l 1,171,-1
 554 419 l 2,172,173
 554 424 554 424 555 426 c 0,174,175
 556 429 556 429 550 431 c 256,176,177
 544 433 544 433 524 439 c 0,178,179
 499 445 499 445 495 445 c 128,-1,180
 491 445 491 445 489 438 c 128,-1,181
 487 431 487 431 485 431 c 0,182,183
 479 431 479 431 447.5 440 c 128,-1,184
 416 449 416 449 416 450 c 0,185,186
 416 452 416 452 419.5 465 c 128,-1,187
 423 478 423 478 424 480 c 0,148,149
255 471 m 0,188,189
 236 476 236 476 231.5 476 c 128,-1,190
 227 476 227 476 225 471 c 128,-1,191
 223 466 223 466 226.5 463 c 128,-1,192
 230 460 230 460 251 455 c 0,193,194
 275 449 275 449 279 453 c 0,195,196
 288 462 288 462 263 469 c 0,197,198
 260 470 260 470 255 471 c 0,188,189
247 444 m 0,199,200
 227 450 227 450 225 450 c 256,201,202
 221 450 221 450 220 449 c 0,203,204
 218 446 218 446 219.5 443 c 128,-1,205
 221 440 221 440 249 433 c 0,206,207
 271 427 271 427 273 430 c 0,208,209
 275 434 275 434 270.5 436.5 c 128,-1,210
 266 439 266 439 247 444 c 0,199,200
413 436 m 0,211,212
 414 439 414 439 417 439 c 0,213,214
 422 438 422 438 453 430 c 256,215,216
 484 422 484 422 489 422 c 128,-1,217
 494 422 494 422 496 429 c 128,-1,218
 498 436 498 436 498.5 436 c 128,-1,219
 499 436 499 436 522 430 c 0,220,221
 541 425 541 425 543 423.5 c 128,-1,222
 545 422 545 422 542 412 c 2,223,-1
 540 403 l 1,224,-1
 528 403 l 1,225,-1
 516 403 l 1,226,-1
 527 398 l 2,227,228
 538 395 538 395 541 394 c 0,229,230
 547 392 547 392 549 401 c 0,231,232
 550 405 550 405 552 405 c 128,-1,233
 554 405 554 405 673 375 c 128,-1,234
 792 345 792 345 793 344 c 128,-1,235
 794 343 794 343 792 336 c 0,236,237
 787 311 787 311 765 311 c 0,238,239
 761 311 761 311 584 354.5 c 128,-1,240
 407 398 407 398 404 400 c 0,241,242
 404 401 404 401 407.5 416.5 c 128,-1,243
 411 432 411 432 413 436 c 0,211,212
396 380 m 0,244,245
 397 382 397 382 409 379.5 c 128,-1,246
 421 377 421 377 489 360 c 0,247,248
 580 337 580 337 580.5 336.5 c 128,-1,249
 581 336 581 336 576.5 318 c 128,-1,250
 572 300 572 300 570.5 297.5 c 128,-1,251
 569 295 569 295 563 295 c 0,252,253
 553 295 553 295 549 290 c 0,254,255
 546 286 546 286 540 263 c 0,256,257
 536 245 536 245 536 240 c 128,-1,258
 536 235 536 235 539 226 c 2,259,-1
 543 219 l 1,260,-1
 553 216 l 2,261,262
 563 213 563 213 588 206 c 2,263,-1
 614 199 l 1,264,-1
 620 201 l 2,265,266
 639 207 639 207 639 226.5 c 128,-1,267
 639 246 639 246 625 254 c 0,268,269
 617 259 617 259 588 265 c 0,270,271
 567 269 567 269 559 269 c 0,272,273
 556 269 556 269 555 269 c 2,274,-1
 551 268 l 1,275,-1
 553 276 l 2,276,277
 555 282 555 282 557 284.5 c 128,-1,278
 559 287 559 287 563 286 c 0,279,280
 571 284 571 284 575.5 290 c 128,-1,281
 580 296 580 296 584 314 c 0,282,283
 589 333 589 333 591.5 333 c 128,-1,284
 594 333 594 333 675 313 c 0,285,286
 745 295 745 295 758.5 293 c 128,-1,287
 772 291 772 291 784 298 c 0,288,289
 803 307 803 307 811 334 c 0,290,291
 813 343 813 343 815 345 c 128,-1,292
 817 347 817 347 823 346 c 0,293,294
 833 343 833 343 833 332 c 0,295,296
 833 326 833 326 836 325 c 0,297,298
 837 324 837 324 837 321 c 128,-1,299
 837 318 837 318 835 309.5 c 128,-1,300
 833 301 833 301 830 288 c 128,-1,301
 827 275 827 275 822 256 c 1,302,-1
 820 252 l 1,303,-1
 814 253 l 2,304,305
 807 253 807 253 806 251 c 0,306,307
 800 235 800 235 777 244 c 0,308,309
 772 246 772 246 768 248 c 0,310,311
 762 250 762 250 757 250 c 0,312,313
 744 250 744 250 734 237 c 0,314,315
 728 230 728 230 728 223 c 0,316,317
 728 219 728 219 768 88 c 0,318,319
 787 27 787 27 787 20 c 0,320,321
 787 19 787 19 787 19 c 1,322,323
 784 19 784 19 734.5 19 c 128,-1,324
 685 19 685 19 672 25 c 0,325,326
 665 28 665 28 664 36 c 256,327,328
 663 44 663 44 668 53 c 2,329,-1
 673 60 l 1,330,-1
 666 88 l 2,331,332
 660 115 660 115 659 118 c 0,333,334
 658 123 658 123 644 128 c 0,335,336
 633 132 633 132 640 142.5 c 128,-1,337
 647 153 647 153 644 168 c 0,338,339
 642 178 642 178 640 180 c 128,-1,340
 638 182 638 182 630 184 c 0,341,342
 621 186 621 186 616 188 c 0,343,344
 610 191 610 191 574 201 c 0,345,346
 540 211 540 211 537 211 c 0,347,348
 536 211 536 211 536 211 c 2,349,350
 533 210 533 210 522 213 c 0,351,352
 520 213 520 213 495 226 c 0,353,354
 486 230 486 230 479 233 c 0,355,356
 471 236 471 236 460 242 c 0,357,358
 431 255 431 255 422 260 c 0,359,360
 386 276 386 276 386 279 c 0,361,362
 386 280 386 280 386 280 c 1,363,364
 387 280 387 280 388 280 c 0,365,366
 393 280 393 280 396 286.5 c 128,-1,367
 399 293 399 293 405 319 c 0,368,369
 407 326 407 326 407 327 c 0,370,371
 413 349 413 349 413 352.5 c 128,-1,372
 413 356 413 356 409 358 c 0,373,374
 408 359 408 359 407 359 c 0,375,376
 399 362 399 362 395.5 368 c 128,-1,377
 392 374 392 374 396 380 c 0,244,245
394 257 m 0,378,379
 394 259 394 259 402 255 c 0,380,381
 411 251 411 251 415 249 c 0,382,383
 421 247 421 247 421 244 c 256,384,385
 421 241 421 241 416 222 c 0,386,387
 415 218 415 218 413.5 218 c 128,-1,388
 412 218 412 218 404 222 c 0,389,390
 395 226 395 226 393.5 226 c 128,-1,391
 392 226 392 226 390 228 c 2,392,-1
 387 230 l 1,393,-1
 390 243 l 2,394,395
 393 255 393 255 394 257 c 0,378,379
603 248 m 0,396,397
 602 251 602 251 604 251 c 0,398,399
 605 251 605 251 612 249 c 2,400,-1
 620 247 l 1,401,-1
 620 239 l 2,402,403
 620 230 620 230 611.5 219 c 128,-1,404
 603 208 603 208 599 208 c 0,405,406
 591 208 591 208 597 215 c 0,407,408
 602 221 602 221 604 231 c 256,409,410
 606 241 606 241 603 248 c 0,396,397
439 236 m 0,411,412
 440 238 440 238 443 236 c 0,413,414
 462 226 462 226 465 226 c 0,415,416
 466 226 466 226 469 224 c 2,417,-1
 472 222 l 1,418,-1
 469 208 l 2,419,420
 466 197 466 197 464.5 195.5 c 128,-1,421
 463 194 463 194 458 196 c 0,422,423
 453 199 453 199 443 203 c 0,424,425
 434 208 434 208 433 209 c 0,426,427
 431 212 431 212 439 236 c 0,411,412
383 217 m 0,428,429
 384 221 384 221 386 220 c 0,430,431
 389 220 389 220 424 203 c 0,432,433
 433 199 433 199 441 196 c 0,434,435
 463 185 463 185 499 168 c 0,436,437
 507 165 507 165 508 163.5 c 128,-1,438
 509 162 509 162 508 157 c 0,439,440
 506 151 506 151 496 154 c 0,441,442
 489 157 489 157 463 169 c 0,443,444
 448 176 448 176 429 185 c 0,445,446
 421 189 421 189 409 194.5 c 128,-1,447
 397 200 397 200 390 203 c 256,448,449
 383 206 383 206 382.5 208 c 128,-1,450
 382 210 382 210 383 217 c 0,428,429
486 201 m 128,-1,452
 489 214 489 214 490 214 c 0,453,454
 493 213 493 213 506 207 c 128,-1,455
 519 201 519 201 519 199 c 256,456,457
 519 197 519 197 515.5 185.5 c 128,-1,458
 512 174 512 174 511 173 c 128,-1,459
 510 172 510 172 496.5 178.5 c 128,-1,460
 483 185 483 185 483 186.5 c 128,-1,451
 483 188 483 188 486 201 c 128,-1,452
EndSplineSet
Validated: 5
EndChar

StartChar: C
Encoding: 67 67 16
Width: 1024
GlyphClass: 2
Flags: W
LayerCount: 2
Fore
SplineSet
444 384 m 0,0,1
 444 397 444 397 449.5 410 c 128,-1,2
 455 423 455 423 464 432 c 128,-1,3
 473 441 473 441 486 446.5 c 128,-1,4
 499 452 499 452 512 452 c 0,5,6
 541 452 541 452 560.5 432 c 128,-1,7
 580 412 580 412 580 384 c 128,-1,8
 580 356 580 356 560.5 336 c 128,-1,9
 541 316 541 316 512.5 316 c 128,-1,10
 484 316 484 316 464 336 c 128,-1,11
 444 356 444 356 444 384 c 0,0,1
283 212 m 0,12,13
 283 230 283 230 292 246 c 128,-1,14
 301 262 301 262 317 271 c 128,-1,15
 333 280 333 280 351 280 c 0,16,17
 379 280 379 280 399 260 c 128,-1,18
 419 240 419 240 419 212 c 128,-1,19
 419 184 419 184 399 164 c 128,-1,20
 379 144 379 144 351 144 c 128,-1,21
 323 144 323 144 303 164 c 128,-1,22
 283 184 283 184 283 212 c 0,12,13
606 213 m 128,-1,24
 606 241 606 241 625.5 261 c 128,-1,25
 645 281 645 281 673.5 281 c 128,-1,26
 702 281 702 281 721.5 261 c 128,-1,27
 741 241 741 241 741 213 c 0,28,29
 741 199 741 199 736 186.5 c 128,-1,30
 731 174 731 174 722 165 c 128,-1,31
 713 156 713 156 700 150.5 c 128,-1,32
 687 145 687 145 674 145 c 0,33,34
 645 145 645 145 625.5 165 c 128,-1,23
 606 185 606 185 606 213 c 128,-1,24
797 510 m 2,35,36
 803 510 803 510 808 507 c 128,-1,37
 813 504 813 504 816 498.5 c 128,-1,38
 819 493 819 493 819 487 c 2,39,-1
 819 101 l 2,40,41
 819 95 819 95 816 89.5 c 128,-1,42
 813 84 813 84 808 81 c 128,-1,43
 803 78 803 78 797 78 c 2,44,-1
 228 78 l 2,45,46
 219 78 219 78 212.5 85 c 128,-1,47
 206 92 206 92 206 101 c 2,48,-1
 206 487 l 2,49,50
 206 496 206 496 212.5 503 c 128,-1,51
 219 510 219 510 228 510 c 2,52,-1
 797 510 l 2,35,36
803 111 m 2,53,-1
 803 477 l 2,54,55
 803 486 803 486 796.5 492 c 128,-1,56
 790 498 790 498 781 498 c 2,57,-1
 243 498 l 2,58,59
 235 498 235 498 228.5 492 c 128,-1,60
 222 486 222 486 222 477 c 2,61,-1
 222 111 l 2,62,63
 222 102 222 102 228.5 96 c 128,-1,64
 235 90 235 90 243 90 c 2,65,-1
 781 90 l 2,66,67
 790 90 790 90 796.5 96 c 128,-1,68
 803 102 803 102 803 111 c 2,53,-1
925.5 407 m 128,-1,70
 941 352 941 352 941 294 c 128,-1,71
 941 236 941 236 925.5 180.5 c 128,-1,72
 910 125 910 125 881.5 78 c 128,-1,73
 853 31 853 31 814.5 -8.5 c 128,-1,74
 776 -48 776 -48 727.5 -76 c 128,-1,75
 679 -104 679 -104 625 -119 c 128,-1,76
 571 -134 571 -134 512.5 -134 c 128,-1,77
 454 -134 454 -134 399 -119 c 0,78,79
 343 -104 343 -104 296 -76 c 256,80,81
 249 -48 249 -48 209.5 -8.5 c 128,-1,82
 170 31 170 31 142 78 c 128,-1,83
 114 125 114 125 99 179 c 0,84,85
 84 236 84 236 84 294 c 128,-1,86
 84 352 84 352 99 407 c 128,-1,87
 114 462 114 462 142 509.5 c 128,-1,88
 170 557 170 557 209.5 596.5 c 128,-1,89
 249 636 249 636 296 663.5 c 128,-1,90
 343 691 343 691 398 706.5 c 128,-1,91
 453 722 453 722 512 722 c 256,92,93
 571 722 571 722 625 706.5 c 128,-1,94
 679 691 679 691 727.5 663.5 c 128,-1,95
 776 636 776 636 814.5 596.5 c 128,-1,96
 853 557 853 557 881.5 509.5 c 128,-1,69
 910 462 910 462 925.5 407 c 128,-1,70
838 89 m 2,97,-1
 838 499 l 2,98,99
 838 509 838 509 831 516 c 128,-1,100
 824 523 824 523 815 523 c 2,101,-1
 210 523 l 2,102,103
 200 523 200 523 193 516 c 128,-1,104
 186 509 186 509 186 499 c 2,105,-1
 186 89 l 2,106,107
 186 79 186 79 193 72 c 128,-1,108
 200 65 200 65 210 65 c 2,109,-1
 815 65 l 2,110,111
 824 65 824 65 831 72 c 128,-1,112
 838 79 838 79 838 89 c 2,97,-1
EndSplineSet
Validated: 1
EndChar

StartChar: D
Encoding: 68 68 17
Width: 1024
GlyphClass: 2
LayerCount: 2
Fore
SplineSet
508 475 m 128,-1,1
 577 475 577 475 626 426 c 128,-1,2
 675 377 675 377 675 308 c 128,-1,3
 675 239 675 239 626 190 c 128,-1,4
 577 141 577 141 508 141 c 128,-1,5
 439 141 439 141 390 190 c 128,-1,6
 341 239 341 239 341 308 c 128,-1,7
 341 377 341 377 390 426 c 128,-1,0
 439 475 439 475 508 475 c 128,-1,1
397 214 m 1,8,-1
 412 230 l 1,9,10
 384 265 384 265 384 308 c 0,11,12
 384 360 384 360 420.5 396 c 128,-1,13
 457 432 457 432 508 432 c 0,14,15
 552 432 552 432 586 404 c 1,16,-1
 601 419 l 1,17,18
 562 453 562 453 508 453 c 0,19,20
 448 453 448 453 405.5 410.5 c 128,-1,21
 363 368 363 368 363 308 c 0,22,23
 363 255 363 255 397 214 c 1,8,-1
609 308 m 0,24,25
 609 348 609 348 579 379 c 0,26,27
 550 409 550 409 508 409 c 0,28,29
 468 409 468 409 437 379 c 0,30,31
 407 350 407 350 407 308 c 0,32,33
 407 268 407 268 437 237 c 0,34,35
 466 207 466 207 508 207 c 128,-1,36
 550 207 550 207 579.5 236.5 c 128,-1,37
 609 266 609 266 609 308 c 0,24,25
508 163 m 0,38,39
 570 163 570 163 611 205 c 0,40,41
 654 249 654 249 654 308 c 0,42,43
 654 361 654 361 620 401 c 1,44,-1
 604 386 l 1,45,46
 632 352 632 352 632 308 c 0,47,48
 632 257 632 257 596 221 c 0,49,50
 559 184 559 184 508 184 c 0,51,52
 464 184 464 184 431 211 c 1,53,-1
 415 196 l 1,54,55
 456 163 456 163 508 163 c 0,38,39
508 727.59375 m 0,56,57
 625 727.59375 625 727.59375 720 673 c 0,58,59
 816 618 816 618 873 519 c 0,60,61
 929 422 929 422 929 308 c 128,-1,62
 929 194 929 194 873 97 c 0,63,64
 816 -1 816 -1 720 -57 c 0,65,66
 623 -113 623 -113 508 -113 c 0,67,68
 392 -113 392 -113 297 -57 c 128,-1,69
 202 -1 202 -1 144 97 c 0,70,71
 87 194 87 194 87 308 c 128,-1,72
 87 422 87 422 143 519 c 0,73,74
 200 616 200 616 297 671.796875 c 128,-1,75
 394 727.59375 394 727.59375 508 727.59375 c 0,56,57
757 473 m 1,76,-1
 734 497 l 1,77,-1
 691 454 l 1,78,-1
 715 431 l 1,79,-1
 757 473 l 1,76,-1
723 374 m 1,80,-1
 573 523 l 1,81,-1
 442 523 l 1,82,-1
 293 374 l 1,83,-1
 293 242 l 1,84,-1
 442 93 l 1,85,-1
 573 93 l 1,86,-1
 723 242 l 1,87,-1
 723 374 l 1,80,-1
697 534 m 1,88,-1
 674 557 l 1,89,-1
 631 514 l 1,90,-1
 654 491 l 1,91,-1
 697 534 l 1,88,-1
417 655 m 1,92,-1
 367 605 l 1,93,-1
 429 545 l 1,94,-1
 460 545 l 1,95,-1
 489 570 l 1,96,-1
 527 570 l 1,97,-1
 556 545 l 1,98,-1
 587 545 l 1,99,-1
 649 605 l 1,100,-1
 599 655 l 1,101,-1
 417 655 l 1,92,-1
343 557 m 1,102,-1
 319 534 l 1,103,-1
 362 491 l 1,104,-1
 386 514 l 1,105,-1
 343 557 l 1,102,-1
283 497 m 1,106,-1
 259 473 l 1,107,-1
 302 431 l 1,108,-1
 325 454 l 1,109,-1
 283 497 l 1,106,-1
161 217 m 1,110,-1
 211 167 l 1,111,-1
 272 229 l 1,112,-1
 272 260 l 1,113,-1
 247 289 l 1,114,-1
 247 327 l 1,115,-1
 272 356 l 1,116,-1
 272 387 l 1,117,-1
 211 449 l 1,118,-1
 161 399 l 1,119,-1
 161 217 l 1,110,-1
259 142 m 1,120,-1
 283 118 l 1,121,-1
 325 161 l 1,122,-1
 302 185 l 1,123,-1
 259 142 l 1,120,-1
319 82 m 1,124,-1
 343 58 l 1,125,-1
 386 101 l 1,126,-1
 362 124 l 1,127,-1
 319 82 l 1,124,-1
599 -40 m 1,128,-1
 649 10 l 1,129,-1
 588 71 l 1,130,-1
 556 71 l 1,131,-1
 528 46 l 1,132,-1
 489 46 l 1,133,-1
 460 71 l 1,134,-1
 429 71 l 1,135,-1
 367 10 l 1,136,-1
 417 -40 l 1,137,-1
 599 -40 l 1,128,-1
674 59 m 1,138,-1
 697 82 l 1,139,-1
 654 125 l 1,140,-1
 631 102 l 1,141,-1
 674 59 l 1,138,-1
734 119 m 1,142,-1
 757 143 l 1,143,-1
 715 185 l 1,144,-1
 691 162 l 1,145,-1
 734 119 l 1,142,-1
806 167 m 1,146,-1
 856 217 l 1,147,-1
 856 399 l 1,148,-1
 806 449 l 1,149,-1
 745 387 l 1,150,-1
 745 356 l 1,151,-1
 770 327 l 1,152,-1
 770 289 l 1,153,-1
 745 260 l 1,154,-1
 745 229 l 1,155,-1
 806 167 l 1,146,-1
EndSplineSet
Validated: 1
EndChar

StartChar: E
Encoding: 69 69 18
Width: 1024
GlyphClass: 2
Flags: W
LayerCount: 2
Fore
SplineSet
512 722 m 0,0,1
 571 722 571 722 625.5 707 c 128,-1,2
 680 692 680 692 727.5 664 c 128,-1,3
 775 636 775 636 813.5 597 c 128,-1,4
 852 558 852 558 880 510.5 c 128,-1,5
 908 463 908 463 923 408.5 c 128,-1,6
 938 354 938 354 938 296 c 0,7,8
 938 210 938 210 906 132 c 128,-1,9
 874 54 874 54 813 -6 c 0,10,11
 784 -35 784 -35 750 -58.5 c 128,-1,12
 716 -82 716 -82 677 -98 c 128,-1,13
 638 -114 638 -114 595 -122.5 c 128,-1,14
 552 -131 552 -131 506 -131 c 0,15,16
 448 -131 448 -131 394 -115 c 128,-1,17
 340 -99 340 -99 293 -71 c 128,-1,18
 246 -43 246 -43 207 -3.5 c 128,-1,19
 168 36 168 36 141 84 c 128,-1,20
 114 132 114 132 99 186 c 256,21,22
 84 240 84 240 84 300 c 0,23,24
 84 358 84 358 100 412 c 128,-1,25
 116 466 116 466 144 513 c 128,-1,26
 172 560 172 560 211 599 c 128,-1,27
 250 638 250 638 297 665 c 128,-1,28
 344 692 344 692 398 707 c 128,-1,29
 452 722 452 722 512 722 c 0,0,1
500 662 m 0,30,31
 500 657 500 657 501.5 654.5 c 128,-1,32
 503 652 503 652 505 650.5 c 128,-1,33
 507 649 507 649 509.5 648 c 128,-1,34
 512 647 512 647 514 646 c 0,35,36
 527 644 527 644 530 644 c 2,37,38
 530 645 530 645 543 645 c 2,39,-1
 553 645 l 0,40,41
 561 646 561 646 569 647 c 128,-1,42
 577 648 577 648 591 648 c 0,43,44
 633 648 633 648 648 645 c 0,45,46
 653 644 653 644 655 644 c 24,47,-1
 658 648 l 2,48,49
 658 648 658 648 658 652 c 0,50,51
 658 654 658 654 627 664 c 0,52,53
 614 667 614 667 597 672 c 0,54,55
 577 678 577 678 549 678 c 2,56,57
 549 678 549 678 532 678 c 2,58,-1
 516 678 l 0,59,60
 510 677 510 677 508 676 c 2,61,62
 502 672 502 672 500 669 c 0,63,64
 500 668 500 668 500 662 c 0,30,31
458 582 m 2,65,66
 458 582 458 582 468 573 c 0,67,68
 476 567 476 567 484.5 563 c 128,-1,69
 493 559 493 559 502 556 c 0,70,71
 512 553 512 553 522 551.5 c 128,-1,72
 532 550 532 550 542 550 c 2,73,-1
 554 550 l 1,74,-1
 565 550 l 1,75,-1
 586 553 l 2,76,77
 598 555 598 555 610 564 c 0,78,79
 618 570 618 570 626 572 c 0,80,81
 639 577 639 577 656 574 c 0,82,83
 692 568 692 568 702 547 c 0,84,85
 703 545 703 545 704 543.5 c 128,-1,86
 705 542 705 542 706 542 c 2,87,88
 706 542 706 542 708 542 c 0,89,90
 708 542 708 542 709 545 c 0,91,92
 710.777777778 550.333333333 710.777777778 550.333333333 710.777777778 557.444444444 c 0,93,94
 710.777777778 566.333333333 710.777777778 566.333333333 708 578 c 0,95,96
 704 596 704 596 697 606 c 0,97,98
 687 620 687 620 670 630 c 0,99,100
 649.583333333 642.25 649.583333333 642.25 620.319444444 642.25 c 0,101,102
 599.416666667 642.25 599.416666667 642.25 574 636 c 0,103,104
 572 635 572 635 544 632 c 1,105,-1
 530 632 l 2,106,107
 526 632.5 526 632.5 521 632.5 c 128,-1,108
 516 632.5 516 632.5 512 634 c 0,109,110
 501 638 501 638 498 640 c 0,111,112
 494 642 494 642 491 648 c 0,113,114
 490 650 490 650 490 654 c 2,115,-1
 490 663 l 1,116,-1
 490 666 l 1,117,118
 485 666 485 666 469 658 c 0,119,120
 458 654 458 654 458 616 c 0,121,122
 458 608 458 608 458 606 c 0,123,124
 458 595 458 595 458 582 c 2,65,66
429 572 m 1,125,126
 411 565 411 565 396 558 c 0,127,128
 378 549 378 549 363 537.5 c 128,-1,129
 348 526 348 526 334 513 c 0,130,131
 327 506 327 506 321.5 498.5 c 128,-1,132
 316 491 316 491 310 483 c 0,133,134
 297 465 297 465 286 446 c 0,135,136
 276 429 276 429 267 406 c 0,137,138
 263 396 263 396 260 386 c 0,139,140
 252 364 252 364 252 364 c 1,141,-1
 253 360 l 2,142,143
 254 357 254 357 267 352 c 1,144,145
 267 352 267 352 306 340 c 1,146,147
 306 339 306 339 306 338 c 2,148,149
 306 338 306 338 296 301 c 0,150,151
 296 299 296 299 301 297 c 128,-1,152
 306 295 306 295 332 289 c 2,153,-1
 358 283 l 2,154,155
 378 279 378 279 397 274.5 c 128,-1,156
 416 270 416 270 436 266 c 1,157,-1
 440 266 l 2,158,159
 446 266 446 266 451 278 c 1,160,161
 451 278 451 278 454 296 c 0,162,163
 456 302 456 302 456 307 c 2,164,-1
 456 308 l 1,165,-1
 457 308 l 1,166,167
 457 308 457 308 460 308 c 2,168,169
 460 308 460 308 480 304 c 2,170,171
 480 304 480 304 506 300 c 1,172,-1
 508 300 l 1,173,-1
 508 301 l 2,174,175
 508 303 508 303 512 319 c 128,-1,176
 516 335 516 335 519 351.5 c 128,-1,177
 522 368 522 368 525 384 c 128,-1,178
 528 400 528 400 531 415 c 128,-1,179
 534 430 534 430 538 446 c 0,180,181
 542 466 542 466 547 485 c 2,182,183
 547 485 547 485 557 523 c 1,184,-1
 557 525 l 1,185,186
 557 525 557 525 546 525 c 2,187,188
 546 525 546 525 523 525 c 0,189,190
 518 525 518 525 512 528 c 1,191,192
 514 510 514 510 506 502 c 128,-1,193
 498 494 498 494 492 494 c 2,194,-1
 491 494 l 1,195,196
 491 495 491 495 490.5 496 c 128,-1,197
 490 497 490 497 490 498 c 0,198,199
 489 504 489 504 486.5 510.5 c 128,-1,200
 484 517 484 517 484 524 c 0,201,202
 484 536 484 536 461 536 c 2,203,-1
 452 536 l 2,204,205
 441 536 441 536 432 533 c 0,206,207
 420 528 420 528 418 524 c 128,-1,208
 416 520 416 520 416 518 c 2,209,-1
 416 488 l 1,210,-1
 416 486 l 1,211,212
 415 486 415 486 414 486 c 2,213,214
 406 488 406 488 402.5 490 c 128,-1,215
 399 492 399 492 396 494 c 0,216,217
 390 498 390 498 388 504 c 0,218,219
 385 517 385 517 392 532 c 0,220,221
 396 541 396 541 414 548 c 0,222,223
 434 556 434 556 442 556 c 1,224,225
 442 556 442 556 438 560 c 0,226,227
 435 563 435 563 433 567 c 0,228,229
 431 572 431 572 430 572 c 2,230,-1
 429 572 l 1,125,126
205 377 m 128,-1,232
 209 375 209 375 214 374 c 0,233,234
 216 373 216 373 220 370 c 2,235,-1
 222 368 l 1,236,237
 222 368 222 368 220 360 c 0,238,239
 214 335 214 335 214 335 c 2,240,-1
 215 334 l 2,241,242
 217 332 217 332 224 328 c 0,243,244
 228 326 228 326 232 324 c 2,245,-1
 234 323 l 2,246,247
 236 322 236 322 246 320 c 0,248,249
 262 316 262 316 262 317 c 2,250,-1
 266 335 l 1,251,-1
 266 337 l 26,252,-1
 264 338 l 0,253,254
 258 340 258 340 251 342 c 0,255,256
 234 349 234 349 234 349 c 26,257,-1
 234 352 l 0,258,259
 234 365 234 365 242 386 c 0,260,261
 245 396 245 396 249 406 c 0,262,263
 260 434 260 434 264 440 c 2,264,265
 264 440 264 440 284 472 c 0,266,267
 293 486 293 486 303.5 498 c 128,-1,268
 314 510 314 510 326 522 c 0,269,270
 338 533 338 533 351 542.5 c 128,-1,271
 364 552 364 552 378 560 c 0,272,273
 390 566 390 566 401 570 c 0,274,275
 420 577 420 577 426 577 c 0,276,277
 428 577 428 577 428 578 c 0,278,279
 428 580 428 580 427 582 c 0,280,281
 425 586 425 586 425 586 c 1,282,283
 419 584 419 584 412 582 c 2,284,-1
 398 578 l 2,285,286
 366 569 366 569 332 545 c 0,287,288
 322 538 322 538 312.5 530 c 128,-1,289
 303 522 303 522 293 514 c 0,290,291
 286 508 286 508 279 501 c 0,292,293
 271 493 271 493 265 486 c 0,294,295
 246 464 246 464 240 452 c 0,296,297
 233 439 233 439 219 416 c 0,298,299
 213 406 213 406 211 400 c 2,300,231
 201 379 201 379 205 377 c 128,-1,232
389 190 m 130,-1,302
 389 190 389 190 326 208 c 24,303,304
 326 209 326 209 290 221 c 0,305,306
 281 224 281 224 274 226 c 0,307,308
 266 229 266 229 266 230 c 2,309,310
 268 231 268 231 268 257 c 0,311,312
 268 267 268 267 266 268 c 0,313,314
 249 278 249 278 226 278 c 1,315,316
 226 278 226 278 224 279 c 1,317,318
 223 287 223 287 222 295 c 2,319,-1
 221 300 l 0,320,-1
 220 304 l 2,321,322
 219 307 219 307 215 308 c 2,323,-1
 212 309 l 2,324,325
 211 309 211 309 206 310 c 2,326,327
 206 310 206 310 190 312 c 1,328,-1
 188 312 l 17,329,330
 183.1 283.3 183.1 283.3 183.1 273.22 c 0,331,332
 183.1 268.9 183.1 268.9 184 268 c 0,333,334
 186 266 186 266 186 236 c 0,335,336
 186 221 186 221 194 194 c 0,337,338
 199 178 199 178 203 166 c 0,339,340
 219 122 219 122 248 80 c 0,341,342
 260 63 260 63 273 48 c 128,-1,343
 286 33 286 33 302 20 c 0,344,345
 338 -12 338 -12 384 -30 c 1,346,-1
 386 -30 l 1,347,-1
 386 -29 l 1,348,349
 382 -14 382 -14 382 0 c 0,350,351
 382 30 382 30 379 42 c 2,352,-1
 380 68 l 1,353,354
 380 68 380 68 380 94 c 1,355,-1
 380 106 l 1,356,357
 382 112 382 112 382 132 c 1,358,359
 382 146 382 146 384 152 c 2,360,361
 384 152 384 152 388 178 c 0,362,301
 389 190 389 190 389 190 c 130,-1,302
582 -46 m 0,363,364
 588 -41 588 -41 594 -35.5 c 0,365,366
 604 -27 604 -27 605 -25 c 0,367,368
 615 -12.5 615 -12.5 625.5 0 c 128,-1,369
 636 12.5 636 12.5 644 25 c 0,370,371
 675 74 675 74 686 114 c 2,372,-1
 693 140 l 2,373,374
 696 152 696 152 696 154 c 0,375,376
 698 160 698 160 699 168 c 3,377,378
 699 175 699 175 699 175 c 0,379,380
 697 177 697 177 694 178 c 0,381,382
 692 180 692 180 649 186 c 0,383,384
 619 190 619 190 604 192 c 2,385,386
 604 192 604 192 583 195 c 0,387,388
 565 198 565 198 562 198 c 2,389,-1
 560 198 l 24,390,391
 558 188 558 188 556.5 178.5 c 128,-1,392
 555 169 555 169 552 160 c 0,393,-1
 541 160 l 0,394,395
 534 161 534 161 504 166 c 0,396,397
 478 170 478 170 476 172 c 24,398,399
 473 175 473 175 476 192 c 0,400,401
 480 208 480 208 480 212 c 0,402,403
 480 214 480 214 475 215 c 1,404,405
 445 222 445 222 426 222 c 2,406,-1
 422 222 l 24,407,408
 418 220 418 220 418 218 c 1,409,410
 417 218 417 218 411 177 c 0,411,412
 410 170 410 170 409 162 c 2,413,414
 409 162 409 162 409 132 c 0,415,416
 409 116 409 116 402 74 c 1,417,-1
 402 55 l 1,418,-1
 402 40 l 1,419,-1
 402 25 l 2,420,421
 402 20 402 20 405 -4 c 2,422,-1
 407 -20 l 1,423,424
 407 -20 407 -20 410 -38 c 25,425,-1
 412 -39 l 2,426,427
 412 -39 412 -39 422 -42 c 0,428,429
 462 -54 462 -54 507 -54 c 0,430,431
 536 -54 536 -54 573 -48 c 0,432,433
 581 -47 581 -47 582 -46 c 0,363,364
824 168 m 0,434,435
 824 170 824 170 823 174 c 0,436,437
 819 189 819 189 804 192 c 2,438,439
 804 192 804 192 798 193 c 1,440,-1
 798 191 l 1,441,-1
 798 184 l 24,442,-1
 798 178 l 2,443,444
 798 170 798 170 790 146 c 0,445,446
 789 143 789 143 788 142 c 0,447,448
 783 141 783 141 775 140 c 0,449,450
 746 136 746 136 736 136 c 24,451,452
 736 136 736 136 708 136 c 1,453,454
 708 136 708 136 704 120 c 0,455,456
 704 120 704 120 700 106 c 0,457,458
 677 25 677 25 632 -20 c 0,459,460
 628 -24 628 -24 624 -28 c 0,461,462
 616 -34 616 -34 615 -36 c 2,463,-1
 614 -38 l 1,464,-1
 616 -38 l 1,465,466
 649 -28 649 -28 670 -16 c 0,467,468
 698 0 698 -0 698 0 c 0,469,470
 713 10 713 10 739 35 c 0,471,472
 755 51 755 51 772.5 72 c 0,473,474
 791 94 791 94 805 122 c 0,475,476
 815 142 815 142 823 162 c 0,477,478
 824 164 824 164 824 168 c 0,434,435
836 312 m 0,479,480
 836 351 836 351 821 376 c 0,481,482
 810 411 810 411 786 450 c 0,483,484
 769 477 769 477 740 506 c 0,485,486
 732 514 732 514 722 522 c 128,-1,487
 712 530 712 530 702 536 c 0,488,489
 696 540 696 540 690 543 c 128,-1,490
 684 546 684 546 676 548 c 0,491,492
 661 552 661 552 645 548 c 2,493,494
 645 548 645 548 603 534 c 0,495,496
 588 529 588 529 574 527 c 1,497,-1
 572 526 l 2,498,499
 572 524 572 524 571.5 523 c 128,-1,500
 571 522 571 522 571 520 c 0,501,502
 569 512 569 512 568 504 c 2,503,-1
 566 488 l 2,504,505
 564 478 564 478 563 469 c 128,-1,506
 562 460 562 460 560 450 c 256,507,508
 558 440 558 440 556.5 429.5 c 128,-1,509
 555 419 555 419 553 409 c 128,-1,510
 551 399 551 399 548.5 388.5 c 128,-1,511
 546 378 546 378 546 368 c 128,-1,512
 546 358 546 358 544 348 c 128,-1,513
 542 338 542 338 540 328 c 128,-1,514
 538 318 538 318 536.5 309 c 128,-1,515
 535 300 535 300 533 290 c 0,516,517
 532 281 532 281 530 272 c 0,518,519
 528 262 528 262 526 254 c 2,520,-1
 526 252 l 1,521,-1
 526 251 l 1,522,-1
 528 250 l 2,523,524
 530 249 530 249 550 245 c 128,-1,525
 570 241 570 241 578 239.5 c 128,-1,526
 586 238 586 238 588 238 c 2,527,-1
 592 260 l 2,528,529
 596 282 596 282 596 282 c 1,530,-1
 597 282 l 1,531,532
 631 276 631 276 664.5 271 c 128,-1,533
 698 266 698 266 733 262 c 1,534,535
 731 256 731 256 731 250 c 0,536,537
 731 238 731 238 730 236 c 24,538,539
 728 232 728 232 736 230 c 0,540,541
 765 221 765 221 793 221 c 1,542,-1
 810 222 l 1,543,-1
 826 222 l 2,544,545
 834 222 834 222 834 226 c 0,546,547
 836 254 836 254 836 312 c 0,479,480
EndSplineSet
Validated: 1
EndChar

StartChar: F
Encoding: 70 70 19
Width: 1024
GlyphClass: 2
LayerCount: 2
Fore
SplineSet
511 724 m 0,0,1
 624 724 624 724 721 668 c 0,2,3
 817 613 817 613 874 515 c 0,4,5
 930 419 930 419 930 305 c 128,-1,6
 930 191 930 191 874 95 c 0,7,8
 819 -0 819 -0 721 -57 c 0,9,10
 625 -113 625 -113 511 -113 c 0,11,12
 398 -113 398 -113 301 -57 c 0,13,14
 203 -1 203 -1 148 95 c 0,15,16
 92 192 92 192 92 305 c 0,17,18
 92 419 92 419 148 515 c 0,19,20
 204 612 204 612 300.5 668 c 128,-1,21
 397 724 397 724 511 724 c 0,0,1
511 -48 m 0,22,23
 608 -48 608 -48 688 0 c 0,24,25
 767 48 767 48 816 128 c 0,26,27
 864 207 864 207 864 305 c 0,28,29
 864 402 864 402 817 482 c 0,30,31
 768 565 768 565 688 611 c 0,32,33
 606 658 606 658 510 658 c 0,34,35
 416 658 416 658 334 611 c 0,36,37
 251 564 251 564 205 483 c 0,38,39
 158 401 158 401 158 305 c 128,-1,40
 158 209 158 209 205 128.25 c 0,41,42
 253 46.5236118463 253 46.5236118463 333.5 0 c 0,43,44
 417 -48 417 -48 511 -48 c 0,22,23
292 511 m 1,45,-1
 412 345 l 1,46,-1
 250 319 l 1,47,48
 247 341 247 341 247 363 c 0,49,50
 247 442 247 442 292 511 c 1,45,-1
720 524 m 1,51,-1
 552 404 l 1,52,-1
 518 627 l 1,53,54
 579 627 579 627 631.5 599 c 128,-1,55
 684 571 684 571 720 524 c 1,51,-1
772 319 m 1,56,-1
 610 345 l 1,57,-1
 730 511 l 1,58,59
 775 442 775 442 775 363 c 0,60,61
 775 342 775 342 772 319 c 1,56,-1
505 627 m 1,62,-1
 470 404 l 1,63,-1
 302 524 l 1,64,65
 338 571 338 571 391 599 c 128,-1,66
 444 627 444 627 505 627 c 1,62,-1
258 285 m 1,67,68
 430 250 430 250 511 250 c 0,69,70
 578 250 578 250 764 285 c 1,71,72
 738 202 738 202 669 151 c 0,73,74
 599 99 599 99 511 99 c 128,-1,75
 423 99 423 99 353.5 151 c 128,-1,76
 284 203 284 203 258 285 c 1,67,68
EndSplineSet
Validated: 1
EndChar

StartChar: G
Encoding: 71 71 20
Width: 1024
GlyphClass: 2
LayerCount: 2
Fore
SplineSet
512 728 m 0,0,1
 625 728 625 728 724 671 c 0,2,3
 819 616 819 616 877 518 c 0,4,5
 934 421 934 421 934 306 c 0,6,7
 934 193 934 193 877 94 c 0,8,9
 822 -1 822 -1 724 -59 c 0,10,11
 627 -116 627 -116 512 -116 c 0,12,13
 399 -116 399 -116 300 -59 c 0,14,15
 205 -4 205 -4 147 94 c 0,16,17
 90 191 90 191 90 306 c 128,-1,18
 90 421 90 421 147 518 c 0,19,20
 203 615 203 615 300 671.5 c 128,-1,21
 397 728 397 728 512 728 c 0,0,1
243 35 m 1,22,-1
 243 228 l 1,23,24
 221 228 221 228 219 221 c 0,25,26
 210 195 210 195 210 131 c 0,27,28
 210 59 210 59 221 42 c 0,29,30
 224 38 224 38 228 36 c 0,31,32
 233 34 233 34 238 35 c 2,33,-1
 243 35 l 1,22,-1
394 38 m 1,34,-1
 632 38 l 1,35,-1
 632 86 l 2,36,37
 632 88 632 88 631 88 c 2,38,-1
 628 89 l 1,39,-1
 398 89 l 2,40,41
 395 89 395 89 395 88 c 2,42,-1
 394 86 l 1,43,-1
 394 38 l 1,34,-1
766 30 m 0,44,45
 768 38 768 38 769 43 c 0,46,47
 771 49 771 49 771 58 c 0,48,49
 771 74 771 74 771 74 c 0,50,51
 771 80 771 80 771 98 c 128,-1,52
 771 116 771 116 771 130 c 0,53,54
 771 427 771 427 762 580 c 0,55,56
 761 597 761 597 751 597 c 2,57,-1
 422 597 l 1,58,59
 422 570 422 570 422 570 c 0,60,61
 422 528 422 528 420.5 527 c 128,-1,62
 419 526 419 526 408 526 c 0,63,64
 396 526 396 526 395 527 c 128,-1,65
 394 528 394 528 394 571 c 0,66,67
 394 582 394 582 394 597 c 1,68,-1
 376 597 l 1,69,70
 376 570 376 570 376 570 c 0,71,72
 376 529 376 529 375 527 c 0,73,74
 374 526 374 526 332 526 c 0,75,76
 291 526 291 526 290 527 c 128,-1,77
 289 528 289 528 289 571 c 0,78,79
 289 585 289 585 289 597 c 1,80,-1
 275 597 l 2,81,82
 263 597 263 597 263 580 c 0,83,84
 254 232 254 232 254 130 c 0,85,86
 254 116 254 116 254 98 c 128,-1,87
 254 80 254 80 254 74 c 0,88,89
 254 58 254 58 254 58 c 0,90,91
 255 49 255 49 256 43 c 0,92,93
 258 34 258 34 259 30 c 0,94,95
 265 15 265 15 268 15 c 2,96,-1
 326 15 l 1,97,98
 326 15 326 15 336 98 c 0,99,100
 336 103 336 103 340 111 c 0,101,102
 343 117 343 117 345 118 c 0,103,104
 349 120 349 120 447 120 c 0,105,106
 513 120 513 120 578 120 c 0,107,108
 678 120 678 120 680 118 c 0,109,110
 684 114 684 114 688 106 c 2,111,112
 688 106 688 106 697 19 c 0,113,114
 697 15 697 15 699 15 c 2,115,-1
 758 15 l 2,116,117
 762 15 762 15 766 30 c 0,44,45
803 42 m 0,118,119
 814 69 814 69 814 131 c 0,120,121
 814 188 814 188 805 221 c 0,122,123
 804 224 804 224 798 226 c 128,-1,124
 792 228 792 228 787 228 c 2,125,-1
 782 228 l 1,126,-1
 782 35 l 1,127,128
 799 33 799 33 803 42 c 0,118,119
588 190 m 2,129,130
 588 187 588 187 588 181 c 0,131,132
 588 172 588 172 588 172 c 0,133,134
 588 170 588 170 587 166 c 0,135,136
 586 161 586 161 585 160 c 0,137,138
 583 158 583 158 580 157 c 0,139,140
 577 155 577 155 572 155 c 2,141,-1
 289 155 l 2,142,143
 285 155 285 155 282 156 c 0,144,145
 278 157 278 157 277 159 c 0,146,147
 275 163 275 163 275 163 c 128,-1,148
 275 163 275 163 274 168 c 128,-1,149
 273 173 273 173 273 175 c 0,150,151
 273 176 273 176 273 182 c 128,-1,152
 273 188 273 188 273 190 c 2,153,-1
 279 451 l 2,154,155
 279 453 279 453 279 459 c 0,156,157
 279 466 279 466 279 467 c 0,158,159
 279 472 279 472 279 472 c 0,160,161
 280 475 280 475 281 478 c 0,162,163
 282 480 282 480 284 482 c 0,164,165
 285 484 285 484 288 485 c 128,-1,166
 291 486 291 486 295 486 c 2,167,-1
 567 486 l 2,168,169
 568 486 568 486 574 484 c 0,170,171
 577 483 577 483 579 481 c 0,172,173
 580 480 580 480 581 476 c 0,174,175
 582 471 582 471 582 469 c 128,-1,176
 582 467 582 467 582 461 c 0,177,178
 582 454 582 454 582 451 c 2,179,-1
 588 190 l 2,129,130
537 218 m 2,180,181
 552 218 552 218 552 219 c 0,182,183
 553 221 553 221 553 235 c 2,184,-1
 553 443 l 2,185,186
 553 449 553 449 553 449 c 0,187,188
 555 457 555 457 551 463 c 0,189,190
 549 466 549 466 537 466 c 2,191,-1
 323 466 l 2,192,193
 310 466 310 466 307 462 c 128,-1,194
 304 458 304 458 304 443 c 2,195,-1
 304 235 l 2,196,197
 304 220 304 220 306 219 c 0,198,199
 309 218 309 218 323 218 c 2,200,-1
 537 218 l 2,180,181
513 297 m 2,201,202
 520 297 520 297 521 296 c 0,203,204
 523 294 523 294 524 291 c 128,-1,205
 525 288 525 288 525 285 c 0,206,207
 525 276 525 276 525 276 c 130,-1,208
 525 276 525 276 525 257 c 0,209,210
 525 251 525 251 525 248 c 0,211,212
 525 244 525 244 524 241 c 0,213,214
 524 241 524 241 520 237 c 0,215,216
 518 235 518 235 513 235 c 2,217,-1
 463 235 l 2,218,219
 458 235 458 235 456 236 c 128,-1,220
 454 237 454 237 452 239 c 0,221,222
 451 240 451 240 450 242 c 0,223,224
 449 243 449 243 449 247 c 0,225,226
 448 250 448 250 448 252 c 128,-1,227
 448 254 448 254 448 259 c 128,-1,228
 448 264 448 264 448 266 c 128,-1,229
 448 268 448 268 448 273 c 128,-1,230
 448 278 448 278 448 280 c 0,231,232
 448 285 448 285 448 285 c 0,233,234
 449 290 449 290 450 291 c 128,-1,235
 451 292 451 292 452 294 c 0,236,237
 455 297 455 297 457 297 c 128,-1,238
 459 297 459 297 463 297 c 2,239,-1
 513 297 l 2,201,202
504 246 m 2,240,241
 514 246 514 246 514 262 c 0,242,243
 514 270 514 270 510 273 c 0,244,245
 505 277 505 277 500 277 c 2,246,-1
 474 277 l 2,247,248
 468 277 468 277 464 273 c 0,249,250
 459 268 459 268 459 262 c 0,251,252
 459 246 459 246 469 246 c 2,253,-1
 504 246 l 2,240,241
521 460 m 0,254,255
 524 453 524 453 529 320 c 0,256,257
 529.053097345 318 529.053097345 318 513 318 c 0,258,259
 500 318 500 318 486 318 c 0,260,261
 458 318 458 318 458 318 c 0,262,263
 445 317 445 317 442 320 c 0,264,265
 440 322 440 322 440 339.5 c 128,-1,266
 440 357 440 357 442 390 c 0,267,268
 446 456 446 456 450 460 c 0,269,270
 451 461 451 461 471 461 c 0,271,272
 486 461 486 461 500 461 c 0,273,274
 520.555555556 461 520.555555556 461 521 460 c 0,254,255
509 331 m 2,275,276
 517 331 517 331 517 344 c 128,-1,277
 517 357 517 357 509 357 c 2,278,-1
 484 357 l 2,279,280
 477 357 477 357 477 344 c 128,-1,281
 477 331 477 331 484 331 c 2,282,-1
 509 331 l 2,275,276
332 454 m 0,283,284
 340 454 340 454 342 451 c 0,285,286
 345 447 345 447 345 442 c 2,287,-1
 345 382 l 2,288,289
 345 378 345 378 341 373 c 0,290,291
 338 369 338 369 333 369 c 0,292,293
 326 369 326 369 323 373 c 128,-1,294
 320 377 320 377 320 382 c 2,295,-1
 320 442 l 2,296,297
 320 447 320 447 323.5 450.5 c 128,-1,298
 327 454 327 454 332 454 c 0,283,284
367 454 m 0,299,300
 373 454 373 454 376 451 c 0,301,302
 380 447 380 447 380 442 c 2,303,-1
 380 382 l 2,304,305
 380 377 380 377 376 373 c 128,-1,306
 372 369 372 369 367 369 c 128,-1,307
 362 369 362 369 358 373 c 128,-1,308
 354 377 354 377 354 382 c 2,309,-1
 354 442 l 2,310,311
 354 447 354 447 358 450.5 c 128,-1,312
 362 454 362 454 367 454 c 0,299,300
368 266 m 2,313,314
 375 266 375 266 380 261 c 128,-1,315
 385 256 385 256 385 249 c 0,316,317
 385 241 385 241 380 237 c 128,-1,318
 375 233 375 233 368 233 c 2,319,-1
 340 233 l 2,320,321
 334 233 334 233 328 238 c 0,322,323
 323 242 323 242 323 249 c 128,-1,324
 323 256 323 256 328 261 c 128,-1,325
 333 266 333 266 340 266 c 2,326,-1
 368 266 l 2,313,314
408 262 m 0,327,328
 411 262 411 262 416 258 c 0,329,330
 420 255 420 255 420 250 c 0,331,332
 420 246 420 246 416 242 c 0,333,334
 413 239 413 239 408 239 c 0,335,336
 404 239 404 239 400 242 c 128,-1,337
 396 245 396 245 396 250 c 128,-1,338
 396 255 396 255 399.5 258.5 c 128,-1,339
 403 262 403 262 408 262 c 0,327,328
682 400 m 128,-1,341
 688 400 688 400 692 396 c 128,-1,342
 696 392 696 392 696 386 c 128,-1,343
 696 380 696 380 692 376 c 128,-1,344
 688 372 688 372 682 372 c 0,345,346
 677 372 677 372 672 376 c 128,-1,347
 667 380 667 380 667 386 c 128,-1,348
 667 392 667 392 671.5 396 c 128,-1,340
 676 400 676 400 682 400 c 128,-1,341
682 551 m 0,349,350
 699 551 699 551 708 541 c 0,351,352
 718 530 718 530 718 515 c 128,-1,353
 718 500 718 500 707 489 c 0,354,355
 697 479 697 479 682 479 c 0,356,357
 668 479 668 479 656 490 c 0,358,359
 645 500 645 500 645 515 c 128,-1,360
 645 530 645 530 656 540.5 c 128,-1,361
 667 551 667 551 682 551 c 0,349,350
726 441 m 0,362,363
 726 440 726 440 727 433 c 0,364,365
 727 427 727 427 728 419 c 0,366,367
 728 411 728 411 728 409 c 2,368,-1
 742 218 l 1,369,370
 711 414 711 414 707 419 c 0,371,372
 701 427 701 427 697 427 c 2,373,-1
 666 427 l 2,374,375
 665 427 665 427 657 419 c 0,376,377
 656 418 656 418 646 367 c 0,378,379
 638 325 638 325 629 267 c 2,380,-1
 621 218 l 1,381,382
 635 404 635 404 635 409 c 0,383,384
 635 411 635 411 636 419 c 0,385,386
 636 427 636 427 637 434 c 0,387,388
 637 441 637 441 637 441 c 0,389,390
 639 449 639 449 647 454 c 0,391,392
 658 461 658 461 664 461 c 2,393,-1
 700 461 l 2,394,395
 707 461 707 461 716.5 454 c 128,-1,396
 726 447 726 447 726 441 c 0,362,363
EndSplineSet
Validated: 1
EndChar

StartChar: H
Encoding: 72 72 21
Width: 1024
GlyphClass: 2
LayerCount: 2
Fore
SplineSet
426 522 m 0,0,1
 428 520 428 520 429 514 c 0,2,3
 430 510 430 510 432 506 c 0,4,5
 433 504 433 504 428 500 c 2,6,-1
 420 489 l 2,7,8
 418 486 418 486 416 490 c 2,9,-1
 414 493 l 1,10,-1
 410 500 l 2,11,12
 407 505 407 505 406 506 c 0,13,14
 404 507 404 507 404 508 c 0,15,16
 405 509 405 509 402 512 c 0,17,18
 400 514 400 514 403 514 c 128,-1,19
 406 514 406 514 406 516 c 0,20,21
 406 517 406 517 411 520 c 0,22,23
 414 522 414 522 417 526 c 2,24,-1
 418 527 l 1,25,-1
 419 527 l 2,26,27
 421 527 421 527 422 528 c 128,-1,28
 423 529 423 529 425 529 c 1,29,30
 424 525 424 525 426 522 c 0,0,1
660 74 m 1,31,32
 665 75 665 75 670 77 c 0,33,34
 675 78 675 78 680 80 c 1,35,-1
 689 66 l 1,36,37
 686 65 686 65 679 65 c 0,38,39
 676 65 676 65 669 68 c 0,40,41
 663 70 663 70 660 74 c 1,31,32
580 396 m 1,42,-1
 582 394 l 2,43,44
 581 392 581 392 581 388 c 0,45,46
 580 385 580 385 580 381 c 0,47,48
 580 381 580 381 580 370 c 0,49,50
 580 368 580 368 581 366 c 0,51,52
 580 365 580 365 580 364 c 0,53,54
 580 364 580 364 579 364 c 2,55,-1
 578 362 l 1,56,-1
 576 360 l 1,57,-1
 576 358 l 1,58,-1
 572 360 l 1,59,-1
 572 365 l 2,60,61
 570 369 570 369 572 371 c 0,62,63
 576 374 576 374 576 383 c 2,64,-1
 576 387 l 2,65,66
 577 390 577 390 578 392 c 2,67,-1
 580 396 l 1,42,-1
695 88 m 1,68,69
 696 89 696 89 701 93 c 0,70,71
 701 94 701 94 707 100 c 0,72,73
 709 102 709 102 711 106 c 1,74,75
 711 96 711 96 711 96 c 0,76,77
 710 88 710 88 710 87 c 0,78,79
 709 82 709 82 706 78 c 1,80,-1
 695 88 l 1,68,69
511 727.59375 m 0,81,82
 570 727.59375 570 727.59375 623 712 c 0,83,84
 675 697 675 697 723 669 c 0,85,86
 770 642 770 642 809 603 c 0,87,88
 846 566 846 566 875 517 c 0,89,90
 905 466 905 466 918 417 c 0,91,92
 932 363 932 363 932 305 c 0,93,94
 932 252 932 252 917 194 c 0,95,96
 904 143 904 143 875 93 c 0,97,98
 848 46 848 46 809 7 c 128,-1,99
 770 -32 770 -32 723 -59 c 0,100,101
 679 -85 679 -85 623 -101 c 0,102,103
 569 -117 569 -117 511 -117 c 0,104,105
 450 -117 450 -117 400 -102 c 0,106,107
 349 -87 349 -87 300 -59 c 0,108,109
 252 -32 252 -32 213 7 c 128,-1,110
 174 46 174 46 147 93 c 0,111,112
 123 135 123 135 105 194 c 0,113,114
 89 247 89 247 89 305 c 0,115,116
 89 365 89 365 104 416 c 0,117,118
 120 470 120 470 147 517 c 128,-1,119
 174 564 174 564 213 603 c 128,-1,120
 252 642 252 642 299 669 c 0,121,122
 347 697 347 697 400 712.296875 c 128,-1,123
 453 727.59375 453 727.59375 511 727.59375 c 0,81,82
735 83 m 0,124,125
 741 86 741 86 741 89 c 0,126,127
 741 90 741 90 739 93 c 128,-1,128
 737 96 737 96 735 98 c 0,129,130
 732 102 732 102 728 106 c 0,131,132
 724 111 724 111 719 117 c 1,133,-1
 719 120 l 2,134,135
 719 122 719 122 718 124 c 2,136,-1
 716 127 l 1,137,-1
 722 139 l 1,138,-1
 722 154 l 1,139,-1
 718 159 l 1,140,-1
 715 160 l 1,141,-1
 715 158 l 1,142,-1
 711 162 l 1,143,-1
 709 163 l 1,144,-1
 707 160 l 1,145,-1
 622 256 l 1,146,-1
 625 266 l 1,147,-1
 614 285 l 1,148,-1
 605 287 l 1,149,-1
 602 284 l 1,150,-1
 601 285 l 1,151,-1
 601 290 l 1,152,153
 602 290 602 290 605 292 c 2,154,-1
 611 292 l 2,155,156
 614 294 614 294 618 294 c 2,157,-1
 620 294 l 1,158,-1
 622 296 l 1,159,-1
 624 296 l 1,160,161
 624 294 624 294 625 294 c 128,-1,162
 626 294 626 294 628 295 c 2,163,-1
 632 297 l 2,164,165
 634 298 634 298 635 300 c 2,166,-1
 639 300 l 2,167,168
 641 300 641 300 641 302 c 0,169,170
 641 303 641 303 646 305 c 0,171,172
 649 306 649 306 651 307 c 0,173,174
 652 307 652 307 652 308 c 0,175,176
 653 308 653 308 654 308 c 2,177,-1
 655 310 l 2,178,179
 655 310 655 310 656 311 c 128,-1,180
 657 312 657 312 657 314 c 2,181,-1
 661 324 l 2,182,183
 662 327 662 327 666 338 c 0,184,185
 667 341 667 341 666 343 c 0,186,187
 664 347 664 347 664 348 c 0,188,189
 664 352 664 352 662 354 c 0,190,191
 659 357 659 357 664 362 c 2,192,-1
 664 363 l 1,193,-1
 664 364 l 1,194,-1
 664 366 l 1,195,-1
 664 368 l 2,196,197
 664 372 664 372 665 379 c 2,198,-1
 665 386 l 2,199,200
 663 396 663 396 663 396 c 0,201,202
 662 400 662 400 662 404 c 0,203,204
 662 406 662 406 662 408 c 2,205,-1
 662 410 l 1,206,-1
 664 418 l 1,207,-1
 664 422 l 2,208,209
 662 427 662 427 662 429 c 0,210,211
 662 432 662 432 663 437 c 128,-1,212
 664 442 664 442 664 446 c 0,213,214
 665 449 665 449 665 451 c 0,215,216
 666 454 666 454 666 456 c 2,217,-1
 666 468 l 1,218,-1
 666 470 l 2,219,220
 666 471 666 471 667 474 c 128,-1,221
 668 477 668 477 668 478 c 2,222,-1
 668 483 l 1,223,-1
 668 491 l 2,224,225
 668 498 668 498 665 508 c 0,226,227
 661 521 661 521 656 528 c 0,228,229
 653 532 653 532 653 534 c 2,230,-1
 649 538 l 2,231,232
 647 540 647 540 646 542 c 0,233,234
 635 549 635 549 635 551 c 128,-1,235
 635 553 635 553 635 553 c 0,236,237
 634 554 634 554 632 555 c 0,238,239
 626 560 626 560 626 562 c 0,240,241
 626 562 626 562 624 564 c 0,242,243
 623 565 623 565 621 566 c 2,244,-1
 620 568 l 1,245,-1
 618 568 l 1,246,247
 618 569 618 569 617 570 c 2,248,-1
 614 577 l 2,249,250
 612 581 612 581 609 583 c 1,251,252
 610 585 610 585 610 586 c 0,253,254
 612 588 612 588 609 597 c 0,255,256
 607 602 607 602 607 602 c 2,257,-1
 607 607 l 1,258,-1
 607 614 l 1,259,-1
 607 620 l 1,260,-1
 607 629 l 2,261,262
 607 631 607 631 605 639 c 0,263,264
 604 643 604 643 602 645 c 0,265,266
 602 645 602 645 597 650 c 0,267,268
 594 653 594 653 592 653 c 0,269,270
 589 653 589 653 587 655 c 2,271,-1
 584 656 l 2,272,273
 584 656 584 656 581 659 c 0,274,275
 580 660 580 660 580 662 c 128,-1,276
 580 664 580 664 579 664 c 0,277,278
 577 664 577 664 577 666 c 128,-1,279
 577 668 577 668 574 669 c 128,-1,280
 571 670 571 670 570 672 c 0,281,282
 570 672 570 672 557 680 c 0,283,284
 553 683 553 683 543 683 c 0,285,286
 533 683.5 533 683.5 526 683.5 c 128,-1,287
 519 683.5 519 683.5 513 682 c 0,288,289
 504 680 504 680 501 678 c 0,290,291
 496 677 496 677 494 675 c 0,292,293
 491 672 491 672 488 671 c 0,294,295
 481 669 481 669 481 669 c 0,296,297
 481 668 481 668 478 668 c 0,298,299
 472 669 472 669 475 649 c 0,300,301
 475 644 475 644 475 644 c 0,302,303
 474 641 474 641 474 639 c 1,304,-1
 472 639 l 1,305,-1
 470 639 l 1,306,-1
 464 639 l 1,307,-1
 460 639 l 1,308,-1
 458 638 l 2,309,310
 454 636 454 636 450 634 c 0,311,312
 447 633 447 633 443 632 c 2,313,-1
 443 631 l 2,314,315
 441 629 441 629 439 629 c 0,316,317
 436 629 436 629 427 625 c 2,318,-1
 418 620 l 2,319,320
 410 614 410 614 410 614 c 0,321,322
 406 610 406 610 403 604 c 1,323,-1
 402 604 l 1,324,-1
 402 603 l 2,325,326
 402 602 402 602 400 602 c 0,327,328
 399 602 399 602 398 601 c 128,-1,329
 397 600 397 600 395 600 c 2,330,-1
 395 599 l 1,331,-1
 391 597 l 1,332,-1
 387 593 l 1,333,-1
 384 592 l 2,334,335
 380 591 380 591 377 589 c 128,-1,336
 374 587 374 587 372 585 c 2,337,-1
 364 577 l 2,338,339
 359 571 359 571 358 567 c 0,340,341
 358 566 358 566 352 560 c 0,342,343
 350 558 350 558 349 556 c 0,344,345
 347 552 347 552 347 552 c 0,346,347
 346 551 346 551 344 548 c 0,348,349
 343 546 343 546 341 544 c 0,350,351
 341 544 341 544 339 537 c 0,352,353
 338 534 338 534 337 533 c 0,354,355
 334 531 334 531 330 531 c 0,356,357
 329 531 329 531 329 528 c 0,358,359
 329 524 329 524 329 524 c 0,360,361
 330 522 330 522 330 520 c 0,362,363
 332 515 332 515 333 513 c 0,364,365
 334 509 334 509 337 505 c 0,366,367
 339 499 339 499 341 495 c 0,368,369
 343 488 343 488 347 485 c 2,370,-1
 350 481 l 2,371,372
 350 477 350 477 351 474 c 2,373,-1
 356 471 l 2,374,375
 358 469 358 469 360 468 c 0,376,377
 364 466 364 466 366 464 c 2,378,-1
 368 462 l 1,379,-1
 370 461 l 2,380,381
 372 460 372 460 375 458 c 2,382,-1
 380 457 l 2,383,384
 389 454 389 454 389 453 c 0,385,386
 389 453 389 453 388 450 c 0,387,388
 388 449 388 449 387 448 c 128,-1,389
 386 447 386 447 376 435 c 0,390,391
 368 426 368 426 367 424 c 0,392,393
 364 420 364 420 362 415 c 0,394,395
 358 410 358 410 356 406 c 128,-1,396
 354 402 354 402 356 398 c 128,-1,397
 358 394 358 394 360 390 c 128,-1,398
 362 386 362 386 364 380 c 0,399,400
 365 378 365 378 366 377 c 0,401,402
 368 375 368 375 368 374 c 0,403,404
 371 371 371 371 370 370 c 0,405,406
 369 368 369 368 369 366 c 0,407,408
 368 364 368 364 368 362 c 0,409,410
 368 361 368 361 363 356 c 2,411,-1
 356 350 l 1,412,-1
 354 348 l 2,413,414
 354 346 354 346 353 343 c 0,415,416
 353 341 353 341 352 340 c 0,417,418
 349 337 349 337 348 334 c 0,419,420
 346 329 346 329 344 327 c 0,421,422
 343 326 343 326 343 323 c 2,423,-1
 343 316 l 2,424,425
 343 309 343 309 342 308 c 0,426,427
 339 304 339 304 339 302 c 2,428,-1
 339 297 l 2,429,430
 339 288 339 288 337 286 c 128,-1,431
 335 284 335 284 334 284 c 0,432,433
 333 283 333 283 334 281 c 2,434,-1
 334 274 l 2,435,436
 333 268 333 268 334 267 c 0,437,438
 337 264 337 264 337 260 c 0,439,440
 337 260 337 260 334 257 c 0,441,442
 330 253 330 253 326 250 c 0,443,444
 322 246 322 246 318 242 c 1,445,-1
 320 240 l 2,446,447
 322 238 322 238 320 236 c 2,448,-1
 318 234 l 2,449,450
 314 231 314 231 314 231 c 0,451,452
 310 218 310 218 306 212 c 0,453,454
 304 209 304 209 305 207 c 0,455,456
 304 206 304 206 304 204 c 2,457,-1
 304 200 l 1,458,459
 305 200 305 200 305 198 c 2,460,-1
 305 191 l 2,461,462
 306 188 306 188 306 184 c 2,463,-1
 306 182 l 2,464,465
 308 178 308 178 308 175 c 0,466,467
 308 170 308 170 310 166 c 0,468,469
 310 164 310 164 312 162 c 2,470,-1
 315 162 l 2,471,472
 321 160 321 160 327 162 c 128,-1,473
 333 164 333 164 338 167 c 2,474,-1
 346 173 l 2,475,476
 348 174 348 174 350 177 c 128,-1,477
 352 180 352 180 355 182 c 2,478,-1
 356 182 l 2,479,480
 358 182 358 182 359 185 c 0,481,482
 360 191 360 191 361 192 c 0,483,484
 362 194 362 194 363 198 c 0,485,486
 364 200 364 200 365 204 c 0,487,488
 365 204 365 204 368 210 c 0,489,490
 369 212 369 212 370 212 c 2,491,-1
 371 213 l 1,492,-1
 372 214 l 2,493,494
 374 218 374 218 376 223 c 128,-1,495
 378 228 378 228 378 232 c 0,496,497
 378 233 378 233 381 236 c 0,498,499
 383 238 383 238 389 239 c 0,500,501
 391 241 391 241 391 241 c 0,502,503
 393 241 393 241 395 242 c 0,504,505
 399 242 399 242 399 245 c 128,-1,506
 399 248 399 248 402 249 c 0,507,508
 404 250 404 250 407 250 c 0,509,510
 415 250 415 250 418 254 c 2,511,-1
 422 256 l 1,512,-1
 425 260 l 1,513,514
 434 264 434 264 439 270 c 1,515,-1
 439 271 l 2,516,517
 440 272 440 272 440 273 c 1,518,519
 441 273 441 273 441 272 c 0,520,521
 441 272 441 272 442 272 c 1,522,523
 441 270 441 270 441 268 c 128,-1,524
 441 266 441 266 437 257 c 2,525,-1
 432 248 l 2,526,527
 428 240 428 240 426 232 c 2,528,-1
 426 229 l 1,529,-1
 425 227 l 2,530,531
 424 223 424 223 424 219 c 0,532,533
 423 215 423 215 423 211 c 0,534,535
 422 208 422 208 421 204 c 2,536,-1
 420 203 l 2,537,538
 418 201 418 201 418 200 c 0,539,540
 418 198 418 198 414 198 c 0,541,542
 413 198 413 198 413 192 c 0,543,544
 413 191 413 191 414 190 c 0,545,546
 414 188 414 188 414 187 c 1,547,548
 412 188 412 188 410 184 c 128,-1,549
 408 180 408 180 408 179 c 2,550,-1
 408 178 l 1,551,-1
 408 177 l 1,552,-1
 406 177 l 2,553,554
 405 177 405 177 404 179 c 0,555,556
 402 179 402 179 401 176 c 0,557,558
 400 175 400 175 400 173 c 0,559,560
 399 168 399 168 399 164 c 2,561,-1
 399 162 l 1,562,-1
 399 159 l 2,563,564
 399 158 399 158 397 157 c 2,565,-1
 397 156 l 1,566,-1
 395 154 l 1,567,-1
 395 152 l 2,568,569
 395 150 395 150 393 150 c 0,570,571
 389 150 389 150 389 145 c 2,572,-1
 384 138 l 2,573,574
 382 136 382 136 380 132 c 0,575,576
 378 130 378 130 379 127 c 0,577,578
 381 122 381 122 373 114 c 0,579,580
 371 112 371 112 371 112 c 0,581,582
 370 112 370 112 370 110 c 128,-1,583
 370 108 370 108 369 108 c 2,584,-1
 368 108 l 1,585,-1
 364 104 l 2,586,587
 362 101 362 101 359 98 c 0,588,589
 356 94 356 94 354 91 c 2,590,-1
 354 90 l 2,591,592
 354 90 354 90 353 88 c 2,593,-1
 354 87 l 2,594,595
 354 85 354 85 351 82 c 2,596,-1
 348 80 l 2,597,598
 345 80 345 80 341 76 c 0,599,600
 340 75 340 75 339 70 c 0,601,602
 338 62 338 62 338 60 c 0,603,604
 336 56 336 56 335 51 c 0,605,606
 334 48 334 48 333 48 c 128,-1,607
 332 48 332 48 328 44 c 0,608,609
 326 42 326 42 326 38 c 0,610,611
 324 34 324 34 324 32 c 1,612,-1
 326 32 l 2,613,614
 328 31 328 31 328 28 c 0,615,616
 328 23 328 23 327 19 c 128,-1,617
 326 15 326 15 324 11 c 128,-1,618
 322 7 322 7 322 4 c 0,619,620
 320 4 320 4 320 0 c 2,621,-1
 316 -10 l 2,622,623
 315 -11 315 -11 314 -15 c 128,-1,624
 313 -19 313 -19 314 -22 c 2,625,-1
 314 -27 l 1,626,-1
 314 -34 l 1,627,-1
 314 -36 l 2,628,629
 314 -37 314 -37 316 -38 c 0,630,631
 320 -40 320 -40 325 -43 c 0,632,633
 332 -46 332 -46 337 -48 c 0,634,635
 346 -53 346 -53 348 -54 c 2,636,-1
 353 -56 l 2,637,638
 356 -58 356 -58 360 -57 c 0,639,640
 360 -56 360 -56 362 -56 c 2,641,-1
 368 -56 l 2,642,643
 370 -56 370 -56 374 -54 c 2,644,-1
 375 -54 l 1,645,-1
 376 -54 l 1,646,-1
 378 -54 l 2,647,648
 384 -52 384 -52 389 -48 c 2,649,-1
 397 -40 l 2,650,651
 398 -40 398 -40 398 -38 c 2,652,-1
 398 -34 l 2,653,654
 398 -32 398 -32 397 -31 c 2,655,-1
 399 -29 l 1,656,-1
 399 -27 l 2,657,658
 397 -22 397 -22 395 -18 c 0,659,660
 393 -10 393 -10 393 -10 c 0,661,662
 391 -7 391 -7 391 -6 c 1,663,664
 389 -6 389 -6 389 -4 c 2,665,-1
 389 0 l 1,666,-1
 389 10 l 1,667,-1
 389 12 l 1,668,-1
 390 12 l 1,669,670
 390 17 390 17 390 17 c 0,671,672
 391 20 391 20 392 22 c 0,673,674
 390 24 390 24 391 26 c 128,-1,675
 392 28 392 28 393 29 c 0,676,677
 394 33 394 33 395 35 c 0,678,679
 395 36 395 36 396 37 c 128,-1,680
 397 38 397 38 397 42 c 2,681,-1
 397 45 l 1,682,-1
 397 47 l 2,683,684
 397 49 397 49 398 51 c 2,685,-1
 400 53 l 2,686,687
 400 54 400 54 401 54 c 0,688,689
 403 58 403 58 406 58 c 0,690,691
 407 58 407 58 408 59 c 0,692,693
 408 59 408 59 412 63 c 0,694,695
 414 65 414 65 416 68 c 0,696,697
 419 70 419 70 419 74 c 0,698,699
 419 80 419 80 423 81 c 0,700,701
 428 83 428 83 428 84 c 0,702,703
 428 86 428 86 432 86 c 128,-1,704
 436 86 436 86 436 86 c 0,705,706
 439 87 439 87 441 88 c 2,707,-1
 447 94 l 2,708,709
 453 97 453 97 451 100 c 0,710,711
 450 102 450 102 455 106 c 0,712,713
 455 107 455 107 456 108 c 2,714,-1
 458 108 l 2,715,716
 460 110 460 110 460 112 c 2,717,-1
 463 114 l 2,718,719
 463 114 463 114 466 116 c 0,720,721
 470 119 470 119 469 122 c 2,722,-1
 468 127 l 2,723,724
 468 130 468 130 471 130 c 2,725,-1
 477 134 l 2,726,727
 478 134 478 134 480 135 c 128,-1,728
 482 136 482 136 487 136 c 2,729,-1
 493 142 l 2,730,731
 495 144 495 144 495 148 c 1,732,733
 496 148 496 148 496 150 c 0,734,735
 497 151 497 151 497 152 c 2,736,-1
 499 154 l 1,737,-1
 499 156 l 2,738,739
 501 158 501 158 501 158 c 0,740,741
 503 159 503 159 503 160 c 2,742,-1
 510 172 l 2,743,744
 518 184 518 184 518 184 c 0,745,746
 519 185 519 185 520 187 c 0,747,748
 521 188 521 188 522 188 c 2,749,-1
 524 192 l 2,750,751
 526 194 526 194 526 195 c 128,-1,752
 526 196 526 196 526 198 c 1,753,754
 526 194 526 194 529 190 c 128,-1,755
 532 186 532 186 542 180 c 0,756,757
 544 174 544 174 545 172 c 0,758,759
 547 168 547 168 552 164 c 128,-1,760
 557 160 557 160 563 157 c 2,761,-1
 607 108 l 1,762,763
 607 96 607 96 610 90 c 128,-1,764
 613 84 613 84 622 75 c 0,765,766
 629 68 629 68 646 61 c 1,767,-1
 668 36 l 2,768,769
 669 35 669 35 670 35 c 0,770,771
 673 35 673 35 673 35 c 0,772,773
 674 34 674 34 676 36 c 0,774,775
 680 40 680 40 680 41 c 2,776,-1
 680 45 l 1,777,-1
 674 52 l 1,778,779
 678 51 678 51 682 51 c 0,780,781
 691 51 691 51 691 51 c 0,782,783
 695 52 695 52 699 54 c 1,784,-1
 710 44 l 1,785,-1
 713 44 l 2,786,787
 716 44 716 44 718 46 c 128,-1,788
 720 48 720 48 720 50 c 1,789,790
 722 50 722 50 721 52 c 128,-1,791
 720 54 720 54 720 56 c 2,792,-1
 714 66 l 1,793,-1
 717 74 l 2,794,795
 720 80 720 80 720 81 c 0,796,797
 720 84 720 84 720 88 c 1,798,-1
 725 83 l 2,799,800
 726 83 726 83 728 82 c 0,801,802
 731 81 731 81 735 83 c 0,124,125
EndSplineSet
Validated: 1
EndChar

StartChar: I
Encoding: 73 73 22
Width: 1024
GlyphClass: 2
LayerCount: 2
Fore
SplineSet
512 727.59375 m 0,0,1
 624 727.59375 624 727.59375 723 671 c 0,2,3
 817 617 817 617 876 518 c 0,4,5
 933 421 933 421 933 307 c 0,6,7
 933 194 933 194 876 95 c 0,8,9
 821 -0 821 -0 723 -58 c 0,10,11
 626 -115 626 -115 512 -115 c 0,12,13
 399 -115 399 -115 300 -58 c 0,14,15
 205 -3 205 -3 147 95 c 0,16,17
 90 192 90 192 90 306 c 0,18,19
 90 419 90 419 147 518 c 128,-1,21
 204 617 204 617 300 672 c 0,22,23
 397 727.59375 397 727.59375 512 727.59375 c 0,0,1
244 590 m 128,-1,25
 231 575 231 575 226 570 c 0,26,27
 216 560 216 560 210 553 c 2,28,-1
 205 547 l 1,29,-1
 513 241 l 1,30,-1
 819 544 l 1,31,32
 807 561 807 561 782 586 c 0,33,34
 767 601 767 601 759 607 c 0,35,36
 740 621 740 621 739 622 c 2,37,-1
 732 626 l 1,38,-1
 513 410 l 1,39,-1
 292 628 l 1,40,41
 257 605 257 605 244 590 c 128,-1,25
713 258 m 1,42,-1
 881 428 l 1,43,44
 877 442 877 442 868 462 c 2,45,-1
 848 501 l 1,46,-1
 513 167 l 1,47,-1
 176 504 l 1,48,49
 168 494 168 494 156 466 c 2,50,-1
 142 431 l 1,51,-1
 313 258 l 1,52,-1
 313 197 l 1,53,-1
 513 0 l 1,54,-1
 713 197 l 1,55,-1
 713 258 l 1,42,-1
513 46 m 1024,56,-1
513 46 m 1,57,-1
 432 132 l 1,58,-1
 594 132 l 1,59,-1
 513 46 l 1,57,-1
866 462 m 1024,60,-1
EndSplineSet
Validated: 1
EndChar

StartChar: L
Encoding: 76 76 23
Width: 1024
GlyphClass: 2
Flags: W
LayerCount: 2
Fore
SplineSet
925 407 m 128,-1,1
 941 352 941 352 941 294 c 128,-1,2
 941 236 941 236 925 180.5 c 128,-1,3
 909 125 909 125 881 77.5 c 128,-1,4
 853 30 853 30 814.5 -9 c 128,-1,5
 776 -48 776 -48 727.5 -76 c 128,-1,6
 679 -104 679 -104 625 -119.5 c 128,-1,7
 571 -135 571 -135 512.5 -135 c 128,-1,8
 454 -135 454 -135 398.5 -119.5 c 128,-1,9
 343 -104 343 -104 296 -76 c 128,-1,10
 249 -48 249 -48 209.5 -9 c 128,-1,11
 170 30 170 30 142 77.5 c 128,-1,12
 114 125 114 125 99 179 c 0,13,14
 84 236 84 236 84 294 c 128,-1,15
 84 352 84 352 99 407 c 128,-1,16
 114 462 114 462 142 509.5 c 128,-1,17
 170 557 170 557 209.5 596.5 c 128,-1,18
 249 636 249 636 296 663.5 c 128,-1,19
 343 691 343 691 398 706.5 c 128,-1,20
 453 722 453 722 512 722 c 0,21,22
 570 722 570 722 624.5 706.5 c 128,-1,23
 679 691 679 691 727.5 663.5 c 128,-1,24
 776 636 776 636 814.5 596.5 c 128,-1,25
 853 557 853 557 881 509.5 c 128,-1,0
 909 462 909 462 925 407 c 128,-1,1
591 596 m 0,26,27
 588 594 588 594 572 585 c 1,28,29
 572 576 572 576 580 566 c 0,30,31
 584 560 584 560 593 549 c 128,-1,32
 602 538 602 538 604 534 c 0,33,34
 612 524 612 524 616 523.5 c 128,-1,35
 620 523 620 523 630 532 c 0,36,37
 631 533 631 533 632 534 c 0,38,39
 632 535 632 535 632 539 c 1,40,41
 629 539 629 539 624 540 c 128,-1,42
 619 541 619 541 617 541 c 0,43,44
 612 546 612 546 613 555 c 0,45,46
 613 567 613 567 604 570 c 0,47,48
 588 576 588 576 597 591 c 0,49,50
 598 592 598 592 595 596 c 0,51,52
 594 596 594 596 593 596 c 128,-1,53
 592 596 592 596 591 596 c 0,26,27
511 670 m 1,54,55
 511 670 511 670 507 666 c 1,56,57
 549 608 549 608 561 595 c 1,58,59
 563 596 563 596 568 605 c 0,60,61
 569.5 608 569.5 608 569.75 620.5 c 128,-1,62
 570 633 570 633 570 640 c 0,63,64
 570 662 570 662 548 668 c 0,65,66
 540 670 540 670 511 670 c 1,54,55
334 463 m 0,67,68
 343.866666667 464.066666667 343.866666667 464.066666667 353.662222222 464.066666667 c 0,69,70
 380.6 464.066666667 380.6 464.066666667 407 456 c 0,71,72
 420 452 420 452 431 443 c 0,73,74
 480 407 480 407 480 392 c 0,75,76
 480 391 480 391 483 382 c 1,77,78
 467 372 467 372 463 370 c 0,79,80
 461 369 461 369 462 365.5 c 128,-1,81
 463 362 463 362 466 362 c 0,82,83
 472 363 472 363 480 365 c 0,84,85
 485 366.315789474 485 366.315789474 489.72299169 366.315789474 c 0,86,87
 502.947368421 366.315789474 502.947368421 366.315789474 514 356 c 0,88,89
 534 337 534 337 534 312 c 0,90,91
 535 256 535 256 535 208 c 0,92,93
 538 175 538 175 538 125 c 0,94,95
 538 116 538 116 540 115 c 0,96,97
 546 112 546 112 556 112 c 0,98,99
 563 110 563 110 679 110 c 0,100,101
 685 110 685 110 688 112 c 0,102,103
 693 116 693 116 693 130 c 0,104,105
 693 214 693 214 694 222 c 0,106,107
 694.5 226 694.5 226 694.5 233.5 c 128,-1,108
 694.5 241 694.5 241 693.75 248 c 128,-1,109
 693 255 693 255 692 260 c 0,110,111
 690 267 690 267 682 301.5 c 0,112,113
 678 320 678 320 668 354 c 0,114,115
 660 382 660 382 640 422 c 0,116,117
 615 473 615 473 587 508 c 0,118,119
 569 531 569 531 529 586 c 0,120,121
 503 620 503 620 481 653 c 0,122,123
 473 665 473 665 460 668 c 0,124,125
 450 661 450 661 435 661 c 0,126,127
 434 661 434 661 428.5 657 c 128,-1,128
 423 653 423 653 420 651 c 0,129,130
 374 615 374 615 368 610 c 0,131,132
 361 604 361 604 351.5 596.5 c 128,-1,133
 342 589 342 589 332.5 581.5 c 128,-1,134
 323 574 323 574 316 567 c 0,135,136
 310 562 310 562 298.5 553 c 128,-1,137
 287 544 287 544 278 536 c 128,-1,138
 269 528 269 528 262 520 c 1,139,140
 255 518 255 518 253 504 c 0,141,142
 252 498 252 498 254 492.5 c 128,-1,143
 256 487 256 487 258.5 483 c 128,-1,144
 261 479 261 479 264 473 c 0,145,146
 264 463 264 463 268 463 c 0,147,148
 269 463 269 463 270 462 c 0,149,150
 286.434782609 453.47826087 286.434782609 453.47826087 299.534971645 453.47826087 c 0,151,152
 307.956521739 453.47826087 307.956521739 453.47826087 315 457 c 0,153,154
 327 463 327 463 334 463 c 0,67,68
443 378 m 0,155,156
 460 383 460 383 464 389 c 0,157,158
 464 394 464 394 463 394 c 0,159,160
 442 424 442 424 415 438 c 1,161,162
 415 438 415 438 406 440 c 1,163,164
 406 403 406 403 392 374 c 1,165,166
 400.625 371.75 400.625 371.75 409.953125 371.75 c 0,167,168
 425.5 371.75 425.5 371.75 443 378 c 0,155,156
513 -89 m 1,169,170
 528 -92 528 -92 554.5 -92 c 128,-1,171
 581 -92 581 -92 594 -86 c 1,172,173
 583 -79 583 -79 556 -72.5 c 128,-1,174
 529 -66 529 -66 518 -66 c 1,175,176
 514 -79 514 -79 513 -81 c 2,177,178
 513 -81 513 -81 513 -89 c 1,169,170
686 -46 m 0,179,180
 688.5 -42 688.5 -42 688.5 -36.5 c 0,181,182
 688 -31 688 -31 684 -28 c 256,183,184
 681 -26 681 -26 673 -25 c 0,185,186
 632 -22 632 -22 554 -22 c 0,187,188
 554 -22 554 -22 529 -22 c 1,189,190
 523 -38 523 -38 523 -39 c 0,191,192
 522 -46 522 -46 527 -49 c 0,193,194
 532 -51 532 -51 538 -53 c 0,195,196
 545 -55 545 -55 577 -63.5 c 128,-1,197
 609 -72 609 -72 626 -77 c 0,198,199
 630.333333333 -78.3333333333 630.333333333 -78.3333333333 636.111111111 -78.3333333333 c 0,200,201
 647.666666667 -78.3333333333 647.666666667 -78.3333333333 665 -73 c 0,202,203
 670 -71 670 -71 672 -67 c 0,204,205
 675 -58 675 -58 686 -46 c 0,179,180
757 50 m 0,206,207
 769 50 769 50 772.5 54.5 c 128,-1,208
 776 59 776 59 776 71 c 0,209,210
 776 78 776 78 768 80 c 0,211,212
 762 82 762 82 759 82 c 0,213,214
 681 84 681 84 655 84 c 0,215,216
 638 85 638 85 608.5 85 c 0,217,218
 602 85 602 85 570 86 c 128,-1,219
 538 87 538 87 501 87 c 0,220,221
 491 87 491 87 485 82 c 0,222,223
 475 74 475 74 467 78 c 0,224,225
 458 82 458 82 445 75 c 1,226,227
 437 78 437 78 436 86 c 0,228,229
 435 99 435 99 435 104 c 0,230,231
 435 143 435 143 419 194 c 0,232,233
 415 207 415 207 411 215 c 0,234,235
 408 220 408 220 402 221 c 0,236,237
 391 223 391 223 383 216 c 1,238,239
 392 192 392 192 393 188 c 0,240,241
 397 166 397 166 402 143 c 0,242,243
 403 137 403 137 405 107 c 0,244,245
 406 90 406 90 406 64 c 0,246,247
 406 12 406 12 408 10 c 0,248,249
 408 3 408 3 412 0 c 0,250,251
 414 -1 414 -1 419.5 -6 c 128,-1,252
 425 -11 425 -11 427.5 -12.5 c 128,-1,253
 430 -14 430 -14 435 -16.5 c 128,-1,254
 440 -19 440 -19 443.5 -20 c 128,-1,255
 447 -21 447 -21 452 -22 c 128,-1,256
 457 -23 457 -23 462 -23 c 0,257,258
 479 -21 479 -21 489 -32 c 1,259,260
 489 -32 489 -32 496 -34 c 1,261,262
 506 -27 506 -27 507 -27 c 0,263,264
 517 -20 517 -20 510 -9 c 0,265,266
 505 -1 505 -1 508 -0.5 c 0,267,268
 512 0 512 0 547 0 c 0,269,270
 556.142857143 -0.0357142857143 556.142857143 -0.0357142857143 566.591836735 -0.0357142857143 c 0,271,272
 574.428571429 -0.0357142857143 574.428571429 -0.0357142857143 583 -0.015625 c 0,273,274
 598 0.01953125 598 0.01953125 613.84375 0.01953125 c 0,275,276
 619.125 0.01953125 619.125 0.01953125 624.5 0.015625 c 0,277,278
 646 0 646 0 661 0 c 1,279,280
 661 0 661 0 690 0 c 0,281,282
 699 0 699 0 706 10 c 0,283,284
 709 14 709 14 711 23 c 0,285,286
 712 26 712 26 712 31 c 128,-1,287
 712 36 712 36 712 38 c 0,288,289
 713 43 713 43 714.5 45.5 c 128,-1,290
 716 48 716 48 718.5 49 c 128,-1,291
 721 50 721 50 725 50 c 0,292,293
 731 50 731 50 742.5 50 c 128,-1,294
 754 50 754 50 757 50 c 0,206,207
556 376 m 0,295,296
 551 379 551 379 549.5 386.5 c 0,297,298
 548 393 548 393 550.5 398.5 c 128,-1,299
 553 404 553 404 558 407 c 0,300,301
 572.7 416.8 572.7 416.8 588.38 416.8 c 0,302,303
 595.1 416.8 595.1 416.8 602 415 c 0,304,305
 617 411 617 411 625 404 c 0,306,307
 640 389 640 389 624 376 c 0,308,309
 609 364 609 364 588 364 c 0,310,311
 573 364 573 364 556 376 c 0,295,296
EndSplineSet
Validated: 1
EndChar

StartChar: M
Encoding: 77 77 24
Width: 1024
GlyphClass: 2
Flags: W
LayerCount: 2
Fore
SplineSet
390 325 m 0,0,1
 368 325 368 325 345 334 c 0,2,3
 330 340 330 340 320 349 c 0,4,5
 315 354 315 354 317 359 c 0,6,7
 320 367 320 367 329 364 c 0,8,9
 332 363 332 363 336 361 c 0,10,11
 370.708333333 348.958333333 370.708333333 348.958333333 399.395833333 348.958333333 c 0,12,13
 411.208333333 348.958333333 411.208333333 348.958333333 422 351 c 0,14,15
 433 353 433 353 448 359 c 0,16,17
 453 361 453 361 447 375 c 0,18,19
 444 384 444 384 440 395 c 128,-1,20
 436 406 436 406 432.5 417 c 128,-1,21
 429 428 429 428 426 436 c 0,22,23
 419 454 419 454 426 465 c 0,24,25
 429 470 429 470 433 469 c 1,26,27
 430 457 430 457 430.5 453.5 c 128,-1,28
 431 450 431 450 436 438 c 0,29,30
 439 430 439 430 443 420.5 c 128,-1,31
 447 411 447 411 450.5 402.5 c 128,-1,32
 454 394 454 394 458 385 c 128,-1,33
 462 376 462 376 465.5 367 c 128,-1,34
 469 358 469 358 473 349 c 1,35,36
 473 349 473 349 473 345 c 0,37,38
 469 342 469 342 469 342 c 1,39,40
 425 325 425 325 390 325 c 0,0,1
385 509 m 0,41,42
 348 500 348 500 331 500 c 0,43,44
 302 500 302 500 296 512 c 0,45,46
 294 516 294 516 294 530 c 0,47,48
 292 544 292 544 295 553 c 0,49,50
 296 557 296 557 306 570 c 0,51,52
 310 575 310 575 328 592 c 0,53,54
 336 599 336 599 372 619 c 0,55,56
 403 636 403 636 434 636 c 0,57,58
 450 636 450 636 467 628 c 0,59,60
 485.225 619.225 485.225 619.225 485.225 604.07125 c 0,61,62
 485.225 596.775 485.225 596.775 481 588 c 0,63,64
 469 560 469 560 440 539 c 0,65,66
 423 527 423 527 417 523 c 0,67,68
 401 513 401 513 385 509 c 0,41,42
523 371 m 0,69,70
 523 370 523 370 516 368 c 0,71,72
 515 370 515 370 512 375 c 128,-1,73
 509 380 509 380 508 383 c 0,74,75
 511 390 511 390 523 400 c 0,76,77
 546 420 546 420 565 449 c 0,78,79
 577 467 577 467 577 487 c 0,80,81
 577 496 577 496 578 498 c 0,82,83
 581 504 581 504 586 504 c 0,84,85
 591 505 591 505 594 498 c 0,86,87
 595.923076923 490.307692308 595.923076923 490.307692308 595.923076923 482.319526627 c 0,88,89
 595.923076923 469.538461538 595.923076923 469.538461538 591 456 c 0,90,91
 569 401 569 401 523 371 c 0,69,70
925.5 407 m 128,-1,93
 941 352 941 352 941 294 c 128,-1,94
 941 236 941 236 925.5 180.5 c 128,-1,95
 910 125 910 125 881.5 78 c 128,-1,96
 853 31 853 31 814.5 -8.5 c 128,-1,97
 776 -48 776 -48 727.5 -76 c 128,-1,98
 679 -104 679 -104 625 -119 c 128,-1,99
 571 -134 571 -134 512.5 -134 c 128,-1,100
 454 -134 454 -134 399 -119 c 0,101,102
 343 -104 343 -104 296 -76 c 256,103,104
 249 -48 249 -48 209.5 -8.5 c 128,-1,105
 170 31 170 31 142 78 c 128,-1,106
 114 125 114 125 99 179 c 0,107,108
 84 236 84 236 84 294 c 128,-1,109
 84 352 84 352 99 407 c 128,-1,110
 114 462 114 462 142 509.5 c 128,-1,111
 170 557 170 557 209.5 596.5 c 128,-1,112
 249 636 249 636 296 663.5 c 128,-1,113
 343 691 343 691 398 706.5 c 128,-1,114
 453 722 453 722 512 722 c 256,115,116
 571 722 571 722 625 706.5 c 128,-1,117
 679 691 679 691 727.5 663.5 c 128,-1,118
 776 636 776 636 814.5 596.5 c 128,-1,119
 853 557 853 557 881.5 509.5 c 128,-1,92
 910 462 910 462 925.5 407 c 128,-1,93
309 338 m 0,120,121
 309 338 309 338 323 317 c 0,122,123
 342 289 342 289 362 282 c 0,124,125
 390.115384615 270.884615385 390.115384615 270.884615385 419.513313609 270.884615385 c 0,126,127
 435.076923077 270.884615385 435.076923077 270.884615385 451 274 c 0,128,129
 510 285 510 285 552 317 c 0,130,131
 569 330 569 330 584 344 c 0,132,133
 598 358 598 358 611 382 c 0,134,135
 626.041666667 411.291666667 626.041666667 411.291666667 626.041666667 434.315972222 c 0,136,137
 626.041666667 440.375 626.041666667 440.375 625 446 c 0,138,139
 624 451 624 451 621 461 c 128,-1,140
 618 471 618 471 617 475 c 0,141,142
 611 500 611 500 588 521 c 0,143,144
 578 530 578 530 575 534 c 0,145,146
 571 539 571 539 564 548 c 0,147,148
 561 552 561 552 554 564 c 0,149,150
 543 583 543 583 538 586 c 0,151,152
 522 597 522 597 509 616 c 0,153,154
 491 642 491 642 467 648 c 0,155,156
 453.25 651.125 453.25 651.125 441.84375 651.125 c 0,157,158
 435 651.125 435 651.125 429 650 c 0,159,160
 394 644 394 644 361 629 c 0,161,162
 337 618 337 618 326 610 c 0,163,164
 322 606 322 606 318.5 603 c 128,-1,165
 315 600 315 600 310 596 c 0,166,167
 303 589 303 589 303 589 c 2,168,169
 302 588 302 588 290 575 c 0,170,171
 284 568 284 568 281.5 559 c 128,-1,172
 279 550 279 550 279 526 c 0,173,174
 279 494 279 494 280 486 c 0,175,176
 291 439 291 439 295 425 c 0,177,178
 309 380 309 380 309 338 c 0,120,121
338 252 m 0,179,180
 355 216 355 216 392 208 c 0,181,182
 421 202 421 202 451 202 c 0,183,184
 474 202 474 202 508 214 c 0,185,186
 576 238 576 238 611 274 c 0,187,188
 617 279 617 279 624 285 c 0,189,190
 655 311 655 311 667 356 c 0,191,192
 670.571428571 368.142857143 670.571428571 368.142857143 670.571428571 380.285714286 c 0,193,194
 670.571428571 402.142857143 670.571428571 402.142857143 659 424 c 0,195,196
 653 435 653 435 646 439 c 1,197,198
 646 411 646 411 646 409 c 0,199,200
 646 357 646 357 593 311 c 0,201,202
 563 285 563 285 546 276 c 0,203,204
 509 257 509 257 499 253 c 0,205,206
 468 242 468 242 434 242 c 0,207,208
 392 242 392 242 355 263 c 0,209,210
 340 271 340 271 334 284 c 0,211,212
 327 289 327 289 327 289 c 0,213,214
 327 275 327 275 338 252 c 0,179,180
387 176 m 0,215,216
 400 166 400 166 403 164 c 0,217,218
 435.64516129 148.387096774 435.64516129 148.387096774 468.290322581 148.387096774 c 0,219,220
 468.290322581 148.387096774 468.290322581 148.387096774 495 151 c 0,221,222
 527 157 527 157 562 170 c 0,223,224
 605 187 605 187 647 228 c 0,225,226
 676 256 676 256 688 297 c 0,227,228
 691 307 691 307 691 317 c 128,-1,229
 691 327 691 327 688 337 c 1,230,231
 683 331 683 331 676 317 c 0,232,233
 659 280 659 280 632 254 c 0,234,235
 620 242 620 242 608 234 c 0,236,237
 573 209 573 209 555 200 c 0,238,239
 505 175 505 175 459 175 c 0,240,241
 419 175 419 175 401 180 c 0,242,243
 390 183 390 183 386 181 c 0,244,245
 387 177 387 177 387 176 c 0,215,216
436 122 m 0,246,247
 442 116 442 116 442 116 c 2,248,249
 459 104 459 104 482 101 c 0,250,251
 492.571428571 99.8571428571 492.571428571 99.8571428571 503.224489796 99.8571428571 c 0,252,253
 529.857142857 99.8571428571 529.857142857 99.8571428571 557 107 c 0,254,255
 606 120 606 120 646 150 c 0,256,257
 692 185 692 185 707 236 c 0,258,259
 709.272727273 244.636363636 709.272727273 244.636363636 709.272727273 253.272727273 c 0,260,261
 709.272727273 263.636363636 709.272727273 263.636363636 706 274 c 1,262,263
 700 267 700 267 700 266 c 0,264,265
 697 257 697 257 678 228 c 0,266,267
 666 209 666 209 645 192 c 0,268,269
 614 166 614 166 588 154 c 0,270,271
 523 125 523 125 453 125 c 0,272,273
 444 125 444 125 441 126 c 0,274,275
 437 127 437 127 436 122 c 0,246,247
453 88 m 1,276,277
 458 79 458 79 468 74 c 0,278,279
 498 60 498 60 534 60 c 0,280,281
 562 60 562 60 592 70 c 0,282,283
 646 88 646 88 679 122 c 0,284,285
 715 160 715 160 723 203 c 0,286,287
 724 210 724 210 719 211 c 1,288,289
 715 206 715 206 715 206 c 2,290,291
 692 173 692 173 692 172 c 0,292,293
 672 146 672 146 637 123 c 0,294,295
 608 105 608 105 566 92 c 0,296,297
 534.043478261 82.2173913043 534.043478261 82.2173913043 503.36294896 82.2173913043 c 0,298,299
 487 82.2173913043 487 82.2173913043 471 85 c 2,300,301
 471 85 471 85 453 88 c 1,276,277
748 19 m 1,302,303
 748 19 748 19 748 33 c 1,304,305
 741 24 741 24 740 23 c 0,306,307
 740 22 740 22 737.5 18 c 128,-1,308
 735 14 735 14 734 12 c 0,309,310
 692 -39 692 -39 622 -46 c 0,311,312
 617 -46.5 617 -46.5 607 -46.5 c 128,-1,313
 597 -46.5 597 -46.5 592 -48 c 0,314,315
 586 -50 586 -50 586 -53 c 1,316,317
 594 -57 594 -57 595 -57 c 0,318,319
 601 -59 601 -59 608 -61 c 0,320,321
 621.071428571 -63.5714285714 621.071428571 -63.5714285714 633.637755102 -63.5714285714 c 0,322,323
 679.714285714 -63.5714285714 679.714285714 -63.5714285714 719 -29 c 0,324,325
 740 -11 740 -11 748 19 c 1,302,303
741 47 m 0,326,327
 751.714285714 67.7142857143 751.714285714 67.7142857143 751.714285714 89.4489795918 c 0,328,329
 751.714285714 98.1428571429 751.714285714 98.1428571429 750 107 c 0,330,331
 749 112 749 112 738 143 c 0,332,333
 738 144 738 144 733 152 c 1,334,335
 724 135 724 135 724 134 c 0,336,337
 713 115 713 115 709 111 c 0,338,339
 663 56 663 56 615 45 c 0,340,341
 570 35 570 35 524 35 c 0,342,343
 503 35 503 35 496 36 c 1,344,345
 501 26 501 26 501 26 c 1,346,347
 525 -6 525 -6 534 -17 c 0,348,349
 541 -26 541 -26 555 -30 c 0,350,351
 571.666666667 -35.3333333333 571.666666667 -35.3333333333 587.888888889 -35.3333333333 c 0,352,353
 596 -35.3333333333 596 -35.3333333333 604 -34 c 0,354,355
 641 -28 641 -28 673 -13 c 0,356,357
 719 7 719 7 741 47 c 0,326,327
EndSplineSet
Validated: 1
EndChar

StartChar: O
Encoding: 79 79 25
Width: 1060
GlyphClass: 2
Flags: W
LayerCount: 2
Fore
SplineSet
107 300 m 128,-1,1
 107 486 107 486 239 619 c 128,-1,2
 371 752 371 752 557 752 c 128,-1,3
 743 752 743 752 875 619 c 128,-1,4
 1007 486 1007 486 1007 300 c 128,-1,5
 1007 114 1007 114 875 -18 c 128,-1,6
 743 -150 743 -150 557 -150 c 128,-1,7
 371 -150 371 -150 239 -18 c 128,-1,0
 107 114 107 114 107 300 c 128,-1,1
332 12 m 0,8,9
 361 -3 361 -3 371 -3 c 256,10,11
 381 -3 381 -3 412 18 c 128,-1,12
 443 39 443 39 443 45 c 256,13,14
 443 51 443 51 415 64 c 0,15,16
 353 93 353 93 328 156 c 0,17,18
 317 181 317 181 311 181 c 0,19,20
 302 181 302 181 283.5 151 c 128,-1,21
 265 121 265 121 265 107 c 0,22,23
 265 46 265 46 332 12 c 0,8,9
418 77 m 0,24,25
 423.625 75.875 423.625 75.875 429.390625 75.875 c 0,26,27
 454.375 75.875 454.375 75.875 482 97 c 0,28,29
 498.363636364 109.545454545 498.363636364 109.545454545 498.363636364 118.818181818 c 0,30,31
 498.363636364 126.545454545 498.363636364 126.545454545 487 132 c 0,32,33
 436 156 436 156 399 220 c 2,34,-1
 382 250 l 1,35,-1
 363 228 l 2,36,37
 341.264150943 201.735849057 341.264150943 201.735849057 341.264150943 175.061587754 c 0,38,39
 341.264150943 142.830188679 341.264150943 142.830188679 373 110 c 0,40,41
 402 80 402 80 418 77 c 0,24,25
473 157 m 0,42,43
 504.226190476 134.988095238 504.226190476 134.988095238 531.259637188 134.988095238 c 0,44,45
 557.035714286 134.988095238 557.035714286 134.988095238 579 155 c 0,46,47
 598.102272727 172.238636364 598.102272727 172.238636364 598.102272727 182.965134298 c 0,48,49
 598.102272727 195.261363636 598.102272727 195.261363636 573 199 c 0,50,51
 531 205 531 205 497.5 240 c 128,-1,52
 464 275 464 275 458 318 c 0,53,54
 455 346 455 346 449 349 c 0,55,56
 447.888888889 349.793650794 447.888888889 349.793650794 446.399848828 349.793650794 c 0,57,58
 438.507936508 349.793650794 438.507936508 349.793650794 420 327.5 c 0,59,60
 398 301 398 301 394 284 c 0,61,62
 392.168224299 275.757009346 392.168224299 275.757009346 392.168224299 267.496899293 c 0,63,64
 392.168224299 212.626168224 392.168224299 212.626168224 473 157 c 0,42,43
658 191 m 0,65,66
 666.181818182 185.109090909 666.181818182 185.109090909 675.327603306 185.109090909 c 0,67,68
 694.127272727 185.109090909 694.127272727 185.109090909 717 210 c 0,69,70
 817 319 817 319 817 473 c 0,71,72
 817 540 817 540 806.5 555 c 128,-1,73
 796 570 796 570 740 570 c 0,74,75
 588 570 588 570 482 475 c 0,76,77
 445.456521739 442.02173913 445.456521739 442.02173913 445.456521739 422.548676749 c 0,78,79
 445.456521739 420.173913043 445.456521739 420.173913043 446 418 c 0,80,81
 456 378 456 378 475 409 c 0,82,83
 493 439 493 439 579 484 c 0,84,85
 605 497 605 497 636.5 507.5 c 128,-1,86
 668 518 668 518 687 520 c 128,-1,87
 706 522 706 522 708 516 c 0,88,89
 708 509 708 509 688 509 c 0,90,91
 613 509 613 509 503 409 c 0,92,93
 480.868421053 388.394736842 480.868421053 388.394736842 480.868421053 370.701523546 c 0,94,95
 480.868421053 365.210526316 480.868421053 365.210526316 483 360 c 0,96,97
 487.909090909 348 487.909090909 348 487.909090909 337.785123967 c 0,98,99
 487.909090909 329.272727273 487.909090909 329.272727273 484.5 322 c 0,100,101
 482.204081633 317.102040816 482.204081633 317.102040816 482.204081633 311.173261141 c 0,102,103
 482.204081633 297.734693878 482.204081633 297.734693878 494 279 c 0,104,105
 530 222 530 222 567 222 c 0,106,107
 578 222 578 222 634.5 287 c 128,-1,108
 691 352 691 352 728 408 c 0,109,110
 758.446808511 454.531914894 758.446808511 454.531914894 768.102761431 454.531914894 c 0,111,112
 772.587301587 454.531914894 772.587301587 454.531914894 772.587301587 444.495086924 c 0,113,114
 772.587301587 438.523809524 772.587301587 438.523809524 771 429 c 0,115,116
 761 378 761 378 724 305 c 128,-1,117
 687 232 687 232 660 212 c 0,118,119
 645 201 645 201 658 191 c 0,65,66
EndSplineSet
Validated: 1
EndChar

StartChar: R
Encoding: 82 82 26
Width: 1024
GlyphClass: 2
Flags: W
LayerCount: 2
Fore
SplineSet
566 572 m 1,0,1
 566 572 566 572 566 574 c 1,2,3
 566 574 566 574 566 572 c 1,0,1
566 606 m 2,4,5
 566 604 566 604 567 602 c 0,6,7
 568 598 568 598 568 596 c 0,8,9
 568 592 568 592 567 591 c 1,10,11
 566 598 566 598 564 603 c 128,-1,12
 562 608 562 608 562 614 c 1,13,-1
 562 614 l 1,14,15
 563 612 563 612 564 610 c 0,16,17
 565 610 565 610 566 608 c 2,18,-1
 566 606 l 2,4,5
353 443 m 1,19,20
 355 443 355 443 357 447 c 0,21,22
 358 447 358 447 360 445 c 1,23,-1
 357 443 l 2,24,25
 355 441 355 441 351 443 c 0,26,27
 349 445 349 445 349 447 c 0,28,29
 347 449 347 449 348 453 c 0,30,31
 349 454 349 454 350 454.5 c 128,-1,32
 351 455 351 455 351 457 c 1,33,34
 353 457 353 457 353 456 c 2,35,-1
 353 455 l 1,36,37
 349 453 349 453 352 449 c 1,38,-1
 353 449 l 2,39,40
 355 449 355 449 355 446 c 0,41,42
 355 445 355 445 353 443 c 1,19,20
558 654 m 1,43,-1
 558 650 l 1,44,45
 558 650 558 650 556 648 c 0,46,47
 556 647 556 647 556 646 c 1,48,49
 554 646 554 646 554 644 c 1,50,-1
 553 644 l 1,51,-1
 550 644 l 2,52,53
 548 644 548 644 548 643 c 0,54,55
 548 640 548 640 546 642 c 0,56,57
 544 642 544 642 540 643 c 128,-1,58
 536 644 536 644 534 646 c 128,-1,59
 532 648 532 648 531 650 c 128,-1,60
 530 652 530 652 530 654 c 0,61,62
 530 661 530 661 532 666 c 0,63,64
 533 668 533 668 535.5 669 c 128,-1,65
 538 670 538 670 544 670 c 2,66,-1
 546 670 l 1,67,-1
 549 670 l 2,68,69
 552 670 552 670 554 668 c 2,70,-1
 554 667 l 1,71,72
 558 662 558 662 559 658 c 2,73,-1
 558 656 l 1,74,-1
 558 654 l 1,43,-1
553 625 m 1,75,76
 552 627 552 627 552 630 c 1,77,78
 552 629 552 629 552.5 627.5 c 128,-1,79
 553 626 553 626 553 625 c 1,75,76
612 196 m 2,80,81
 610 198 610 198 610 200 c 2,82,-1
 610 202 l 1,83,-1
 610 228 l 1,84,-1
 610 232 l 1,85,-1
 610 237 l 1,86,-1
 610 238 l 1,87,-1
 611 238 l 2,88,89
 612 236 612 236 612 234 c 0,90,91
 614 230 614 230 614.5 227 c 128,-1,92
 615 224 615 224 617 220 c 2,93,-1
 617 214 l 1,94,-1
 617 200 l 2,95,96
 617 196 617 196 615 194 c 2,97,-1
 612 196 l 2,80,81
611 185 m 2,98,99
 610 185 610 185 610 185 c 1,100,-1
 610 187 l 1,101,-1
 610 189 l 1,102,-1
 610 190 l 2,103,104
 610 191 610 191 611 190 c 0,105,106
 612 190 612 190 612 189 c 2,107,-1
 615 187 l 2,108,109
 617 187 617 187 618 189 c 0,110,111
 618 191 618 191 620 191 c 0,112,113
 621 190 621 190 621 189 c 2,114,-1
 621 186 l 2,115,116
 621 185 621 185 620 184 c 2,117,-1
 619 183 l 2,118,119
 619 182 619 182 617 182 c 2,120,-1
 611 185 l 2,98,99
600 543 m 2,121,122
 600 545 600 545 599 546 c 128,-1,123
 598 547 598 547 598 549 c 1,124,-1
 601 549 l 1,125,126
 602 545 602 545 606 545 c 2,127,-1
 608 545 l 2,128,129
 610 543 610 543 610 541 c 0,130,131
 612 537 612 537 612 535 c 2,132,-1
 612 533 l 1,133,134
 611 533 611 533 608 531 c 0,135,136
 607 532 607 532 605.5 531.5 c 128,-1,137
 604 531 604 531 604 533 c 2,138,-1
 604 534 l 1,139,-1
 602 535 l 1,140,-1
 600 543 l 2,121,122
396 459 m 1,141,-1
 398 459 l 1,142,-1
 400 459 l 1,143,-1
 399 457 l 1,144,145
 397 458 397 458 396 459 c 1,141,-1
598 202 m 0,146,147
 598 203 598 203 597 205 c 0,148,149
 593 212 593 212 589.5 218 c 128,-1,150
 586 224 586 224 583 228 c 0,151,152
 582 228 582 228 582 230 c 0,153,154
 579 239 579 239 579 249 c 1,155,-1
 579 251 l 1,156,-1
 579 254 l 1,157,158
 583 252.5 583 252.5 590 252.25 c 128,-1,159
 597 252 597 252 603 252 c 1,160,-1
 603 250 l 1,161,-1
 603 246 l 2,162,163
 604 244 604 244 604 242 c 2,164,-1
 604 230 l 2,165,166
 604 224 604 224 602 218 c 2,167,-1
 602 208 l 1,168,-1
 602 202 l 1,169,-1
 600 200 l 2,170,171
 598 200 598 200 598 202 c 0,146,147
598 194 m 0,172,173
 600 191 600 191 598 192 c 0,174,175
 594 192 594 192 593 193 c 128,-1,176
 592 194 592 194 591 196 c 2,177,-1
 591 197 l 2,178,179
 591 200 591 200 593 200 c 0,180,181
 596 200 596 200 597 198 c 128,-1,182
 598 196 598 196 598 194 c 0,172,173
512 722 m 0,183,184
 570 722 570 722 624.5 706.5 c 128,-1,185
 679 691 679 691 727 663.5 c 128,-1,186
 775 636 775 636 814 596.5 c 128,-1,187
 853 557 853 557 881 509.5 c 128,-1,188
 909 462 909 462 924.5 407 c 128,-1,189
 940 352 940 352 940 294 c 256,190,191
 940 236 940 236 924.5 180.5 c 128,-1,192
 909 125 909 125 881 78 c 128,-1,193
 853 31 853 31 814 -8.5 c 128,-1,194
 775 -48 775 -48 727 -76 c 128,-1,195
 679 -104 679 -104 624.5 -119 c 128,-1,196
 570 -134 570 -134 512 -134 c 256,197,198
 454 -134 454 -134 398.5 -119 c 128,-1,199
 343 -104 343 -104 296 -76 c 128,-1,200
 249 -48 249 -48 209.5 -8.5 c 128,-1,201
 170 31 170 31 142 78 c 128,-1,202
 114 125 114 125 99 179 c 0,203,204
 84 236 84 236 84 294 c 256,205,206
 84 352 84 352 99 407 c 128,-1,207
 114 462 114 462 142 509.5 c 128,-1,208
 170 557 170 557 209.5 596.5 c 128,-1,209
 249 636 249 636 296 663.5 c 128,-1,210
 343 691 343 691 398 706.5 c 128,-1,211
 453 722 453 722 512 722 c 0,183,184
667 -62 m 1,212,-1
 669 -59 l 2,213,214
 669 -58 669 -58 669 -56 c 0,215,216
 668 -53 668 -53 667.5 -50.5 c 128,-1,217
 667 -48 667 -48 667 -45 c 2,218,-1
 667 -38 l 1,219,-1
 667 -32 l 2,220,221
 667 -30 667 -30 666 -27.5 c 128,-1,222
 665 -25 665 -25 664 -23 c 2,223,-1
 663 -20 l 2,224,225
 662 -17 662 -17 660.5 -14 c 128,-1,226
 659 -11 659 -11 658 -8 c 2,227,-1
 657 -3 l 1,228,-1
 657 4 l 1,229,-1
 657 7 l 2,230,231
 657 8 657 8 656 9 c 128,-1,232
 655 10 655 10 655 11 c 2,233,-1
 653 13 l 2,234,235
 651 13 651 13 651 14 c 0,236,237
 650 16 650 16 649.5 16.5 c 128,-1,238
 649 17 649 17 649 19 c 0,239,240
 648 21 648 21 646.5 23 c 128,-1,241
 645 25 645 25 645 27 c 128,-1,242
 645 29 645 29 644 30 c 128,-1,243
 643 31 643 31 643 33 c 2,244,-1
 641 35 l 1,245,246
 641 35 641 35 640 37 c 0,247,248
 641 39 641 39 640 41 c 128,-1,249
 639 43 639 43 639 45 c 0,250,251
 637 47 637 47 638 51 c 0,252,253
 637 55 637 55 636 60 c 128,-1,254
 635 65 635 65 633 69 c 0,255,256
 632 71 632 71 631.5 73 c 128,-1,257
 631 75 631 75 631 77 c 2,258,-1
 626 93 l 1,259,-1
 624 101 l 2,260,261
 623 105 623 105 621 109 c 0,262,263
 620 113 620 113 618.5 116 c 128,-1,264
 617 119 617 119 617 121 c 2,265,-1
 615 122 l 2,266,267
 612 123 612 123 612 125 c 2,268,-1
 612 126 l 1,269,-1
 612 127 l 2,270,271
 612 129 612 129 610 130 c 0,272,273
 609 131 609 131 609 132 c 0,274,275
 609 134 609 134 607 137 c 2,276,-1
 606 137 l 1,277,278
 606 137 606 137 605 138 c 2,279,-1
 604 138 l 2,280,281
 602 138 602 138 602 141 c 2,282,-1
 602 147 l 2,283,284
 602 149 602 149 601 149 c 2,285,-1
 600 151 l 1,286,-1
 600 152 l 2,287,288
 600 155 600 155 599 157 c 128,-1,289
 598 159 598 159 598 161 c 1,290,291
 596 161 596 161 595.5 163 c 128,-1,292
 595 165 595 165 595 166 c 0,293,294
 596 168 596 168 595.5 170.5 c 128,-1,295
 595 173 595 173 596 175 c 0,296,297
 596 178 596 178 600 179 c 0,298,299
 601 179 601 179 602 180 c 2,300,-1
 602 181 l 1,301,-1
 603 182 l 2,302,303
 604 184 604 184 606 183 c 2,304,-1
 608 181 l 2,305,306
 609 180 609 180 610.5 179.5 c 128,-1,307
 612 179 612 179 614 179 c 2,308,-1
 618 179 l 2,309,310
 621 179 621 179 623 183 c 2,311,-1
 623 185 l 2,312,313
 623 186 623 186 623 187 c 0,314,315
 625 189 625 189 625 191 c 0,316,317
 625 196 625 196 625 200 c 0,318,319
 623 202 623 202 622.75 206 c 128,-1,320
 622.5 210 622.5 210 622.5 215 c 128,-1,321
 622.5 220 622.5 220 621 222 c 0,322,323
 621 223 621 223 619.5 229 c 0,324,325
 619 232 619 232 618 236 c 2,326,-1
 616 242 l 1,327,-1
 614 248 l 1,328,-1
 612 252 l 1,329,-1
 612 254 l 1,330,-1
 612 260 l 2,331,332
 612 262 612 262 612 266 c 2,333,-1
 614 270 l 1,334,-1
 614 275 l 2,335,336
 612 278 612 278 612 280 c 0,337,338
 612 284 612 284 611.5 287 c 128,-1,339
 611 290 611 290 610 294 c 0,340,341
 610 298 610 298 608 304 c 0,342,343
 607 308 607 308 605.5 313 c 128,-1,344
 604 318 604 318 603 326 c 0,345,346
 602 332 602 332 602 334 c 0,347,348
 602 338 602 338 600.5 342 c 128,-1,349
 599 346 599 346 598 350 c 0,350,351
 597 351 597 351 597 352.5 c 128,-1,352
 597 354 597 354 596 355 c 1,353,354
 598 355 598 355 599.5 354.5 c 128,-1,355
 601 354 601 354 602 354 c 0,356,357
 604 354 604 354 607 353.5 c 128,-1,358
 610 353 610 353 612.5 353 c 128,-1,359
 615 353 615 353 616 353.5 c 128,-1,360
 617 354 617 354 619 354 c 2,361,-1
 620 354 l 2,362,363
 622 356 622 356 624.5 356.5 c 128,-1,364
 627 357 627 357 629 359 c 2,365,-1
 630 360 l 2,366,367
 631 360 631 360 633 361 c 128,-1,368
 635 362 635 362 637 364 c 0,369,370
 639 365 639 365 641 366.5 c 128,-1,371
 643 368 643 368 645 369 c 0,372,373
 649 372 649 372 649 378 c 0,374,375
 650 383 650 383 649 387 c 0,376,377
 649 392 649 392 649 397 c 0,378,379
 649 399 649 399 648 401.5 c 128,-1,380
 647 404 647 404 647 407 c 2,381,-1
 647 409 l 2,382,383
 648 411 648 411 646 413 c 2,384,-1
 644 417 l 2,385,386
 643 419 643 419 641 421 c 0,387,388
 641 423 641 423 641 424 c 0,389,390
 639 425 639 425 639 427 c 0,391,392
 639 430 639 430 640 431 c 2,393,-1
 644 439 l 2,394,395
 643 440 643 440 642 440.5 c 128,-1,396
 641 441 641 441 640 441 c 2,397,-1
 639 442 l 2,398,399
 637 443 637 443 637 444 c 0,400,401
 636 445 636 445 635.5 446 c 128,-1,402
 635 447 635 447 634 448 c 0,403,404
 632 450 632 450 630 452.5 c 128,-1,405
 628 455 628 455 626 458 c 0,406,407
 626 459 626 459 625.5 460 c 128,-1,408
 625 461 625 461 624 461 c 1,409,410
 624 462 624 462 623.5 462.5 c 128,-1,411
 623 463 623 463 623 464 c 2,412,-1
 621 467 l 2,413,414
 619 469 619 469 619 471 c 1,415,416
 621 471 621 471 623 472 c 0,417,418
 625 472 625 472 624 473 c 1,419,420
 625 474 625 474 625 475 c 128,-1,421
 625 476 625 476 626 477 c 2,422,-1
 627 479 l 2,423,424
 628 481 628 481 627.5 482 c 128,-1,425
 627 483 627 483 627 485 c 2,426,-1
 627 489 l 1,427,-1
 627 493 l 2,428,429
 627 494 627 494 627 495 c 1,430,-1
 626 495 l 1,431,432
 625 499 625 499 623.5 502 c 128,-1,433
 622 505 622 505 621 509 c 0,434,435
 620 511 620 511 619.5 513 c 128,-1,436
 619 515 619 515 617 517 c 2,437,-1
 616 521 l 2,438,439
 615 523 615 523 615 525 c 128,-1,440
 615 527 615 527 617 527 c 0,441,442
 619 526 619 526 619 529 c 2,443,-1
 620 531 l 1,444,-1
 621 531 l 1,445,-1
 621 537 l 2,446,447
 621 538 621 538 621 538 c 257,448,449
 621 538 621 538 621 539 c 0,450,451
 620 540 620 540 620 541 c 0,452,453
 619 543 619 543 619 544 c 0,454,455
 617 546 617 546 618 548 c 2,456,-1
 617 549 l 1,457,-1
 617 551 l 2,458,459
 617 553 617 553 614.5 553 c 128,-1,460
 612 553 612 553 612 554 c 1,461,462
 611 554 611 554 610.5 554.5 c 128,-1,463
 610 555 610 555 609 555 c 2,464,-1
 608 555 l 2,465,466
 606 557 606 557 604 556 c 1,467,-1
 604 557 l 1,468,469
 604 557 604 557 602 557 c 2,470,-1
 600 555 l 2,471,472
 598 555 598 555 598 553 c 1,473,474
 594 555 594 555 595 555 c 1,475,-1
 594 555 l 1,476,477
 594 555 594 555 594 557 c 0,478,479
 592 559 592 559 590 558 c 2,480,-1
 583 558 l 1,481,-1
 582 559 l 1,482,-1
 580 559 l 2,483,484
 578 560 578 560 577 562 c 0,485,486
 574 565 574 565 574 569 c 2,487,-1
 574 571 l 2,488,489
 574 573 574 573 572 573 c 2,490,-1
 571 574 l 2,491,492
 570 576 570 576 570 579 c 128,-1,493
 570 582 570 582 568 585 c 2,494,-1
 568 586 l 2,495,496
 568 588 568 588 568 589 c 1,497,498
 570 589 570 589 570 591 c 2,499,-1
 570 598 l 2,500,501
 570 602 570 602 568 604 c 0,502,503
 567 608 567 608 567 610 c 128,-1,504
 567 612 567 612 566 612 c 2,505,-1
 564 614 l 1,506,-1
 562 616 l 2,507,508
 561 616 561 616 560 618 c 128,-1,509
 559 620 559 620 558.5 623 c 128,-1,510
 558 626 558 626 557 629 c 0,511,512
 558 631 558 631 558 632 c 2,513,-1
 558 633 l 2,514,515
 558 635 558 635 557 636.5 c 128,-1,516
 556 638 556 638 556 640 c 2,517,-1
 556 642 l 1,518,-1
 557 642 l 1,519,520
 562 647 562 647 562 656 c 0,521,522
 562 660 562 660 560 664 c 0,523,524
 558 666 558 666 557 668 c 0,525,526
 554 672 554 672 549 672 c 0,527,528
 548 672 548 672 547 673 c 2,529,-1
 544 673 l 1,530,-1
 542 672 l 2,531,532
 541 672 541 672 536 672 c 0,533,534
 534 672 534 672 532 670 c 0,535,536
 530 669 530 669 529.5 667.5 c 128,-1,537
 529 666 529 666 528 665 c 0,538,539
 527 662 527 662 527 661 c 0,540,541
 526 656 526 656 528 652 c 0,542,543
 530 646 530 646 533 642 c 0,544,545
 534 641 534 641 536 640 c 2,546,547
 536 640 536 640 542 640 c 0,548,549
 543 640 543 640 544 640 c 2,550,-1
 546 638 l 2,551,552
 550 638 550 638 549 634 c 0,553,554
 548 632 548 632 550 627 c 0,555,556
 550 626 550 626 550.5 625 c 128,-1,557
 551 624 551 624 552 624 c 2,558,-1
 554 622 l 1,559,-1
 554 621 l 1,560,-1
 554 620 l 2,561,562
 554 618 554 618 555 616 c 128,-1,563
 556 614 556 614 556 612 c 128,-1,564
 556 610 556 610 558 604 c 0,565,566
 560 600 560 600 560.5 595.5 c 128,-1,567
 561 591 561 591 562 589 c 128,-1,568
 563 587 563 587 564 585 c 0,569,570
 564 581 564 581 564 579 c 2,571,-1
 564 578 l 1,572,-1
 564 577 l 2,573,574
 562 571 562 571 565 566 c 0,575,576
 566 564 566 564 567 562.5 c 128,-1,577
 568 561 568 561 568 558 c 2,578,-1
 566 557 l 1,579,-1
 561 557 l 2,580,581
 558 557 558 557 558 559 c 128,-1,582
 558 561 558 561 557 563 c 128,-1,583
 556 565 556 565 556 567 c 0,584,585
 554 576 554 576 551 585 c 0,586,587
 550 589 550 589 549 597 c 1,588,-1
 548 596 l 1,589,590
 548 598 548 598 547 597 c 2,591,-1
 546 596 l 2,592,593
 546 593 546 593 547 589 c 2,594,-1
 549 581 l 1,595,-1
 551 573 l 2,596,597
 552 568 552 568 552 566 c 256,598,599
 552 564 552 564 553 562.5 c 128,-1,600
 554 561 554 561 554 559 c 256,601,602
 554 557 554 557 553 557 c 2,603,-1
 548 557 l 2,604,605
 546 557 546 557 545 556 c 1,606,-1
 544 557 l 1,607,-1
 539 557 l 1,608,-1
 534 557 l 1,609,-1
 530 557 l 2,610,611
 528 557 528 557 526 558 c 2,612,-1
 522 558 l 1,613,-1
 524 560 l 2,614,615
 525 561 525 561 525.5 562 c 128,-1,616
 526 563 526 563 527 564 c 2,617,-1
 528 565 l 1,618,-1
 532 573 l 2,619,620
 535 575 535 575 536 580 c 2,621,-1
 536 581 l 1,622,623
 542 584 542 584 543 587 c 128,-1,624
 544 590 544 590 544 593 c 0,625,626
 544 597 544 597 545 599 c 2,627,-1
 546 600 l 1,628,-1
 546 601 l 1,629,-1
 546 602 l 2,630,631
 546 604 546 604 547 606 c 128,-1,632
 548 608 548 608 547 608 c 1,633,634
 547 610 547 610 546.5 611 c 128,-1,635
 546 612 546 612 546 614 c 0,636,637
 545 616 545 616 543 618 c 0,638,639
 538 619 538 619 536 620 c 2,640,-1
 534 620 l 2,641,642
 533 622 533 622 532.5 624 c 128,-1,643
 532 626 532 626 530 628 c 2,644,-1
 530 629 l 2,645,646
 529 632 529 632 527.5 634 c 128,-1,647
 526 636 526 636 524 636 c 0,648,649
 522 637 522 637 521 638.5 c 128,-1,650
 520 640 520 640 518 641 c 128,-1,651
 516 642 516 642 515 643 c 2,652,-1
 512 643 l 2,653,654
 510 644 510 644 508 643 c 128,-1,655
 506 642 506 642 505 642 c 2,656,-1
 504 643 l 1,657,-1
 501 644 l 2,658,659
 499 646 499 646 496.5 648 c 128,-1,660
 494 650 494 650 491 650 c 0,661,662
 490 650 490 650 488 650.5 c 128,-1,663
 486 651 486 651 481 651 c 2,664,-1
 479 651 l 2,665,666
 477 650 477 650 474 651 c 1,667,-1
 474 650 l 1,668,-1
 472 650 l 1,669,-1
 469 650 l 2,670,671
 465 650 465 650 461 647 c 0,672,673
 459 646 459 646 457.5 645 c 128,-1,674
 456 644 456 644 455 644 c 128,-1,675
 454 644 454 644 454 642 c 0,676,677
 452 641 452 641 450 640 c 0,678,679
 450 638 450 638 448 637 c 2,680,-1
 446 634 l 1,681,-1
 443 632 l 1,682,-1
 441 628 l 2,683,684
 440 626 440 626 440 624 c 2,685,-1
 440 622 l 2,686,687
 439 616 439 616 440 612 c 2,688,-1
 440 609 l 1,689,-1
 440 608 l 1,690,-1
 438 608 l 1,691,-1
 438 606 l 1,692,-1
 438 602 l 1,693,-1
 438 589 l 2,694,695
 438 585 438 585 439 581 c 0,696,697
 440 575 440 575 440 571 c 0,698,699
 442 567 442 567 444 565 c 0,700,701
 444 564 444 564 445 563.5 c 128,-1,702
 446 563 446 563 446 561 c 0,703,704
 446 555 446 555 451 552 c 2,705,-1
 453 550 l 2,706,707
 454 549 454 549 456 548 c 0,708,709
 457 546 457 546 458 545.5 c 128,-1,710
 459 545 459 545 460 543 c 0,711,712
 462 543 462 543 462 541 c 0,713,714
 461 540 461 540 460 539.5 c 128,-1,715
 459 539 459 539 458 537 c 0,716,717
 456 535 456 535 455 533 c 0,718,719
 453 527 453 527 450 523 c 2,720,-1
 448 521 l 1,721,722
 448 521 448 521 448 520 c 2,723,-1
 447 519 l 2,724,725
 445 517 445 517 442.5 515.5 c 128,-1,726
 440 514 440 514 438 512 c 0,727,728
 437 511 437 511 437 510 c 2,729,-1
 433 506 l 2,730,731
 430 504 430 504 428 502 c 0,732,733
 424 498 424 498 425 496 c 0,734,735
 424 492 424 492 424 487.5 c 128,-1,736
 424 483 424 483 422 478 c 2,737,-1
 422 475 l 1,738,-1
 422 468 l 1,739,-1
 422 461 l 2,740,741
 422 459 422 459 423 458 c 1,742,743
 419 458 419 458 418 459 c 0,744,745
 416 460 416 460 415 461 c 128,-1,746
 414 462 414 462 412 463 c 0,747,748
 410 463 410 463 410 464 c 0,749,750
 410 467 410 467 407 467 c 2,751,-1
 406 467 l 1,752,-1
 405 469 l 2,753,754
 403 469 403 469 403 471 c 128,-1,755
 403 473 403 473 402 473 c 128,-1,756
 401 473 401 473 400 475 c 1,757,758
 399 473 399 473 398 473.5 c 128,-1,759
 397 474 397 474 395 473 c 0,760,761
 393 473 393 473 393 477 c 0,762,763
 392 479 392 479 389 479 c 2,764,-1
 387 481 l 1,765,-1
 382 483 l 2,766,767
 379 485 379 485 375 486 c 0,768,769
 373 487 373 487 372 487 c 128,-1,770
 371 487 371 487 370 485 c 0,771,772
 369 484 369 484 369 482.5 c 128,-1,773
 369 481 369 481 367 481 c 1,774,775
 371 479 371 479 375 475 c 256,776,777
 379 471 379 471 382 469 c 1,778,-1
 379 467 l 2,779,780
 377 467 377 467 378 467 c 1,781,782
 378 468 378 468 376 468.5 c 128,-1,783
 374 469 374 469 373 471 c 0,784,785
 369 474 369 474 365 476.5 c 128,-1,786
 361 479 361 479 359 481 c 0,787,788
 355 485 355 485 350 488 c 128,-1,789
 345 491 345 491 341 495 c 2,790,-1
 338 497 l 1,791,-1
 335 498 l 1,792,-1
 334 499 l 1,793,-1
 333 499 l 2,794,795
 331 499 331 499 329 500 c 2,796,-1
 327 501 l 2,797,798
 326 501 326 501 325 501 c 1,799,-1
 325 502 l 2,800,801
 323 503 323 503 322 503 c 128,-1,802
 321 503 321 503 319 502 c 2,803,-1
 319 501 l 1,804,-1
 319 500 l 1,805,806
 317 500 317 500 317 501 c 0,807,808
 314 502 314 502 311.5 503.5 c 128,-1,809
 309 505 309 505 307 507 c 0,810,811
 305 507 305 507 304 507.5 c 128,-1,812
 303 508 303 508 301 508 c 0,813,814
 300 509 300 509 299 509 c 0,815,816
 297 510 297 510 295 510.5 c 128,-1,817
 293 511 293 511 291 512 c 256,818,819
 289 513 289 513 288 513 c 2,820,-1
 286 513 l 1,821,-1
 285 509 l 1,822,-1
 285 508 l 1,823,-1
 286 507 l 1,824,-1
 287 507 l 2,825,826
 289 505 289 505 291 503 c 0,827,828
 293 503 293 503 295 501 c 2,829,-1
 295 499 l 2,830,831
 295 497 295 497 297 497 c 0,832,833
 301 493 301 493 305 490.5 c 128,-1,834
 309 488 309 488 313 484 c 0,835,836
 315 482 315 482 318 481 c 2,837,-1
 323 478 l 2,838,839
 325 477 325 477 327 477 c 1,840,-1
 327 476 l 1,841,-1
 329 476 l 2,842,843
 331 475 331 475 332 474 c 2,844,-1
 335 471 l 2,845,846
 341 467 341 467 348 463 c 2,847,-1
 350 462 l 2,848,849
 351 462 351 462 351 461 c 2,850,-1
 351 458 l 2,851,852
 351 457 351 457 350 457 c 0,853,854
 349 456 349 456 349 455.5 c 128,-1,855
 349 455 349 455 347 453 c 128,-1,856
 345 451 345 451 346 447 c 0,857,858
 346 445 346 445 349 443 c 0,859,860
 351 441 351 441 356 440 c 2,861,-1
 357 440 l 1,862,-1
 357 441 l 2,863,864
 358 442 358 442 359 442 c 128,-1,865
 360 442 360 442 361 443 c 1,866,867
 363 441 363 441 361 439 c 0,868,869
 360 439 360 439 360 437 c 0,870,871
 361 435 361 435 361 433 c 0,872,873
 363 431 363 431 361 429 c 2,874,-1
 361 423 l 1,875,-1
 361 421 l 1,876,-1
 361 420 l 1,877,-1
 361 415 l 1,878,-1
 361 413 l 1,879,-1
 362 413 l 2,880,881
 363 413 363 413 363 410 c 0,882,883
 361 407 361 407 365 407 c 2,884,-1
 366 407 l 1,885,-1
 371 407 l 2,886,887
 373 407 373 407 375 405 c 0,888,889
 379 405 379 405 381 403 c 0,890,891
 385 401 385 401 387 402 c 0,892,893
 389 402 389 402 392 400 c 0,894,895
 393 400 393 400 394 399.5 c 128,-1,896
 395 399 395 399 396 398 c 2,897,-1
 399 394 l 2,898,899
 399 393 399 393 400 393.5 c 128,-1,900
 401 394 401 394 401 393 c 1,901,-1
 403 394 l 2,902,903
 405 397 405 397 405 394 c 2,904,-1
 407 393 l 1,905,-1
 422 386 l 2,906,907
 424 385 424 385 425 383.5 c 128,-1,908
 426 382 426 382 430 382 c 0,909,910
 434 381 434 381 436 378 c 0,911,912
 440 376 440 376 442 373 c 2,913,-1
 442 372 l 2,914,915
 442 370 442 370 445 368 c 0,916,917
 446 367 446 367 446 366 c 0,918,919
 446 360 446 360 448 354 c 2,920,-1
 448 352 l 2,921,922
 448 350 448 350 450 349 c 0,923,924
 452 349 452 349 452 347 c 2,925,-1
 452 345 l 1,926,-1
 452 344 l 2,927,928
 453 343 453 343 452.5 342.5 c 128,-1,929
 452 342 452 342 452 340 c 128,-1,930
 452 338 452 338 451 339 c 0,931,932
 448 338 448 338 448 335 c 0,933,934
 447 331 447 331 446.5 327.5 c 128,-1,935
 446 324 446 324 444 317 c 2,936,-1
 443 312 l 2,937,938
 442 310 442 310 440 309 c 2,939,-1
 440 308 l 1,940,-1
 440 306 l 2,941,942
 439 303 439 303 437 301 c 0,943,944
 436 300 436 300 436 299.5 c 128,-1,945
 436 299 436 299 434 298 c 0,946,947
 432 296 432 296 430 293 c 0,948,949
 426 288 426 288 423 284 c 0,950,951
 422 282 422 282 421 279 c 2,952,-1
 422 277 l 2,953,954
 424 276 424 276 422 274 c 2,955,-1
 421 273 l 2,956,957
 421 272 421 272 419 270 c 0,958,959
 419 265 419 265 418.5 263.5 c 128,-1,960
 418 262 418 262 417 260 c 0,961,962
 416 259 416 259 415.5 257.5 c 128,-1,963
 415 256 415 256 414 254 c 0,964,965
 414 253 414 253 414 252 c 1,966,967
 412 252 412 252 412 251 c 0,968,969
 410 250 410 250 410 249 c 128,-1,970
 410 248 410 248 409 247 c 2,971,-1
 409 246 l 2,972,973
 408 244 408 244 407 242 c 0,974,975
 405 240 405 240 405 238 c 0,976,977
 404 237 404 237 403.5 236 c 128,-1,978
 403 235 403 235 403 234 c 0,979,980
 403 232 403 232 401 230 c 2,981,-1
 399 226 l 1,982,-1
 398 224 l 1,983,-1
 397 222 l 2,984,985
 397 220 397 220 395 218 c 0,986,987
 394 216 394 216 394 214 c 0,988,989
 393 212 393 212 393 210 c 2,990,-1
 393 208 l 1,991,-1
 393 207 l 1,992,-1
 393 206 l 2,993,994
 393 205 393 205 392 204 c 2,995,-1
 390 200 l 2,996,997
 389 198 389 198 389 196 c 0,998,999
 387 192 387 192 387 190 c 0,1000,1001
 386 188 386 188 385.5 185.5 c 128,-1,1002
 385 183 385 183 384 181 c 0,1003,1004
 385 177 385 177 381 173 c 0,1005,1006
 380 171 380 171 379.5 169.5 c 128,-1,1007
 379 168 379 168 378 166 c 2,1008,-1
 378 163 l 2,1009,1010
 378.5 159 378.5 159 378.5 154 c 128,-1,1011
 378.5 149 378.5 149 379 146 c 2,1012,-1
 379 143 l 1,1013,-1
 379 141 l 2,1014,1015
 378 139 378 139 378 137 c 2,1016,-1
 378 133 l 1,1017,-1
 378 128 l 1,1018,-1
 378 122 l 2,1019,1020
 378 121 378 121 379 121 c 1,1021,-1
 379 119 l 2,1022,1023
 379 118 379 118 379 117 c 0,1024,1025
 377 115 377 115 377 113 c 0,1026,1027
 377 109 377 109 378 105 c 0,1028,1029
 379 103 379 103 379 99 c 2,1030,-1
 379 94 l 2,1031,1032
 380 90 380 90 379.5 85.5 c 128,-1,1033
 379 81 379 81 379 76 c 2,1034,-1
 379 66 l 1,1035,-1
 379 65 l 1,1036,-1
 379 59 l 1,1037,-1
 379 54 l 1,1038,-1
 379 47 l 1,1039,-1
 379 39 l 1,1040,-1
 379 31 l 1,1041,-1
 379 30 l 1,1042,-1
 378 29 l 1,1043,-1
 379 28 l 1,1044,-1
 377 27 l 1,1045,-1
 377 24 l 1,1046,-1
 377 23 l 1,1047,-1
 377 21 l 2,1048,1049
 379 19 379 19 377 19 c 1,1050,1051
 377 17 377 17 375 14 c 0,1052,1053
 375 12 375 12 374 10.5 c 128,-1,1054
 373 9 373 9 373 7 c 0,1055,1056
 372 5 372 5 370.5 3.5 c 128,-1,1057
 369 2 369 2 367 0 c 0,1058,1059
 367 -1 367 -1 367 -3 c 2,1060,-1
 365 -5 l 2,1061,1062
 364 -8 364 -8 363.5 -9.5 c 128,-1,1063
 363 -11 363 -11 362 -12 c 2,1064,-1
 361 -15 l 2,1065,1066
 360 -16 360 -16 359 -17 c 0,1067,1068
 359 -18 359 -18 358 -18 c 0,1069,1070
 356 -20 356 -20 353 -21 c 128,-1,1071
 350 -22 350 -22 347 -24 c 0,1072,1073
 345 -24 345 -24 341 -26 c 0,1074,1075
 339 -27 339 -27 337 -27.5 c 128,-1,1076
 335 -28 335 -28 333 -29 c 2,1077,-1
 333 -30 l 1,1078,1079
 333 -30 333 -30 332 -30 c 2,1080,-1
 331 -30 l 2,1081,1082
 327 -30 327 -30 325 -34 c 0,1083,1084
 325 -36 325 -36 323 -38 c 2,1085,-1
 323 -39 l 2,1086,1087
 321 -40 321 -40 323 -42 c 128,-1,1088
 325 -44 325 -44 329 -46 c 0,1089,1090
 333 -50 333 -50 339 -50 c 2,1091,-1
 343 -50 l 2,1092,1093
 349 -50 349 -50 353 -49 c 256,1094,1095
 357 -48 357 -48 363 -48 c 0,1096,1097
 365 -48 365 -48 368 -47 c 128,-1,1098
 371 -46 371 -46 375 -46 c 0,1099,1100
 377 -46 377 -46 378 -45.5 c 128,-1,1101
 379 -45 379 -45 381 -45 c 0,1102,1103
 387 -43 387 -43 391 -42.5 c 128,-1,1104
 395 -42 395 -42 399 -42 c 0,1105,1106
 401 -42 401 -42 405 -41 c 0,1107,1108
 407 -41 407 -41 408 -40.5 c 128,-1,1109
 409 -40 409 -40 410 -40 c 2,1110,-1
 415 -40 l 2,1111,1112
 416 -40 416 -40 416 -38 c 0,1113,1114
 417 -33 417 -33 417 -28 c 2,1115,-1
 417 -18 l 1,1116,-1
 417 -11 l 2,1117,1118
 416 -8 416 -8 416 -3 c 2,1119,-1
 416 0 l 2,1120,1121
 415 4 415 4 415.5 7 c 128,-1,1122
 416 10 416 10 416 14 c 2,1123,-1
 416 15 l 2,1124,1125
 417 16 417 16 416.5 17.5 c 128,-1,1126
 416 19 416 19 417 21 c 128,-1,1127
 418 23 418 23 418 25 c 2,1128,-1
 418 30 l 2,1129,1130
 418 32 418 32 418 35 c 0,1131,1132
 420 37 420 37 420 40 c 2,1133,-1
 420 49 l 1,1134,-1
 420 53 l 2,1135,1136
 420 55 420 55 421 57 c 2,1137,-1
 422 58 l 1,1138,-1
 422 59 l 1,1139,-1
 422 63 l 2,1140,1141
 423 65 423 65 425 70 c 2,1142,-1
 425 81 l 2,1143,1144
 426 85 426 85 427 88 c 128,-1,1145
 428 91 428 91 430 94 c 0,1146,1147
 431 98 431 98 432 101 c 0,1148,1149
 432 103 432 103 434 107 c 0,1150,1151
 434 109 434 109 436 111 c 0,1152,1153
 436 113 436 113 438 117 c 2,1154,-1
 439 119 l 2,1155,1156
 439 121 439 121 438 123 c 2,1157,1158
 438 123 438 123 438 125 c 2,1159,-1
 438 131 l 2,1160,1161
 438 133 438 133 440 133 c 0,1162,1163
 443 135 443 135 441 138 c 2,1164,-1
 440 140 l 1,1165,1166
 441 140 441 140 441.5 140.5 c 128,-1,1167
 442 141 442 141 443 141 c 1,1168,1169
 443 142 443 142 443.5 143 c 128,-1,1170
 444 144 444 144 442 145 c 0,1171,1172
 441 146 441 146 442 149 c 0,1173,1174
 443 153 443 153 444 153 c 0,1175,1176
 445 155 445 155 445 154 c 1,1177,1178
 447 158 447 158 448 163 c 0,1179,1180
 450 167 450 167 452 169 c 0,1181,1182
 456 174 456 174 458 180 c 2,1183,-1
 463 187 l 2,1184,1185
 466 194 466 194 470 200 c 0,1186,1187
 472 204 472 204 475 208 c 128,-1,1188
 478 212 478 212 480 218 c 0,1189,1190
 488 224 488 224 493 228 c 256,1191,1192
 498 232 498 232 502 238 c 1,1193,-1
 503 238 l 1,1194,-1
 504 240 l 1,1195,1196
 505 238 505 238 506 234 c 0,1197,1198
 508 227 508 227 510 218.5 c 128,-1,1199
 512 210 512 210 515 202 c 0,1200,1201
 516 200 516 200 516 198 c 256,1202,1203
 516 196 516 196 517 195 c 128,-1,1204
 518 194 518 194 518 191 c 0,1205,1206
 522 183 522 183 524 175 c 0,1207,1208
 525 173 525 173 526 171 c 2,1209,1210
 526 171 526 171 526 169 c 0,1211,1212
 527 165 527 165 527.5 161 c 128,-1,1213
 528 157 528 157 530 152 c 0,1214,1215
 531 148 531 148 531.5 144.5 c 128,-1,1216
 532 141 532 141 534 138 c 2,1217,-1
 534 137 l 1,1218,-1
 534 135 l 2,1219,1220
 534 133 534 133 536 131 c 128,-1,1221
 538 129 538 129 542 127 c 0,1222,1223
 542 126 542 126 543 124.5 c 128,-1,1224
 544 123 544 123 544 122 c 2,1225,-1
 544 121 l 1,1226,-1
 545 120 l 1,1227,-1
 546 117 l 2,1228,1229
 548 117 548 117 548 113 c 0,1230,1231
 550 111 550 111 550 109 c 1,1232,1233
 551 109 551 109 552 109 c 1,1234,1235
 552 109 552 109 552 107 c 128,-1,1236
 552 105 552 105 554 105 c 0,1237,1238
 556 101 556 101 556 99 c 0,1239,1240
 556 98 556 98 557 97 c 128,-1,1241
 558 96 558 96 558 95 c 0,1242,1243
 558 93 558 93 560 91 c 0,1244,1245
 563 87 563 87 565 83 c 1,1246,-1
 566 83 l 1,1247,-1
 566 81 l 2,1248,1249
 567 80 567 80 568 79.5 c 128,-1,1250
 569 79 569 79 570 78 c 2,1251,-1
 576 72 l 2,1252,1253
 577 71 577 71 577.5 70 c 128,-1,1254
 578 69 578 69 580 69 c 2,1255,-1
 581 66 l 2,1256,1257
 581 63 581 63 582 63 c 0,1258,1259
 583 61 583 61 583.5 59.5 c 128,-1,1260
 584 58 584 58 586 56 c 2,1261,-1
 590 50 l 2,1262,1263
 592 48 592 48 594 45.5 c 128,-1,1264
 596 43 596 43 597 41 c 2,1265,-1
 598 38 l 2,1266,1267
 599 37 599 37 600 36 c 0,1268,1269
 602 32 602 32 604 27.5 c 128,-1,1270
 606 23 606 23 608 17 c 2,1271,-1
 608 15 l 2,1272,1273
 608 13 608 13 609 13 c 1,1274,1275
 609 12 609 12 610 11 c 2,1276,-1
 610 9 l 1,1277,-1
 610 7 l 1,1278,1279
 610 7 610 7 611 7 c 0,1280,1281
 612 5 612 5 612 3.5 c 128,-1,1282
 612 2 612 2 614 0 c 2,1283,-1
 615 -3 l 2,1284,1285
 616 -6 616 -6 616 -5 c 1,1286,1287
 615 -8 615 -8 616 -12 c 2,1288,-1
 616 -16 l 2,1289,1290
 617 -17 617 -17 617 -18 c 2,1291,-1
 617 -23 l 2,1292,1293
 618 -27 618 -27 618.5 -30.5 c 128,-1,1294
 619 -34 619 -34 618 -38 c 0,1295,1296
 617 -40 617 -40 617 -44 c 2,1297,-1
 617 -48 l 2,1298,1299
 617 -50 617 -50 616 -52 c 0,1300,1301
 615 -56 615 -56 615 -58 c 2,1302,-1
 615 -62 l 2,1303,1304
 615 -64 615 -64 614 -66 c 2,1305,-1
 619 -70 l 1,1306,-1
 621 -72 l 1,1307,-1
 623 -74 l 1,1308,-1
 625 -74 l 1,1309,-1
 629 -74 l 1,1310,-1
 629 -75 l 1,1311,1312
 631 -75 631 -75 633 -76 c 2,1313,1314
 633 -76 633 -76 635 -76 c 2,1315,-1
 637 -76 l 2,1316,1317
 639 -76 639 -76 642 -75.5 c 128,-1,1318
 645 -75 645 -75 649 -75 c 0,1319,1320
 650 -75 650 -75 651.5 -74.5 c 128,-1,1321
 653 -74 653 -74 655 -74 c 2,1322,-1
 657 -74 l 1,1323,-1
 659 -72 l 1,1324,1325
 659 -72 659 -72 660 -70 c 2,1326,-1
 663 -66 l 2,1327,1328
 665 -64 665 -64 665 -62 c 1,1329,-1
 667 -62 l 1,212,-1
420 426 m 0,1330,1331
 420 423 420 423 418 427 c 2,1332,-1
 418 428 l 2,1333,1334
 418 429 418 429 419 431 c 1,1335,1336
 419 430 419 430 420 429 c 0,1337,1338
 420 428 420 428 420.5 427.5 c 128,-1,1339
 421 427 421 427 420 426 c 0,1330,1331
389 467 m 1,1340,-1
 391 465 l 1,1341,-1
 392 464 l 2,1342,1343
 393 463 393 463 393 462 c 128,-1,1344
 393 461 393 461 395 459 c 1,1345,1346
 393 460 393 460 391 461.5 c 128,-1,1347
 389 463 389 463 387 464 c 1,1348,1349
 389 466 389 466 389 467 c 1,1340,-1
425 445 m 1,1350,-1
 427 439 l 2,1351,1352
 428 436 428 436 430 432 c 0,1353,1354
 430 429 430 429 428 428 c 0,1355,1356
 426 426 426 426 426 423 c 128,-1,1357
 426 420 426 420 425 418 c 0,1358,1359
 425 417 425 417 424.5 417 c 128,-1,1360
 424 417 424 417 424 416 c 2,1361,-1
 424 415 l 1,1362,-1
 423 413 l 1,1363,-1
 422 411 l 1,1364,-1
 418 413 l 1,1365,-1
 414 415 l 2,1366,1367
 413 415 413 415 413 417 c 256,1368,1369
 413 419 413 419 410 419 c 2,1370,-1
 406 421 l 2,1371,1372
 405 423 405 423 403 425 c 0,1373,1374
 403 427 403 427 402 428 c 1,1375,-1
 403 429 l 1,1376,-1
 403 429 l 1,1377,1378
 405 429 405 429 405 428 c 1,1379,-1
 405 431 l 1,1380,-1
 407 428 l 2,1381,1382
 407 427 407 427 409 425 c 0,1383,1384
 410 425 410 425 412 424 c 2,1385,-1
 412 423 l 2,1386,1387
 414 421 414 421 416 423 c 0,1388,1389
 416 425 416 425 418 425 c 128,-1,1390
 420 425 420 425 420 426 c 2,1391,-1
 420 429 l 1,1392,-1
 420 433 l 2,1393,1394
 421 434 421 434 421 437 c 0,1395,1396
 420 438 420 438 420 439 c 2,1397,-1
 418 440 l 1,1398,-1
 418 441 l 2,1399,1400
 418 443 418 443 416 443 c 2,1401,-1
 415 443 l 1,1402,1403
 415 444 415 444 416 445 c 2,1404,-1
 416 447 l 2,1405,1406
 414 449 414 449 412 449 c 0,1407,1408
 409 450 409 450 407 451 c 0,1409,1410
 407 452 407 452 405 453 c 2,1411,-1
 406 456 l 1,1412,-1
 407 455 l 2,1413,1414
 409 453 409 453 414 451 c 2,1415,-1
 416 451 l 1,1416,1417
 416 449 416 449 418 447 c 0,1418,1419
 419 447 419 447 420 447 c 1,1420,1421
 420 445 420 445 422 445 c 0,1422,1423
 424 443 424 443 424 445 c 1,1424,-1
 425 445 l 1,1350,-1
EndSplineSet
Validated: 133
EndChar

StartChar: W
Encoding: 87 87 27
Width: 1024
GlyphClass: 2
Flags: W
LayerCount: 2
Fore
SplineSet
485 722 m 0,0,1
 596 722 596 722 695.5 679 c 128,-1,2
 795 636 795 636 860 547.5 c 128,-1,3
 925 459 925 459 939 349 c 0,4,5
 942.512195122 321.195121951 942.512195122 321.195121951 942.512195122 293.904223676 c 0,6,7
 942.512195122 227.951219512 942.512195122 227.951219512 922 165 c 0,8,9
 893 76 893 76 835.5 10.5 c 128,-1,10
 778 -55 778 -55 693 -94.5 c 128,-1,11
 608 -134 608 -134 513 -134 c 0,12,13
 407 -134 407 -134 314.5 -85 c 128,-1,14
 222 -36 222 -36 162 49.5 c 128,-1,15
 102 135 102 135 89 241 c 0,16,17
 85.7297297297 267.756756757 85.7297297297 267.756756757 85.7297297297 294.11577794 c 0,18,19
 85.7297297297 356.418918919 85.7297297297 356.418918919 104 416.5 c 0,20,21
 130 502 130 502 183 567 c 128,-1,22
 236 632 236 632 315 677 c 128,-1,23
 394 722 394 722 485 722 c 0,0,1
484 616 m 0,25,26
 428 616 428 616 404 585 c 0,27,28
 380 553 380 553 364 512 c 0,29,30
 360 502 360 502 330 483 c 0,31,32
 321 478 321 478 319.5 476 c 128,-1,33
 318 474 318 474 318 469 c 0,34,35
 319 462 319 462 321 461 c 128,-1,36
 323 460 323 460 334 462 c 0,37,38
 366.338983051 467.491525424 366.338983051 467.491525424 400.353346739 467.491525424 c 0,39,40
 477.830508475 467.491525424 477.830508475 467.491525424 564 439 c 0,41,42
 575 435 575 435 576 434 c 128,-1,43
 577 433 577 433 577 427 c 0,44,45
 577 400 577 400 581 374.5 c 128,-1,46
 585 349 585 349 595 336 c 0,47,48
 609.0625 316.46875 609.0625 316.46875 623.735351562 316.46875 c 0,49,50
 627.84375 316.46875 627.84375 316.46875 632 318 c 0,51,52
 658 327 658 327 667.5 375 c 0,53,54
 670.781818182 391.581818182 670.781818182 391.581818182 670.781818182 405.776859504 c 0,55,56
 670.781818182 432.672727273 670.781818182 432.672727273 659 451 c 0,57,58
 655 456 655 456 653.5 461 c 128,-1,59
 652 466 652 466 652 486 c 0,60,61
 652 513 652 513 647.5 525.5 c 128,-1,62
 643 538 643 538 631 554 c 0,63,64
 609 583 609 583 566 599.5 c 128,-1,65
 523 616 523 616 484 616 c 0,25,26
392 448 m 0,66,67
 378 448 378 448 358 444.5 c 128,-1,68
 338 441 338 441 336 440 c 0,69,70
 332 436 332 436 332 411 c 0,71,72
 332 378 332 378 343 365 c 2,73,-1
 345 362 l 1,74,-1
 351 364 l 2,75,76
 362 367 362 367 374 376 c 0,77,78
 386 385.5 386 385.5 395 385.5 c 0,79,80
 403 386 403 386 420 375 c 0,81,82
 444 360 444 360 473.5 360 c 0,83,84
 502 360 502 360 522 378 c 0,85,86
 541 395 541 395 547 414 c 0,87,88
 549 419 549 419 548.5 420 c 0,89,90
 548 422 548 422 544 423 c 0,91,92
 470 448 470 448 392 448 c 0,66,67
546 372 m 0,93,94
 525 345 525 345 488 340 c 0,95,96
 480.708333333 338.958333333 480.708333333 338.958333333 473.15625 338.958333333 c 0,97,98
 444.458333333 338.958333333 444.458333333 338.958333333 412 354 c 0,99,100
 400 359.5 400 359.5 395 359.5 c 128,-1,101
 390 359.5 390 359.5 375 350 c 0,102,103
 367 346 367 346 364 344 c 0,104,105
 361 343 361 343 361 341 c 128,-1,106
 361 339 361 339 366 325 c 0,107,108
 377 291 377 291 380 264 c 0,109,110
 382 251 382 251 385.5 246.5 c 128,-1,111
 389 242 389 242 400 240 c 0,112,113
 414.88 237.12 414.88 237.12 431.9488 237.12 c 0,114,115
 450.44 237.12 450.44 237.12 471.5 240.5 c 0,116,117
 512 247 512 247 535 262 c 0,118,119
 541 266 541 266 541.5 266 c 128,-1,120
 542 266 542 266 541 264 c 128,-1,121
 540 262 540 262 538 259.5 c 0,122,123
 538 260 538 260 535 255 c 0,124,125
 509 216 509 216 435 216 c 0,126,127
 426 216 426 216 424.5 215 c 128,-1,128
 423 214 423 214 423 210 c 2,129,-1
 423 205 l 1,130,-1
 420 204 l 2,131,132
 414 202 414 202 413.5 201.5 c 128,-1,133
 413 201 413 201 413 198 c 0,134,135
 413 172 413 172 434 134 c 0,136,137
 442 120 442 120 454 101.5 c 128,-1,138
 466 83 466 83 467 83 c 256,139,140
 468 83 468 83 480 93 c 0,141,142
 570 162 570 162 686 228 c 0,143,144
 689 230 689 230 691 231 c 128,-1,145
 693 232 693 232 694 233 c 128,-1,146
 695 234 695 234 695 234 c 257,147,148
 695 234 695 234 688 235 c 2,149,-1
 682 236 l 1,150,-1
 679 243 l 2,151,152
 675 255 675 255 671 259 c 0,153,154
 659 271 659 271 620 271 c 1,155,-1
 612 272 l 1,156,-1
 612 275 l 2,157,158
 611 279 611 279 612 284 c 0,159,160
 614 289 614 289 613 290.5 c 128,-1,161
 612 292 612 292 607 296 c 0,162,163
 573 322 573 322 562 362 c 0,164,165
 560 369 560 369 559.5 370.5 c 128,-1,166
 559 372 559 372 555 374 c 0,167,168
 549 376 549 376 546 372 c 0,93,94
781 199 m 0,169,170
 653 147 653 147 529 42 c 0,171,172
 516 30 516 30 514.5 28.5 c 128,-1,173
 513 27 513 27 514 26 c 0,174,175
 518 18 518 18 564 -20 c 0,176,177
 613 -61 613 -61 620 -64 c 0,178,179
 620.2 -64.0666666667 620.2 -64.0666666667 620.533333333 -64.0666666667 c 0,180,181
 625.2 -64.0666666667 625.2 -64.0666666667 656 -51 c 0,182,183
 720 -25 720 -25 769.5 21.5 c 128,-1,184
 819 68 819 68 849 130 c 0,185,186
 855 141 855 141 855.5 143 c 128,-1,187
 856 145 856 145 854 147 c 0,188,189
 826 185 826 185 802 201 c 0,190,191
 796 204 796 204 794.5 204 c 128,-1,192
 793 204 793 204 781 199 c 0,169,170
339 183 m 0,193,194
 310 175 310 175 292.5 162.5 c 128,-1,195
 275 150 275 150 258 124 c 0,196,197
 245 104 245 104 234 71 c 0,198,199
 229 56 229 56 229.5 53.5 c 128,-1,200
 230 51 230 51 236 44 c 0,201,202
 275 1 275 1 327 -29 c 0,203,204
 336 -35 336 -35 337.5 -35 c 128,-1,205
 339 -35 339 -35 343 -30 c 0,206,207
 369 -1 369 -1 399 25 c 2,208,-1
 407 33 l 1,209,-1
 406 34 l 2,210,211
 405 36 405 36 400 44 c 0,212,213
 349.791044776 121.910447761 349.791044776 121.910447761 349.791044776 169.845399866 c 0,214,215
 349.791044776 177.28358209 349.791044776 177.28358209 351 184 c 0,216,217
 350 185 350 185 339 183 c 0,193,194
440 54 m 128,-1,219
 416 33 416 33 416 32 c 128,-1,220
 416 31 416 31 433.5 8 c 128,-1,221
 451 -15 451 -15 452 -15 c 256,222,223
 453 -15 453 -15 478 7 c 128,-1,224
 503 29 503 29 503 29.5 c 128,-1,225
 503 30 503 30 491 45 c 0,226,227
 478 60 478 60 473 67 c 0,228,229
 466 75 466 75 465 75 c 128,-1,218
 464 75 464 75 440 54 c 128,-1,219
485 0 m 2,230,231
 485 0 485 0 463 -17 c 1,232,233
 464 -18 464 -18 471 -19 c 128,-1,234
 478 -20 478 -20 479 -20 c 0,235,236
 480 -19 480 -19 493 -8 c 2,237,238
 493 -8 493 -8 506 3 c 1,239,-1
 506 10 l 2,240,241
 506 17 506 17 505 16.5 c 128,-1,242
 504 16 504 16 485 0 c 2,230,231
443 -38 m 0,243,244
 416.964285714 -65 416.964285714 -65 416.964285714 -66.8941326531 c 0,245,246
 416.964285714 -66.9642857143 416.964285714 -66.9642857143 417 -67 c 0,247,248
 420 -70 420 -70 459.5 -75.5 c 0,249,250
 488.466666667 -79.5333333333 488.466666667 -79.5333333333 501.031111111 -79.5333333333 c 0,251,252
 505.6 -79.5333333333 505.6 -79.5333333333 508 -79 c 0,253,254
 510 -79 510 -79 495 -66 c 0,255,256
 485 -57 485 -57 470 -42 c 128,-1,257
 455 -27 455 -27 454.5 -27 c 128,-1,258
 454 -27 454 -27 443 -38 c 0,243,244
EndSplineSet
Validated: 1
EndChar

StartChar: c
Encoding: 99 99 28
Width: 1024
GlyphClass: 2
Flags: W
LayerCount: 2
Fore
SplineSet
44 292 m 132,-1,1
 44 420 44 420 107 528 c 132,-1,2
 170 636 170 636 278 699 c 132,-1,3
 386 762 386 762 514 762 c 132,-1,4
 642 762 642 762 750 699 c 132,-1,5
 858 636 858 636 921 528 c 132,-1,6
 984 420 984 420 984 292 c 132,-1,7
 984 164 984 164 921 56 c 132,-1,8
 858 -52 858 -52 750 -115 c 132,-1,9
 642 -178 642 -178 514 -178 c 132,-1,10
 386 -178 386 -178 278 -115 c 132,-1,11
 170 -52 170 -52 107 56 c 132,-1,0
 44 164 44 164 44 292 c 132,-1,1
444 384 m 0,12,13
 444 356 444 356 464 336 c 128,-1,14
 484 316 484 316 512.5 316 c 128,-1,15
 541 316 541 316 560.5 336 c 128,-1,16
 580 356 580 356 580 384 c 128,-1,17
 580 412 580 412 560.5 432 c 128,-1,18
 541 452 541 452 512 452 c 0,19,20
 499 452 499 452 486 446.5 c 128,-1,21
 473 441 473 441 464 432 c 128,-1,22
 455 423 455 423 449.5 410 c 128,-1,23
 444 397 444 397 444 384 c 0,12,13
283 212 m 0,24,25
 283 184 283 184 303 164 c 128,-1,26
 323 144 323 144 351 144 c 128,-1,27
 379 144 379 144 399 164 c 128,-1,28
 419 184 419 184 419 212 c 128,-1,29
 419 240 419 240 399 260 c 128,-1,30
 379 280 379 280 351 280 c 0,31,32
 333 280 333 280 317 271 c 128,-1,33
 301 262 301 262 292 246 c 128,-1,34
 283 230 283 230 283 212 c 0,24,25
606 213 m 128,-1,36
 606 185 606 185 625.5 165 c 128,-1,37
 645 145 645 145 674 145 c 0,38,39
 687 145 687 145 700 150.5 c 128,-1,40
 713 156 713 156 722 165 c 128,-1,41
 731 174 731 174 736 186.5 c 128,-1,42
 741 199 741 199 741 213 c 0,43,44
 741 241 741 241 721.5 261 c 128,-1,45
 702 281 702 281 673.5 281 c 128,-1,46
 645 281 645 281 625.5 261 c 128,-1,35
 606 241 606 241 606 213 c 128,-1,36
797 510 m 2,47,48
 797 510 797 510 228 510 c 2,49,50
 219 510 219 510 212.5 503 c 128,-1,51
 206 496 206 496 206 487 c 2,52,53
 206 487 206 487 206 101 c 2,54,55
 206 92 206 92 212.5 85 c 128,-1,56
 219 78 219 78 228 78 c 2,57,58
 228 78 228 78 797 78 c 2,59,60
 803 78 803 78 808 81 c 128,-1,61
 813 84 813 84 816 89.5 c 128,-1,62
 819 95 819 95 819 101 c 2,63,64
 819 101 819 101 819 487 c 2,65,66
 819 493 819 493 816 498.5 c 128,-1,67
 813 504 813 504 808 507 c 128,-1,68
 803 510 803 510 797 510 c 2,47,48
803 111 m 2,69,70
 803 102 803 102 796.5 96 c 128,-1,71
 790 90 790 90 781 90 c 2,72,73
 781 90 781 90 243 90 c 2,74,75
 235 90 235 90 228.5 96 c 128,-1,76
 222 102 222 102 222 111 c 2,77,78
 222 111 222 111 222 477 c 2,79,80
 222 486 222 486 228.5 492 c 128,-1,81
 235 498 235 498 243 498 c 2,82,83
 243 498 243 498 781 498 c 2,84,85
 790 498 790 498 796.5 492 c 128,-1,86
 803 486 803 486 803 477 c 2,87,88
 803 477 803 477 803 111 c 2,69,70
925.5 407 m 128,-1,90
 910 462 910 462 881.5 509.5 c 128,-1,91
 853 557 853 557 814.5 596.5 c 128,-1,92
 776 636 776 636 727.5 663.5 c 128,-1,93
 679 691 679 691 625 706.5 c 128,-1,94
 571 722 571 722 512 722 c 256,95,96
 453 722 453 722 398 706.5 c 128,-1,97
 343 691 343 691 296 663.5 c 128,-1,98
 249 636 249 636 209.5 596.5 c 128,-1,99
 170 557 170 557 142 509.5 c 128,-1,100
 114 462 114 462 99 407 c 128,-1,101
 84 352 84 352 84 294 c 128,-1,102
 84 236 84 236 99 179 c 0,103,104
 114 125 114 125 142 78 c 128,-1,105
 170 31 170 31 209.5 -8.5 c 128,-1,106
 249 -48 249 -48 296 -76 c 256,107,108
 343 -104 343 -104 399 -119 c 0,109,110
 454 -134 454 -134 512.5 -134 c 128,-1,111
 571 -134 571 -134 625 -119 c 128,-1,112
 679 -104 679 -104 727.5 -76 c 128,-1,113
 776 -48 776 -48 814.5 -8.5 c 128,-1,114
 853 31 853 31 881.5 78 c 128,-1,115
 910 125 910 125 925.5 180.5 c 128,-1,116
 941 236 941 236 941 294 c 128,-1,89
 941 352 941 352 925.5 407 c 128,-1,90
838 89 m 2,117,118
 838 79 838 79 831 72 c 128,-1,119
 824 65 824 65 815 65 c 2,120,121
 815 65 815 65 210 65 c 2,122,123
 200 65 200 65 193 72 c 128,-1,124
 186 79 186 79 186 89 c 2,125,126
 186 89 186 89 186 499 c 2,127,128
 186 509 186 509 193 516 c 128,-1,129
 200 523 200 523 210 523 c 2,130,131
 210 523 210 523 815 523 c 2,132,133
 824 523 824 523 831 516 c 128,-1,134
 838 509 838 509 838 499 c 2,135,136
 838 499 838 499 838 89 c 2,117,118
EndSplineSet
Validated: 1
EndChar

StartChar: d
Encoding: 100 100 29
Width: 1024
GlyphClass: 2
Flags: W
LayerCount: 2
Fore
SplineSet
39 305 m 132,-1,1
 39 433 39 433 102 541 c 132,-1,2
 165 649 165 649 273 712 c 132,-1,3
 381 775 381 775 509 775 c 132,-1,4
 637 775 637 775 745 712 c 132,-1,5
 853 649 853 649 916 541 c 132,-1,6
 979 433 979 433 979 305 c 132,-1,7
 979 177 979 177 916 69 c 132,-1,8
 853 -39 853 -39 745 -102 c 132,-1,9
 637 -165 637 -165 509 -165 c 132,-1,10
 381 -165 381 -165 273 -102 c 132,-1,11
 165 -39 165 -39 102 69 c 132,-1,0
 39 177 39 177 39 305 c 132,-1,1
508 475 m 128,-1,13
 439 475 439 475 390 426 c 128,-1,14
 341 377 341 377 341 308 c 128,-1,15
 341 239 341 239 390 190 c 128,-1,16
 439 141 439 141 508 141 c 128,-1,17
 577 141 577 141 626 190 c 128,-1,18
 675 239 675 239 675 308 c 128,-1,19
 675 377 675 377 626 426 c 128,-1,12
 577 475 577 475 508 475 c 128,-1,13
397 214 m 1,20,21
 363 255 363 255 363 308 c 0,22,23
 363 368 363 368 405.5 410.5 c 128,-1,24
 448 453 448 453 508 453 c 0,25,26
 562 453 562 453 601 419 c 1,27,28
 601 419 601 419 586 404 c 1,29,30
 552 432 552 432 508 432 c 0,31,32
 457 432 457 432 420.5 396 c 128,-1,33
 384 360 384 360 384 308 c 0,34,35
 384 265 384 265 412 230 c 1,36,37
 412 230 412 230 397 214 c 1,20,21
609 308 m 0,38,39
 609 266 609 266 579.5 236.5 c 128,-1,40
 550 207 550 207 508 207 c 128,-1,41
 466 207 466 207 437 237 c 0,42,43
 407 268 407 268 407 308 c 0,44,45
 407 350 407 350 437 379 c 0,46,47
 468 409 468 409 508 409 c 0,48,49
 550 409 550 409 579 379 c 0,50,51
 609 348 609 348 609 308 c 0,38,39
508 163 m 0,52,53
 456 163 456 163 415 196 c 1,54,55
 415 196 415 196 431 211 c 1,56,57
 464 184 464 184 508 184 c 0,58,59
 559 184 559 184 596 221 c 0,60,61
 632 257 632 257 632 308 c 0,62,63
 632 352 632 352 604 386 c 1,64,65
 604 386 604 386 620 401 c 1,66,67
 654 361 654 361 654 308 c 0,68,69
 654 249 654 249 611 205 c 0,70,71
 570 163 570 163 508 163 c 0,52,53
508 727.59375 m 0,72,73
 394 727.59375 394 727.59375 297 671.796875 c 128,-1,74
 200 616 200 616 143 519 c 0,75,76
 87 422 87 422 87 308 c 128,-1,77
 87 194 87 194 144 97 c 0,78,79
 202 -1 202 -1 297 -57 c 128,-1,80
 392 -113 392 -113 508 -113 c 0,81,82
 623 -113 623 -113 720 -57 c 0,83,84
 816 -1 816 -1 873 97 c 0,85,86
 929 194 929 194 929 308 c 128,-1,87
 929 422 929 422 873 519 c 0,88,89
 816 618 816 618 720 673 c 0,90,91
 625 727.59375 625 727.59375 508 727.59375 c 0,72,73
757 473 m 1,92,-1
 715 431 l 1,93,-1
 691 454 l 1,94,-1
 734 497 l 1,95,-1
 757 473 l 1,92,-1
723 374 m 1,96,-1
 723 242 l 1,97,-1
 573 93 l 1,98,-1
 442 93 l 1,99,-1
 293 242 l 1,100,-1
 293 374 l 1,101,-1
 442 523 l 1,102,-1
 573 523 l 1,103,-1
 723 374 l 1,96,-1
697 534 m 1,104,-1
 654 491 l 1,105,-1
 631 514 l 1,106,-1
 674 557 l 1,107,-1
 697 534 l 1,104,-1
417 655 m 1,108,-1
 599 655 l 1,109,-1
 649 605 l 1,110,-1
 587 545 l 1,111,-1
 556 545 l 1,112,-1
 527 570 l 1,113,-1
 489 570 l 1,114,-1
 460 545 l 1,115,-1
 429 545 l 1,116,-1
 367 605 l 1,117,-1
 417 655 l 1,108,-1
343 557 m 1,118,-1
 386 514 l 1,119,-1
 362 491 l 1,120,-1
 319 534 l 1,121,-1
 343 557 l 1,118,-1
283 497 m 1,122,-1
 325 454 l 1,123,-1
 302 431 l 1,124,-1
 259 473 l 1,125,-1
 283 497 l 1,122,-1
161 217 m 1,126,-1
 161 399 l 1,127,-1
 211 449 l 1,128,-1
 272 387 l 1,129,-1
 272 356 l 1,130,-1
 247 327 l 1,131,-1
 247 289 l 1,132,-1
 272 260 l 1,133,-1
 272 229 l 1,134,-1
 211 167 l 1,135,-1
 161 217 l 1,126,-1
259 142 m 1,136,-1
 302 185 l 1,137,-1
 325 161 l 1,138,-1
 283 118 l 1,139,-1
 259 142 l 1,136,-1
319 82 m 1,140,-1
 362 124 l 1,141,-1
 386 101 l 1,142,-1
 343 58 l 1,143,-1
 319 82 l 1,140,-1
599 -40 m 1,144,-1
 417 -40 l 1,145,-1
 367 10 l 1,146,-1
 429 71 l 1,147,-1
 460 71 l 1,148,-1
 489 46 l 1,149,-1
 528 46 l 1,150,-1
 556 71 l 1,151,-1
 588 71 l 1,152,-1
 649 10 l 1,153,-1
 599 -40 l 1,144,-1
674 59 m 1,154,-1
 631 102 l 1,155,-1
 654 125 l 1,156,-1
 697 82 l 1,157,-1
 674 59 l 1,154,-1
734 119 m 1,158,-1
 691 162 l 1,159,-1
 715 185 l 1,160,-1
 757 143 l 1,161,-1
 734 119 l 1,158,-1
806 167 m 1,162,-1
 745 229 l 1,163,-1
 745 260 l 1,164,-1
 770 289 l 1,165,-1
 770 327 l 1,166,-1
 745 356 l 1,167,-1
 745 387 l 1,168,-1
 806 449 l 1,169,-1
 856 399 l 1,170,-1
 856 217 l 1,171,-1
 806 167 l 1,162,-1
EndSplineSet
Validated: 1
EndChar

StartChar: o
Encoding: 111 111 30
Width: 1060
GlyphClass: 2
Flags: W
LayerCount: 2
Fore
SplineSet
925.5 394 m 128,-1,1
 910 449 910 449 881.5 496.5 c 128,-1,2
 853 544 853 544 814.5 583.5 c 128,-1,3
 776 623 776 623 727.5 650.5 c 128,-1,4
 679 678 679 678 625 693.5 c 128,-1,5
 571 709 571 709 512 709 c 256,6,7
 453 709 453 709 398 693.5 c 128,-1,8
 343 678 343 678 296 650.5 c 128,-1,9
 249 623 249 623 209.5 583.5 c 128,-1,10
 170 544 170 544 142 496.5 c 128,-1,11
 114 449 114 449 99 394 c 128,-1,12
 84 339 84 339 84 281 c 128,-1,13
 84 223 84 223 99 166 c 0,14,15
 114 112 114 112 142 65 c 128,-1,16
 170 18 170 18 209.5 -21.5 c 128,-1,17
 249 -61 249 -61 296 -89 c 256,18,19
 343 -117 343 -117 399 -132 c 0,20,21
 454 -147 454 -147 512.5 -147 c 128,-1,22
 571 -147 571 -147 625 -132 c 128,-1,23
 679 -117 679 -117 727.5 -89 c 128,-1,24
 776 -61 776 -61 814.5 -21.5 c 128,-1,25
 853 18 853 18 881.5 65 c 128,-1,26
 910 112 910 112 925.5 167.5 c 128,-1,27
 941 223 941 223 941 281 c 128,-1,0
 941 339 941 339 925.5 394 c 128,-1,1
44 282 m 128,-1,29
 44 410 44 410 107 518 c 128,-1,30
 170 626 170 626 278 689 c 128,-1,31
 386 752 386 752 514 752 c 128,-1,32
 642 752 642 752 750 689 c 128,-1,33
 858 626 858 626 921 518 c 128,-1,34
 984 410 984 410 984 282 c 128,-1,35
 984 154 984 154 921 46 c 128,-1,36
 858 -62 858 -62 750 -125 c 128,-1,37
 642 -188 642 -188 514 -188 c 128,-1,38
 386 -188 386 -188 278 -125 c 128,-1,39
 170 -62 170 -62 107 46 c 128,-1,28
 44 154 44 154 44 282 c 128,-1,29
290 -3 m 0,40,41
 223 31 223 31 223 92 c 0,42,43
 223 106 223 106 241.5 136 c 128,-1,44
 260 166 260 166 269 166 c 0,45,46
 275 166 275 166 286 141 c 0,47,48
 314 76 314 76 373 49 c 0,49,50
 401 36 401 36 401 30 c 256,51,52
 401 24 401 24 370 3 c 128,-1,53
 339 -18 339 -18 329 -18 c 256,54,55
 319 -18 319 -18 290 -3 c 0,40,41
376 62 m 0,56,57
 360 65 360 65 331 95 c 0,58,59
 298.768518519 128.324074074 298.768518519 128.324074074 298.768518519 160.454389575 c 0,60,61
 298.768518519 187.138888889 298.768518519 187.138888889 321 213 c 2,62,63
 321 213 321 213 340 235 c 1,64,-1
 357 205 l 2,65,66
 393 141 393 141 445 117 c 0,67,68
 456.363636364 111.545454545 456.363636364 111.545454545 456.363636364 103.818181818 c 0,69,70
 456.363636364 94.5454545455 456.363636364 94.5454545455 440 82 c 0,71,72
 412.375 60.875 412.375 60.875 387.390625 60.875 c 0,73,74
 381.625 60.875 381.625 60.875 376 62 c 0,56,57
431 142 m 0,75,76
 350.168224299 198.495327103 350.168224299 198.495327103 350.168224299 252.724342737 c 0,77,78
 350.168224299 260.887850467 350.168224299 260.887850467 352 269 c 0,79,80
 356 286 356 286 378 312.5 c 0,81,82
 395.818181818 334.327272727 395.818181818 334.327272727 404.905454545 334.327272727 c 0,83,84
 406.018181818 334.327272727 406.018181818 334.327272727 407 334 c 0,85,86
 416 331 416 331 416 303 c 0,87,88
 416 262 416 262 456 225 c 0,89,90
 495 189 495 189 531 184 c 0,91,92
 556.102272727 180.261363636 556.102272727 180.261363636 556.102272727 167.965134298 c 0,93,94
 556.102272727 157.238636364 556.102272727 157.238636364 537 140 c 0,95,96
 515.035714286 119.988095238 515.035714286 119.988095238 489.259637188 119.988095238 c 0,97,98
 462.226190476 119.988095238 462.226190476 119.988095238 431 142 c 0,75,76
616 176 m 0,99,100
 603 186 603 186 618 197 c 0,101,102
 645 217 645 217 682 290 c 128,-1,103
 719 363 719 363 729 414 c 0,104,105
 731.149253731 424.746268657 731.149253731 424.746268657 731.149253731 430.969480953 c 0,106,107
 731.149253731 439.531914894 731.149253731 439.531914894 727.080579448 439.531914894 c 0,108,109
 717.595744681 439.531914894 717.595744681 439.531914894 686 393 c 0,110,111
 649 337 649 337 592.5 272 c 128,-1,112
 536 207 536 207 525 207 c 0,113,114
 488 207 488 207 452 264 c 0,115,116
 440.204081633 282.734693878 440.204081633 282.734693878 440.204081633 296.173261141 c 0,117,118
 440.204081633 302.102040816 440.204081633 302.102040816 442.5 307 c 0,119,120
 445.909090909 314.272727273 445.909090909 314.272727273 445.909090909 322.785123967 c 0,121,122
 445.909090909 333 445.909090909 333 441 345 c 0,123,124
 438.868421053 350.210526316 438.868421053 350.210526316 438.868421053 355.701523546 c 0,125,126
 438.868421053 373.394736842 438.868421053 373.394736842 461 394 c 0,127,128
 568 494 568 494 646 494 c 0,129,130
 668 494 668 494 666 501 c 0,131,132
 665 505 665 505 645 505 c 0,133,134
 626 505 626 505 594.5 493.5 c 128,-1,135
 563 482 563 482 537 469 c 0,136,137
 453 427 453 427 433 394 c 0,138,139
 414 363 414 363 404 403 c 0,140,141
 403.456521739 405.282608696 403.456521739 405.282608696 403.456521739 407.742438563 c 0,142,143
 403.456521739 427.913043478 403.456521739 427.913043478 440 460 c 0,144,145
 549 555 549 555 698 555 c 0,146,147
 754 555 754 555 764.5 540 c 128,-1,148
 775 525 775 525 775 458 c 0,149,150
 775 303 775 303 675 195 c 0,151,152
 652.127272727 170.109090909 652.127272727 170.109090909 633.327603306 170.109090909 c 0,153,154
 624.181818182 170.109090909 624.181818182 170.109090909 616 176 c 0,99,100
EndSplineSet
Validated: 1
EndChar

StartChar: colon
Encoding: 58 58 31
Width: 1270
Flags: W
LayerCount: 2
Fore
SplineSet
1234 274 m 1,0,-1
 1022 61 l 1,1,-1
 1016 64 l 1,2,-1
 1018 61 l 1,3,-1
 912 61 l 1,4,-1
 632 486 l 1,5,-1
 351 61 l 1,6,-1
 246 61 l 1,7,-1
 246 61 l 1,8,-1
 34 274 l 1,9,-1
 385 274 l 1,10,-1
 632 644 l 1,11,-1
 878 274 l 1,12,-1
 1234 274 l 1,0,-1
632 352 m 1,13,-1
 908 -66 l 1,14,-1
 356 -66 l 1,15,-1
 632 352 l 1,13,-1
EndSplineSet
Validated: 5
EndChar

StartChar: semicolon
Encoding: 59 59 32
Width: 1024
Flags: W
LayerCount: 2
Fore
SplineSet
506 640 m 0,0,1
 510 646 510 646 512 645 c 0,2,3
 516 643 516 643 556 584 c 0,4,5
 593 529 593 529 652 440 c 0,6,7
 710 354 710 354 752 291 c 2,8,-1
 792 232 l 1,9,-1
 792 149 l 1,10,-1
 792 66 l 1,11,-1
 789 70 l 2,12,13
 786 73 786 73 778 85 c 0,14,15
 767 102 767 102 660 265 c 0,16,17
 607 346 607 346 548 435 c 0,18,19
 518 480 518 480 515 483 c 2,20,-1
 512 486 l 1,21,-1
 509 482 l 2,22,23
 505 478 505 478 425 357 c 0,24,25
 403 323 403 323 331 214 c 0,26,27
 308 179 308 179 274 128 c 0,28,29
 261 109 261 109 254 98 c 128,-1,30
 247 87 247 87 242 80.5 c 128,-1,31
 237 74 237 74 235.5 72 c 128,-1,32
 234 70 234 70 233 71 c 0,33,34
 232 73 232 73 232 152 c 128,-1,35
 232 231 232 231 235 233 c 2,36,37
 235 233 235 233 410 496 c 0,38,39
 501 634 501 634 506 640 c 0,0,1
506 346 m 0,40,41
 510 352 510 352 511 352 c 0,42,43
 513 352 513 352 615 199 c 0,44,45
 711 55 711 55 751 -5 c 2,46,-1
 792 -66 l 1,47,-1
 512 -66 l 1,48,-1
 232 -66 l 2,49,50
 231 -65 231 -65 231 -65 c 129,-1,51
 231 -65 231 -65 296 32.5 c 128,-1,52
 361 130 361 130 431 235 c 128,-1,53
 501 340 501 340 506 346 c 0,40,41
EndSplineSet
Validated: 1
EndChar

StartChar: less
Encoding: 60 60 33
Width: 906
Flags: W
LayerCount: 2
Fore
SplineSet
456 578 m 1,0,-1
 856 -29 l 1,1,-1
 56 -29 l 1,2,-1
 456 578 l 1,0,-1
EndSplineSet
Validated: 1
EndChar

StartChar: bracketleft
Encoding: 91 91 34
Width: 743
Flags: W
LayerCount: 2
Fore
SplineSet
379 586 m 5,0,1
 388 572 388 572 396.5 559.5 c 132,-1,2
 405 547 405 547 415 536 c 132,-1,3
 425 525 425 525 438.5 516.5 c 132,-1,4
 452 508 452 508 470 502 c 6,5,6
 470 502 470 502 475 500 c 4,7,8
 478 498 478 498 483 498 c 4,9,10
 495 498 495 498 512.5 505 c 132,-1,11
 530 512 530 512 550 523 c 132,-1,12
 570 534 570 534 590.5 546.5 c 132,-1,13
 611 559 611 559 630.5 571 c 132,-1,14
 650 583 650 583 668 592 c 4,15,16
 686 602 686 602 698 607 c 5,17,18
 693 593 693 593 682 573.5 c 132,-1,19
 671 554 671 554 658 531.5 c 132,-1,20
 645 509 645 509 631.5 486 c 132,-1,21
 618 463 618 463 608 442.5 c 132,-1,22
 598 422 598 422 593 406 c 260,23,24
 588 390 588 390 592 380 c 4,25,26
 597 362 597 362 606 348.5 c 132,-1,27
 615 335 615 335 626 324.5 c 132,-1,28
 637 314 637 314 650 306 c 132,-1,29
 663 298 663 298 677 288 c 5,30,31
 663 279 663 279 650 270.5 c 132,-1,32
 637 262 637 262 626 252 c 132,-1,33
 615 242 615 242 606.5 229 c 132,-1,34
 598 216 598 216 592 198 c 4,35,36
 588 188 588 188 593 171 c 132,-1,37
 598 154 598 154 608 133.5 c 132,-1,38
 618 113 618 113 631.5 90.5 c 132,-1,39
 645 68 645 68 658 45.5 c 132,-1,40
 671 23 671 23 681.5 3.5 c 132,-1,41
 692 -16 692 -16 698 -30 c 5,42,43
 686 -26 686 -26 668 -16 c 132,-1,44
 650 -6 650 -6 630.5 6 c 132,-1,45
 611 18 611 18 590.5 31 c 132,-1,46
 570 44 570 44 550 54 c 132,-1,47
 530 64 530 64 513 71 c 132,-1,48
 496 78 496 78 483 78 c 4,49,50
 475 78 475 78 470 76 c 4,51,52
 452 70 452 70 438.5 61 c 132,-1,53
 425 52 425 52 415 41 c 132,-1,54
 405 30 405 30 396.5 17 c 132,-1,55
 388 4 388 4 379 -10 c 5,56,57
 370 4 370 4 361 17 c 132,-1,58
 352 30 352 30 342 41 c 132,-1,59
 332 52 332 52 319 61 c 132,-1,60
 306 70 306 70 288 76 c 4,61,62
 282 78 282 78 274 78 c 4,63,64
 262 78 262 78 245 71 c 132,-1,65
 228 64 228 64 208 54 c 132,-1,66
 188 44 188 44 167 31 c 132,-1,67
 146 18 146 18 126.5 6 c 132,-1,68
 107 -6 107 -6 89.5 -16 c 132,-1,69
 72 -26 72 -26 60 -30 c 5,70,71
 64 -16 64 -16 75.5 3.5 c 132,-1,72
 87 23 87 23 100 45.5 c 132,-1,73
 113 68 113 68 126.5 90.5 c 132,-1,74
 140 113 140 113 150 133.5 c 132,-1,75
 160 154 160 154 165 171 c 132,-1,76
 170 188 170 188 166 198 c 4,77,78
 160 216 160 216 151 229 c 132,-1,79
 142 242 142 242 131 252 c 132,-1,80
 120 262 120 262 107 271 c 132,-1,81
 94 280 94 280 80 288 c 5,82,83
 94 297 94 297 107 305.5 c 132,-1,84
 120 314 120 314 131 324.5 c 132,-1,85
 142 335 142 335 151 348 c 4,86,87
 160 362 160 362 166 380 c 4,88,89
 170 390 170 390 165 406 c 132,-1,90
 160 422 160 422 150 442.5 c 132,-1,91
 140 463 140 463 126.5 486 c 132,-1,92
 113 509 113 509 100 531.5 c 132,-1,93
 87 554 87 554 76 574 c 4,94,95
 64 593 64 593 60 607 c 5,96,97
 72 603 72 603 89.5 593 c 132,-1,98
 107 583 107 583 126.5 571 c 132,-1,99
 146 559 146 559 167 546.5 c 132,-1,100
 188 534 188 534 208 523 c 132,-1,101
 228 512 228 512 245 505 c 132,-1,102
 262 498 262 498 274 498 c 4,103,104
 278 498 278 498 282 500 c 4,105,106
 286 501 286 501 288 502 c 4,107,108
 306 508 306 508 319 516.5 c 132,-1,109
 332 525 332 525 342 536 c 132,-1,110
 352 547 352 547 361 559.5 c 132,-1,111
 370 572 370 572 379 586 c 5,0,1
EndSplineSet
EndChar

StartChar: bracketright
Encoding: 93 93 35
Width: 771
Flags: W
LayerCount: 2
Fore
SplineSet
638 186 m 4,0,1
 633.5 174 633.5 174 633.5 158 c 132,-1,2
 633.5 142 633.5 142 639.25 123.5 c 132,-1,3
 645 105 645 105 652.5 85.5 c 132,-1,4
 660 66 660 66 669 47 c 132,-1,5
 678 28 678 28 686 10.5 c 132,-1,6
 694 -7 694 -7 700 -21 c 5,7,8
 682 -14 682 -14 657.5 -3 c 132,-1,9
 633 8 633 8 607.5 18.5 c 132,-1,10
 582 29 582 29 557 36.5 c 4,11,12
 531.391601562 44.34765625 531.391601562 44.34765625 517.383789062 44.34765625 c 4,13,14
 514.434570312 44.34765625 514.434570312 44.34765625 512 44 c 4,15,16
 508 43.5 508 43.5 503 43.5 c 132,-1,17
 498 43.5 498 43.5 493 40 c 4,18,19
 475 33 475 33 458.5 22.5 c 132,-1,20
 442 12 442 12 428 -1 c 132,-1,21
 414 -14 414 -14 404 -28 c 132,-1,22
 394 -42 394 -42 390 -58 c 5,23,24
 386 -43 386 -43 375.5 -28.5 c 132,-1,25
 365 -14 365 -14 351.5 -1 c 132,-1,26
 338 12 338 12 321 22.5 c 132,-1,27
 304 33 304 33 286 40 c 4,28,29
 282 43 282 43 276 44 c 4,30,31
 270 44 270 44 266 44 c 4,32,33
 246 44 246 44 221.5 36.5 c 132,-1,34
 197 29 197 29 171.5 18.5 c 132,-1,35
 146 8 146 8 122 -3 c 132,-1,36
 98 -14 98 -14 79 -21 c 5,37,38
 85 -7 85 -7 93 10.5 c 132,-1,39
 101 28 101 28 109.5 47 c 132,-1,40
 118 66 118 66 126 85.5 c 132,-1,41
 134 105 134 105 139.5 123.5 c 132,-1,42
 145 142 145 142 145 158 c 132,-1,43
 145 174 145 174 140 186 c 4,44,45
 131 206 131 206 122.5 221 c 4,46,47
 112 238 112 238 100 251 c 132,-1,48
 88 264 88 264 73 274 c 132,-1,49
 58 284 58 284 42 289 c 5,50,51
 58 293 58 293 73 303.5 c 132,-1,52
 88 314 88 314 100 327.5 c 132,-1,53
 112 341 112 341 122.5 357.5 c 4,54,55
 132 372 132 372 140 392 c 4,56,57
 145 404 145 404 145 420 c 132,-1,58
 145 436 145 436 139.5 455 c 132,-1,59
 134 474 134 474 126 493 c 132,-1,60
 118 512 118 512 109.5 531.5 c 132,-1,61
 101 551 101 551 92.5 568.5 c 132,-1,62
 84 586 84 586 79 600 c 5,63,64
 97 593 97 593 121.5 581.5 c 132,-1,65
 146 570 146 570 171.5 560 c 132,-1,66
 197 550 197 550 221.5 542 c 132,-1,67
 246 534 246 534 266 534 c 4,68,69
 270 534 270 534 276 535 c 132,-1,70
 282 536 282 536 286 538 c 4,71,72
 304 545 304 545 321 555.5 c 132,-1,73
 338 566 338 566 351.5 579 c 132,-1,74
 365 592 365 592 375 606 c 4,75,76
 386 621 386 621 390 636 c 5,77,78
 394 621 394 621 404 606.5 c 132,-1,79
 414 592 414 592 428 579 c 132,-1,80
 442 566 442 566 458.5 556 c 132,-1,81
 475 546 475 546 493 538 c 4,82,83
 497 534.5 497 534.5 502.5 534.5 c 132,-1,84
 508 534.5 508 534.5 512 534 c 4,85,86
 514.333007812 533.666992188 514.333007812 533.666992188 517.138671875 533.666992188 c 4,87,88
 531.166992188 533.666992188 531.166992188 533.666992188 557 542 c 4,89,90
 582 550 582 550 607.5 560 c 132,-1,91
 633 570 633 570 657 581 c 4,92,93
 682 592 682 592 700 600 c 5,94,95
 694 586 694 586 686 568.5 c 132,-1,96
 678 551 678 551 669 531.5 c 132,-1,97
 660 512 660 512 652.5 493 c 132,-1,98
 645 474 645 474 639.5 455 c 132,-1,99
 634 436 634 436 634 420 c 132,-1,100
 634 404 634 404 638 392 c 4,101,102
 643 377 643 377 655.5 357.5 c 4,103,104
 666 341 666 341 679 327.5 c 132,-1,105
 692 314 692 314 706.5 304 c 132,-1,106
 721 294 721 294 736 289 c 5,107,108
 721 285 721 285 706.5 274.5 c 132,-1,109
 692 264 692 264 679 251 c 132,-1,110
 666 238 666 238 655.5 221 c 4,111,112
 644 203 644 203 638 186 c 4,0,1
544 226 m 4,113,114
 548 234 548 234 551.5 243 c 132,-1,115
 555 252 555 252 559.5 261 c 132,-1,116
 564 270 564 270 569 277 c 132,-1,117
 574 284 574 284 580 289 c 5,118,119
 574 293 574 293 569 300.5 c 132,-1,120
 564 308 564 308 559.5 317 c 132,-1,121
 555 326 555 326 551.5 335 c 132,-1,122
 548 344 548 344 544 353 c 4,123,124
 537 374 537 374 536 393 c 132,-1,125
 535 412 535 412 535 435 c 5,126,127
 531 434.5 531 434.5 524.5 434.25 c 132,-1,128
 518 434 518 434 512 434 c 4,129,130
 490 434 490 434 453 444 c 4,131,132
 451 445 451 445 435.5 451 c 4,133,134
 426 455 426 455 417.5 459.5 c 132,-1,135
 409 464 409 464 401.5 469 c 132,-1,136
 394 474 394 474 390 480 c 5,137,138
 386 474 386 474 378 469 c 132,-1,139
 370 464 370 464 361 459.5 c 132,-1,140
 352 455 352 455 343 451 c 132,-1,141
 334 447 334 447 326 444 c 4,142,143
 294 434 294 434 266 434 c 6,144,145
 266 434 266 434 254 434 c 4,146,147
 248 434 248 434 244 435 c 5,148,149
 243 413 243 413 243 393.5 c 132,-1,150
 243 374 243 374 235 353 c 4,151,152
 231 345 231 345 227.5 335.5 c 132,-1,153
 224 326 224 326 219 317 c 132,-1,154
 214 308 214 308 209 301 c 132,-1,155
 204 294 204 294 198 289 c 5,156,157
 204 285 204 285 209 277.5 c 132,-1,158
 214 270 214 270 219 261 c 132,-1,159
 224 252 224 252 228 243 c 132,-1,160
 232 234 232 234 235 226 c 4,161,162
 241 205 241 205 242.5 185.5 c 132,-1,163
 244 166 244 166 244 144 c 5,164,-1
 254 144 l 5,165,166
 254 144 254 144 266 144 c 4,167,168
 294 144 294 144 326 134 c 4,169,170
 334 131 334 131 343 127.5 c 132,-1,171
 352 124 352 124 361 119 c 132,-1,172
 370 114 370 114 378 109 c 260,173,174
 386 104 386 104 390 98 c 5,175,176
 394 104 394 104 401.5 109 c 132,-1,177
 409 114 409 114 417.5 119 c 132,-1,178
 426 124 426 124 435 128 c 132,-1,179
 444 132 444 132 453 134 c 4,180,181
 485 144 485 144 512 144 c 6,182,183
 512 144 512 144 524 144 c 6,184,-1
 535 144 l 5,185,186
 536 166 536 166 536 185.5 c 132,-1,187
 536 205 536 205 544 226 c 4,113,114
EndSplineSet
EndChar

StartChar: T
Encoding: 84 84 36
Width: 1024
Flags: W
LayerCount: 2
Fore
SplineSet
918.5 399 m 132,-1,1
 934 344 934 344 934 286 c 132,-1,2
 934 228 934 228 918.5 172.5 c 132,-1,3
 903 117 903 117 874.5 70 c 132,-1,4
 846 23 846 23 807.5 -16.5 c 132,-1,5
 769 -56 769 -56 720.5 -84 c 132,-1,6
 672 -112 672 -112 618 -127 c 132,-1,7
 564 -142 564 -142 505.5 -142 c 132,-1,8
 447 -142 447 -142 392 -127 c 4,9,10
 336 -112 336 -112 289 -84 c 260,11,12
 242 -56 242 -56 202.5 -16.5 c 132,-1,13
 163 23 163 23 135 70 c 132,-1,14
 107 117 107 117 92 171 c 4,15,16
 77 228 77 228 77 286 c 132,-1,17
 77 344 77 344 92 399 c 132,-1,18
 107 454 107 454 135 501.5 c 132,-1,19
 163 549 163 549 202.5 588.5 c 132,-1,20
 242 628 242 628 289 655.5 c 132,-1,21
 336 683 336 683 391 698.5 c 132,-1,22
 446 714 446 714 505 714 c 260,23,24
 564 714 564 714 618 698.5 c 132,-1,25
 672 683 672 683 720.5 655.5 c 132,-1,26
 769 628 769 628 807.5 588.5 c 132,-1,27
 846 549 846 549 874.5 501.5 c 132,-1,0
 903 454 903 454 918.5 399 c 132,-1,1
437 594 m 2,28,29
 406 586 406 586 371 561 c 0,30,31
 353 548 353 548 353 547 c 256,32,33
 353 546 353 546 390 546 c 2,34,-1
 428 546 l 1,35,-1
 428 552 l 1,36,-1
 428 557 l 1,37,-1
 506 557 l 1,38,-1
 584 557 l 1,39,-1
 584 552 l 1,40,-1
 584 546 l 1,41,-1
 622 546 l 2,42,43
 625 547 625 547 659 547 c 1,44,45
 658 550 658 550 641 562 c 0,46,47
 609 584 609 584 581 593 c 0,48,-1
 570 596 l 1,49,-1
 507 596 l 1,50,-1
 445 596 l 1,51,-1
 437 594 l 2,28,29
440 485 m 1,52,-1
 506 485 l 1,53,-1
 572 485 l 1,54,-1
 572 491 l 2,55,56
 572 543 572 543 571 543 c 1,57,58
 440 543 440 543 440 543 c 1,59,60
 440 514 440 514 440 485 c 1,52,-1
261 533 m 0,61,62
 247 530 247 530 236.5 519.5 c 128,-1,63
 226 509 226 509 223 495 c 0,64,65
 223 490 223 490 223 440 c 2,66,-1
 223 390 l 1,67,-1
 506 390 l 1,68,-1
 790 390 l 1,69,-1
 790 440 l 2,70,71
 790 490 790 490 789 495 c 0,72,73
 784 522 784 522 757 532 c 2,74,-1
 751 534 l 1,75,-1
 668 534 l 1,76,-1
 585 534 l 1,77,-1
 585 498 l 1,78,-1
 585 462 l 1,79,-1
 506 462 l 1,80,-1
 428 462 l 1,81,-1
 428 498 l 1,82,-1
 428 534 l 1,83,-1
 346 534 l 2,84,85
 265 534 265 534 261 533 c 0,61,62
339 360 m 1,86,-1
 339 345 l 1,87,-1
 414 345 l 1,88,-1
 490 345 l 1,89,-1
 490 360 l 1,90,-1
 490 375 l 1,91,-1
 414 375 l 1,92,-1
 339 375 l 1,93,-1
 339 360 l 1,86,-1
523 360 m 1,94,-1
 523 345 l 1,95,-1
 598 345 l 1,96,-1
 674 345 l 1,97,-1
 674 360 l 1,98,-1
 674 375 l 1,99,-1
 598 375 l 1,100,-1
 523 375 l 1,101,-1
 523 360 l 1,94,-1
263 373 m 0,102,103
 255 370 255 370 254 361 c 128,-1,104
 253 352 253 352 261 347 c 2,105,-1
 264 345 l 1,106,-1
 285 345 l 1,107,-1
 305 345 l 1,108,-1
 305 359 l 1,109,-1
 305 374 l 1,110,-1
 285 374 l 2,111,112
 265 374 265 374 263 373 c 0,102,103
707 359 m 1,113,-1
 707 345 l 1,114,-1
 727 345 l 1,115,-1
 748 345 l 1,116,-1
 751 347 l 2,117,118
 758 351 758 351 758 359.5 c 128,-1,119
 758 368 758 368 751 372 c 2,120,-1
 748 374 l 1,121,-1
 727 374 l 1,122,-1
 707 374 l 1,123,-1
 707 359 l 1,113,-1
265 327 m 0,124,125
 256 325 256 325 254.5 315.5 c 128,-1,126
 253 306 253 306 261 300 c 2,127,-1
 263 298 l 1,128,-1
 284 298 l 1,129,-1
 305 298 l 1,130,-1
 305 313 l 1,131,-1
 305 328 l 1,132,-1
 286 328 l 2,133,134
 267 328 267 328 265 327 c 0,124,125
339 313 m 1,135,-1
 339 298 l 1,136,-1
 414 298 l 1,137,-1
 490 298 l 1,138,-1
 490 313 l 1,139,-1
 490 328 l 1,140,-1
 414 328 l 1,141,-1
 339 328 l 1,142,-1
 339 313 l 1,135,-1
523 313 m 1,143,-1
 523 298 l 1,144,-1
 598 298 l 1,145,-1
 674 298 l 1,146,-1
 674 313 l 1,147,-1
 674 328 l 1,148,-1
 598 328 l 1,149,-1
 523 328 l 1,150,-1
 523 313 l 1,143,-1
707 313 m 1,151,-1
 707 298 l 1,152,-1
 728 299 l 1,153,-1
 749 299 l 1,154,-1
 752 300 l 2,155,156
 758.5 306 758.5 306 758.5 314 c 128,-1,157
 758.5 322 758.5 322 750 326 c 0,158,159
 746 328 746 328 727 328 c 2,160,-1
 707 328 l 1,161,-1
 707 313 l 1,151,-1
339 266 m 1,162,-1
 339 251 l 1,163,-1
 414 251 l 1,164,-1
 490 251 l 1,165,-1
 490 266 l 1,166,-1
 490 282 l 1,167,-1
 414 282 l 1,168,-1
 339 282 l 1,169,-1
 339 266 l 1,162,-1
523 266 m 1,170,-1
 523 251 l 1,171,-1
 598 251 l 1,172,-1
 674 251 l 1,173,-1
 674 266 l 1,174,-1
 674 282 l 1,175,-1
 598 282 l 1,176,-1
 523 282 l 1,177,-1
 523 266 l 1,170,-1
263 280 m 0,178,179
 258 278 258 278 255.5 271.5 c 128,-1,180
 253 265 253 265 255.5 259.5 c 128,-1,181
 258 254 258 254 263 252.5 c 128,-1,182
 268 251 268 251 286 251 c 2,183,-1
 305 251 l 1,184,-1
 305 266 l 1,185,-1
 305 281 l 1,186,-1
 285 281 l 2,187,188
 265 281 265 281 263 280 c 0,178,179
707 266 m 1,189,-1
 707 251 l 1,190,-1
 726 251 l 2,191,192
 745 251 745 251 748 252 c 0,193,194
 756 255 756 255 758 263 c 128,-1,195
 760 271 760 271 754 277 c 0,196,197
 750 281 750 281 727 281 c 2,198,-1
 707 281 l 1,199,-1
 707 266 l 1,189,-1
264 234 m 0,200,201
 254 231 254 231 254 221 c 128,-1,202
 254 211 254 211 262 207 c 0,203,204
 266 205 266 205 286 205 c 2,205,-1
 306 205 l 1,206,-1
 306 220 l 1,207,-1
 306 235 l 1,208,-1
 286 235 l 2,209,210
 267 235 267 235 264 234 c 0,200,201
339 220 m 1,211,-1
 339 204 l 1,212,-1
 414 204 l 1,213,-1
 490 204 l 1,214,-1
 490 220 l 1,215,-1
 490 235 l 1,216,-1
 414 235 l 1,217,-1
 339 235 l 1,218,-1
 339 220 l 1,211,-1
523 220 m 1,219,-1
 523 204 l 1,220,-1
 598 204 l 1,221,-1
 674 204 l 1,222,-1
 674 220 l 1,223,-1
 674 235 l 1,224,-1
 598 235 l 1,225,-1
 523 235 l 1,226,-1
 523 220 l 1,219,-1
707 220 m 1,227,-1
 707 205 l 1,228,-1
 727 205 l 2,229,230
 746 205 746 205 750 207 c 0,231,232
 758.5 211 758.5 211 758.5 220.5 c 128,-1,233
 758.5 230 758.5 230 749 234 c 0,234,235
 747 235 747 235 727 235 c 2,236,-1
 707 235 l 1,237,-1
 707 220 l 1,227,-1
223 137 m 2,238,239
 223 87 223 87 223 83 c 0,240,241
 226 68 226 68 236.5 57 c 128,-1,242
 247 46 247 46 261 44 c 0,243,244
 267 43 267 43 506.5 43 c 128,-1,245
 746 43 746 43 751 44 c 0,246,247
 766 46 766 46 776.5 57 c 128,-1,248
 787 68 787 68 789 83 c 0,249,250
 790 87 790 87 790 137 c 2,251,-1
 790 187 l 1,252,-1
 506 187 l 1,253,-1
 223 187 l 1,254,-1
 223 137 l 2,238,239
EndSplineSet
Validated: 1
EndChar

